<?xml version="1.0" encoding="UTF-8" standalone="no"?>
<svg
   xmlns:dc="http://purl.org/dc/elements/1.1/"
   xmlns:cc="http://creativecommons.org/ns#"
   xmlns:rdf="http://www.w3.org/1999/02/22-rdf-syntax-ns#"
   xmlns:svg="http://www.w3.org/2000/svg"
   xmlns="http://www.w3.org/2000/svg"
   xmlns:sodipodi="http://sodipodi.sourceforge.net/DTD/sodipodi-0.dtd"
   xmlns:inkscape="http://www.inkscape.org/namespaces/inkscape"
   version="1.1"
   id="svg2"
   xml:space="preserve"
   width="188.976"
   height="188.976"
   viewBox="0 0 188.976 188.976"
   sodipodi:docname="otto 3.ai"><metadata
     id="metadata8"><rdf:RDF><cc:Work
         rdf:about=""><dc:format>image/svg+xml</dc:format><dc:type
           rdf:resource="http://purl.org/dc/dcmitype/StillImage" /></cc:Work></rdf:RDF></metadata><defs
     id="defs6"><clipPath
       clipPathUnits="userSpaceOnUse"
       id="clipPath18"><path
         d="M 0,141.732 H 141.732 V 0 H 0 Z"
         id="path16" /></clipPath></defs><sodipodi:namedview
     pagecolor="#ffffff"
     bordercolor="#666666"
     borderopacity="1"
     objecttolerance="10"
     gridtolerance="10"
     guidetolerance="10"
     inkscape:pageopacity="0"
     inkscape:pageshadow="2"
     inkscape:window-width="640"
     inkscape:window-height="480"
     id="namedview4" /><g
     id="g10"
     inkscape:groupmode="layer"
     inkscape:label="otto 3"
     transform="matrix(1.3333333,0,0,-1.3333333,0,188.976)"><g
       id="g12"><g
         id="g14"
         clip-path="url(#clipPath18)"><g
           id="g20"
           transform="translate(96.0586,53.5703)"><path
             d="m 0,0 c -0.273,1.846 -1.349,4.253 -3.047,6.104 -0.219,0.236 -0.204,0.606 0.034,0.825 0.07,0.064 0.151,0.108 0.237,0.133 0.364,0.103 0.591,0.254 0.688,0.43 0.07,0.126 0.074,0.287 0.014,0.468 -0.082,0.249 -0.277,0.527 -0.579,0.814 -0.944,0.893 -2.813,1.743 -5.586,2.035 -0.782,0.082 -1.57,0.129 -2.34,0.175 -3.662,0.22 -6.973,0.419 -9.125,4.148 -2.254,3.902 -1.949,8.784 -1.634,13.872 0.111,1.789 0.225,3.604 0.225,5.428 0,0.315 0.25,0.573 0.562,0.585 0.083,0.009 0.16,0.031 0.23,0.066 0.169,0.088 0.309,0.262 0.408,0.517 0.121,0.315 0.173,0.742 0.133,1.275 -0.071,0.924 -0.42,2.119 -1.16,3.55 -0.087,0.169 -0.084,0.36 -0.008,0.519 l -0.001,10e-4 c 0.32,0.674 0.511,1.34 0.442,1.973 -0.065,0.616 -0.383,1.234 -1.075,1.847 -0.197,0.174 -0.249,0.453 -0.144,0.681 0.327,0.709 0.43,1.649 0.088,2.517 -0.272,0.693 -0.839,1.345 -1.816,1.809 -0.291,0.138 -0.417,0.486 -0.279,0.778 l 0.004,0.007 c 0.131,0.343 -0.008,0.782 -0.3,1.16 -0.17,0.219 -0.392,0.414 -0.644,0.559 -0.244,0.14 -0.513,0.23 -0.785,0.245 -0.511,0.028 -1.067,-0.214 -1.554,-0.896 -0.186,-0.263 -0.55,-0.324 -0.814,-0.137 -0.123,0.088 -0.201,0.214 -0.232,0.351 -0.113,0.456 -0.36,0.806 -0.676,1.048 -0.364,0.278 -0.82,0.421 -1.282,0.429 -0.463,-0.008 -0.919,-0.151 -1.28,-0.429 -0.321,-0.244 -0.569,-0.598 -0.682,-1.06 -0.075,-0.314 -0.391,-0.506 -0.704,-0.431 -0.143,0.035 -0.259,0.119 -0.339,0.229 -0.484,0.682 -1.042,0.924 -1.553,0.896 -0.273,-0.015 -0.541,-0.105 -0.784,-0.245 -0.253,-0.145 -0.475,-0.34 -0.644,-0.559 -0.3,-0.387 -0.439,-0.838 -0.29,-1.185 0.125,-0.29 -0.002,-0.625 -0.287,-0.758 l 10e-4,-0.002 c -0.978,-0.464 -1.544,-1.116 -1.817,-1.809 -0.341,-0.868 -0.237,-1.808 0.089,-2.516 0.117,-0.251 0.039,-0.542 -0.169,-0.705 -0.674,-0.605 -0.985,-1.215 -1.05,-1.824 -0.068,-0.633 0.123,-1.299 0.443,-1.973 0.087,-0.184 0.07,-0.39 -0.025,-0.552 -0.729,-1.418 -1.075,-2.6 -1.143,-3.518 -0.042,-0.533 0.01,-0.96 0.131,-1.275 0.098,-0.255 0.241,-0.429 0.41,-0.517 0.073,-0.038 0.157,-0.061 0.249,-0.068 0.308,-0.023 0.542,-0.28 0.542,-0.583 10e-4,-2.707 0,-2.254 -10e-4,-1.979 0.008,-8.609 0.01,-13.236 -1.654,-19.449 l -0.146,-0.542 c -0.322,-1.18 -0.571,-2.097 -0.46,-2.392 0.281,-0.742 0.95,-0.334 0.952,-0.333 0.279,0.16 0.637,0.064 0.796,-0.215 0.082,-0.142 0.098,-0.303 0.056,-0.448 l 0.002,-10e-4 c -0.004,-0.015 -1.585,-5.622 -1.06,-7.966 0.245,-1.089 1.032,0.179 1.034,0.183 0.17,0.274 0.53,0.358 0.804,0.188 0.191,-0.119 0.289,-0.329 0.276,-0.538 -0.101,-1.386 0.244,-2.82 0.915,-4.198 0.734,-1.506 1.851,-2.94 3.2,-4.172 0.816,-0.744 1.712,-1.413 2.656,-1.978 0.709,-0.425 1.445,-0.792 2.195,-1.09 0.395,-0.325 0.79,-0.65 1.185,-0.976 6.258,0.414 8.164,0.435 8.214,0.308 0.004,-0.012 0.105,-0.18 0.245,-0.388 v -10e-4 c 0.358,0.226 0.717,0.451 1.075,0.676 1.54,0.074 3.635,0.337 5.989,1.137 2.028,0.689 3.644,1.571 4.829,2.336 -0.414,-1.726 -2.041,-2.609 -3.543,-3.147 0.276,-0.856 0.595,-1.675 0.991,-2.451 0.471,-0.926 1.051,-1.791 1.798,-2.587 0.505,-0.538 0.999,-0.902 1.466,-1.094 0.361,-0.148 0.706,-0.19 1.028,-0.128 0.321,0.06 0.634,0.23 0.93,0.508 0.408,0.383 0.778,0.961 1.094,1.733 1.287,3.142 1.779,8.378 2.011,10.868 0.042,0.445 0.076,0.811 0.097,0.991 0.036,0.321 0.325,0.553 0.645,0.517 0.035,-0.003 0.07,-0.011 0.104,-0.02 0.327,-0.097 0.575,-0.1 0.751,-0.025 0.204,0.087 0.345,0.31 0.428,0.63 C 0.093,-1.193 0.096,-0.639 0,0"
             style="fill:#f4f4f4;fill-opacity:1;fill-rule:nonzero;stroke:none"
             id="path22" /></g><g
           id="g24"
           transform="translate(58.79,47.8232)"><path
             d="m 0,0 c 0.712,-3.331 2.185,-7.979 4.988,-9.166 0.686,-0.291 1.253,-0.147 1.725,0.291 0.569,0.528 1.041,1.449 1.438,2.576 L 8.186,-6.312 C 8.167,-6.233 8.15,-6.154 8.133,-6.075 7.099,-5.72 6.085,-5.241 5.121,-4.663 4.105,-4.055 3.146,-3.34 2.278,-2.548 1.422,-1.767 0.652,-0.907 0,0"
             style="fill:#ffffff;fill-opacity:1;fill-rule:nonzero;stroke:none"
             id="path26" /></g><g
           id="g28"
           transform="translate(51.0439,99.9971)"><path
             d="m 0,0 c 0.114,0.072 0.242,0.131 0.386,0.174 0.781,0.236 1.18,-0.358 1.713,-1.152 0.485,-0.723 1.139,-1.696 2.304,-1.963 0.103,0.43 0.292,0.855 0.585,1.27 -0.277,0.079 -0.537,0.188 -0.78,0.322 C 3.579,-1.002 3.07,-0.493 2.701,0.062 2.177,0.853 1.701,1.243 1.3,1.345 1.107,1.393 0.932,1.367 0.781,1.283 0.596,1.18 0.429,0.996 0.291,0.756 0.166,0.538 0.067,0.281 0,0"
             style="fill:#ffffff;fill-opacity:1;fill-rule:nonzero;stroke:none"
             id="path30" /></g><g
           id="g32"
           transform="translate(76.6387,97.0557)"><path
             d="M 0,0 C 1.165,0.267 1.818,1.241 2.304,1.964 2.837,2.757 3.235,3.352 4.017,3.116 4.16,3.072 4.289,3.013 4.402,2.941 4.336,3.223 4.236,3.479 4.111,3.697 3.974,3.938 3.807,4.122 3.622,4.224 3.471,4.308 3.296,4.335 3.103,4.286 2.701,4.185 2.226,3.794 1.701,3.004 1.327,2.441 0.811,1.926 0.171,1.579 -0.065,1.452 -0.317,1.347 -0.585,1.271 -0.292,0.855 -0.104,0.431 0,0"
             style="fill:#ffffff;fill-opacity:1;fill-rule:nonzero;stroke:none"
             id="path34" /></g><g
           id="g36"
           transform="translate(93.0459,60.499)"><path
             d="M 0,0 C 0.07,0.064 0.151,0.108 0.236,0.132 0.6,0.236 0.828,0.387 0.925,0.563 0.995,0.69 0.999,0.851 0.938,1.032 0.855,1.28 0.662,1.558 0.359,1.845 -0.584,2.738 -2.453,3.587 -5.228,3.88 c -0.779,0.082 -1.567,0.129 -2.338,0.176 -3.663,0.22 -6.973,0.419 -9.126,4.147 -2.252,3.902 -1.949,8.784 -1.633,13.872 0.111,1.789 0.223,3.604 0.223,5.428 0,0.316 0.25,0.573 0.564,0.585 0.083,0.009 0.16,0.031 0.228,0.067 0.17,0.087 0.311,0.261 0.409,0.516 0.122,0.316 0.173,0.742 0.132,1.276 -0.069,0.924 -0.419,2.118 -1.159,3.55 -0.087,0.168 -0.083,0.36 -0.009,0.519 v 0 c 0.321,0.674 0.511,1.34 0.443,1.973 -1.751,-0.003 -7.345,-5.092 -7.564,-6.41 -0.219,-1.318 0.409,-6.836 0.409,-6.836 0,0 4.28,3.253 4.514,-3.835 0.235,-7.088 1.42,-9.843 2.578,-12.244 1.158,-2.401 -0.322,-5.008 -0.147,-6.883 0.176,-1.874 1.699,-4.802 5.888,-5.184 4.188,-0.381 7.234,1.201 8.347,2.636 1.114,1.435 1.084,3.486 1.524,3.749 C -1.506,1.246 -0.385,1.308 0,0"
             style="fill:#aaaaaa;fill-opacity:1;fill-rule:nonzero;stroke:none"
             id="path38" /></g><g
           id="g40"
           transform="translate(75.2305,94.7852)"><path
             d="M 0,0 C 0.246,0.582 0.38,1.155 0.322,1.703 0.256,2.32 -0.062,2.938 -0.754,3.55 c -0.197,0.175 -0.248,0.454 -0.143,0.682 0.326,0.709 0.43,1.649 0.087,2.517 -0.252,0.641 -0.757,1.249 -1.608,1.704 1.473,-1.706 0.663,-3.742 -0.685,-4.415 -1.346,-0.674 -3.133,0.703 -3.133,0.703 0,0 -0.645,-1.025 -1.904,-1.494 -1.26,-0.469 -2.753,0.937 -2.753,0.937 0,0 -1.524,-1.171 -3.75,-0.644 -2.226,0.527 -2.709,3.381 -1.855,4.571 -0.532,-0.399 -0.874,-0.87 -1.068,-1.362 -0.342,-0.868 -0.238,-1.808 0.089,-2.517 0.115,-0.251 0.038,-0.541 -0.17,-0.705 -0.674,-0.605 -0.985,-1.215 -1.05,-1.824 -0.03,-0.282 -0.009,-0.57 0.052,-0.863 1.578,0.831 2.274,-0.932 2.274,-0.932 0,0 1.67,-2.519 2.402,-2.344 0.732,0.176 10.611,1.066 11.978,2.08 C -1.116,0.291 -0.402,0.171 0,0"
             style="fill:#aaaaaa;fill-opacity:1;fill-rule:nonzero;stroke:none"
             id="path42" /></g><g
           id="g44"
           transform="translate(96.0586,53.5713)"><path
             d="m 0,0 c -0.239,1.614 -1.093,3.66 -2.44,5.386 0,0 1.658,-2.783 1.666,-4.613 0.007,-1.829 -1.289,-1.054 -1.962,-1.699 -0.674,-0.644 -1.847,-13.386 -3.722,-12.477 -1.874,0.908 -1.404,5.825 -1.404,5.825 -0.479,-1.613 -2.045,-2.455 -3.497,-2.977 0.276,-0.855 0.595,-1.674 0.991,-2.449 0.471,-0.927 1.051,-1.791 1.798,-2.588 0.505,-0.539 0.999,-0.902 1.466,-1.095 0.361,-0.146 0.706,-0.189 1.028,-0.127 0.321,0.061 0.634,0.231 0.93,0.507 0.408,0.383 0.779,0.962 1.094,1.735 1.287,3.141 1.779,8.377 2.011,10.868 0.042,0.443 0.076,0.81 0.097,0.99 0.036,0.321 0.325,0.553 0.645,0.518 0.035,-0.004 0.07,-0.011 0.104,-0.022 0.327,-0.097 0.576,-0.099 0.751,-0.024 0.204,0.088 0.345,0.31 0.428,0.63 C 0.093,-1.194 0.096,-0.64 0,0"
             style="fill:#aaaaaa;fill-opacity:1;fill-rule:nonzero;stroke:none"
             id="path46" /></g><g
           id="g48"
           transform="translate(56.6855,62.6436)"><path
             d="m 0,0 c -0.002,0.001 -0.006,-0.021 -0.006,-0.021 -0.07,-0.433 -1.491,-5.996 -1.054,-7.946 0.244,-1.089 1.031,0.18 1.033,0.183 0.171,0.274 0.531,0.358 0.806,0.188 0.19,-0.118 0.288,-0.329 0.274,-0.538 -0.1,-1.385 0.246,-2.82 0.917,-4.198 0.733,-1.505 1.851,-2.939 3.2,-4.171 0.784,-0.716 1.44,-1.157 2.654,-1.978 1.36,-0.921 2.54,-1.605 3.381,-2.066 2.442,0.075 4.885,0.151 7.327,0.226 -6.462,1.65 -11.003,3.859 -12.436,5.127 -1.178,1.042 -2,2.181 -2,2.182 -0.447,0.619 -0.819,1.135 -1.127,1.891 C 2.405,-9.74 2.121,-7.727 1.783,-5.62 1.773,-5.558 1.757,-5.466 1.689,-5.378 1.338,-4.931 0.373,-5.584 -0.15,-5.298 -1.266,-4.687 0.017,-0.003 0,0"
             style="fill:#aaaaaa;fill-opacity:1;fill-rule:nonzero;stroke:none"
             id="path50" /></g><g
           id="g52"
           transform="translate(96.9902,51.1602)"><path
             d="m 0,0 c -0.202,-0.418 -0.504,-0.73 -0.914,-0.906 -0.17,-0.073 -0.355,-0.12 -0.553,-0.139 0.299,-0.331 0.562,-0.451 0.779,-0.436 0.103,0.005 0.203,0.046 0.292,0.108 0.111,0.075 0.209,0.18 0.291,0.302 0.202,0.3 0.299,0.647 0.197,0.802 H 0.093 C 0.041,-0.188 0.009,-0.096 0,0"
             style="fill:#aaaaaa;fill-opacity:1;fill-rule:nonzero;stroke:none"
             id="path54" /></g><g
           id="g56"
           transform="translate(95.6582,58.002)"><path
             d="M 0,0 C 0.832,-1.457 1.368,-2.979 1.56,-4.262 1.675,-5.048 1.664,-5.761 1.515,-6.336 l -0.01,-0.037 c 0.166,0.163 0.421,0.217 0.646,0.116 0.037,-0.016 0.107,-0.039 0.203,-0.064 0.277,-0.071 0.7,-0.137 1.09,-0.086 0.285,0.037 0.545,0.141 0.664,0.371 l 0.013,0.031 c 0.019,0.045 0.035,0.086 0.044,0.124 0.258,1.003 -1.357,2.575 -1.586,2.792 -0.131,0.108 -0.215,0.271 -0.215,0.454 0,0.323 0.262,0.586 0.586,0.586 0.003,0 1.145,0 0.915,1.058 C 3.859,-0.96 3.853,-0.933 3.844,-0.909 3.688,-0.411 3.092,-0.123 2.364,0.014 1.609,0.156 0.736,0.128 0,0"
             style="fill:#aaaaaa;fill-opacity:1;fill-rule:nonzero;stroke:none"
             id="path58" /></g><g
           id="g60"
           transform="translate(58.79,47.8232)"><path
             d="M 0,0 C 0.14,-0.654 0.309,-1.358 0.512,-2.078 2.021,-3.463 3.957,-5.289 4.028,-6.412 4.071,-7.096 3.647,-7.475 3.133,-7.709 3.674,-8.36 4.29,-8.87 4.988,-9.166 c 0.686,-0.291 1.253,-0.147 1.725,0.291 0.569,0.528 1.041,1.449 1.438,2.576 L 8.186,-6.312 C 8.167,-6.233 8.15,-6.154 8.133,-6.075 7.099,-5.72 6.085,-5.241 5.121,-4.663 4.105,-4.055 3.146,-3.34 2.278,-2.548 1.422,-1.767 0.652,-0.907 0,0"
             style="fill:#aaaaaa;fill-opacity:1;fill-rule:nonzero;stroke:none"
             id="path62" /></g><g
           id="g64"
           transform="translate(78.2783,41.7256)"><path
             d="m 0,0 c 0.238,-0.312 0.5,-0.599 0.778,-0.853 0.464,-0.422 0.98,-0.753 1.535,-0.963 0.706,-0.267 1.292,-0.114 1.781,0.31 0.521,0.452 0.96,1.2 1.327,2.099 C 5.382,0.706 5.344,0.82 5.307,0.936 3.48,0.407 1.636,0.134 0,0"
             style="fill:#aaaaaa;fill-opacity:1;fill-rule:nonzero;stroke:none"
             id="path66" /></g><g
           id="g68"
           transform="translate(55.3662,95.8774)"><path
             d="M 0,0 C -1.715,0.291 -2.567,1.559 -3.193,2.492 -3.45,2.874 -3.562,3.185 -3.602,3.173 -4.17,3.002 -4.097,1.861 -4.066,1.547 -3.784,0.935 -3.332,0.375 -2.733,-0.025 -2.005,-0.513 -1.05,-0.763 0.093,-0.583 0.049,-0.389 0.018,-0.195 0,0"
             style="fill:#aaaaaa;fill-opacity:1;fill-rule:nonzero;stroke:none"
             id="path70" /></g><g
           id="g72"
           transform="translate(80.7852,97.4243)"><path
             d="M 0,0 C 0.031,0.314 0.104,1.455 -0.464,1.626 -0.504,1.638 -0.616,1.327 -0.873,0.945 -1.499,0.012 -2.351,-1.256 -4.066,-1.547 -4.083,-1.742 -4.115,-1.936 -4.159,-2.13 c 1.141,-0.18 2.094,0.069 2.822,0.555 C -0.736,-1.174 -0.283,-0.613 0,0"
             style="fill:#aaaaaa;fill-opacity:1;fill-rule:nonzero;stroke:none"
             id="path74" /></g><g
           id="g76"
           transform="translate(66.3667,38.1563)"><path
             d="m 0,0 c -0.022,-0.021 -0.044,-0.043 -0.067,-0.064 -0.818,-0.759 -1.795,-1.011 -2.975,-0.511 -0.17,0.073 -0.336,0.156 -0.497,0.248 0.212,-0.972 0.36,-2.14 0.12,-2.969 -0.211,-0.731 -0.59,-1.181 -0.912,-1.565 -0.261,-0.31 -0.457,-0.543 -0.256,-0.899 0.024,-0.042 0.055,-0.078 0.092,-0.109 l 0.001,0.002 c 0.235,-0.195 0.686,-0.245 1.204,-0.187 0.592,0.066 1.238,0.276 1.775,0.581 0.326,0.184 0.606,0.401 0.801,0.635 0.058,0.07 0.125,0.264 0.189,0.5 0.092,0.347 0.157,0.743 0.177,1.027 C -0.271,-2.235 -0.132,-1.057 0,0"
             style="fill:#000000;fill-opacity:1;fill-rule:nonzero;stroke:none"
             id="path78" /></g><g
           id="g80"
           transform="translate(88.1719,35.9639)"><path
             d="M 0,0 C 0.195,-0.848 0.314,-1.819 0.093,-2.526 -0.12,-3.205 -0.5,-3.617 -0.824,-3.968 L -0.856,-4 c -0.217,-0.234 -0.369,-0.418 -0.209,-0.667 0.013,-0.023 0.03,-0.043 0.05,-0.062 0.244,-0.22 0.779,-0.265 1.387,-0.187 0.685,0.088 1.422,0.341 1.977,0.691 0.193,0.124 0.359,0.256 0.484,0.394 0.05,0.055 0.111,0.218 0.169,0.419 0.088,0.302 0.147,0.65 0.165,0.904 0.068,0.947 0.193,1.975 0.314,2.904 C 3.036,-0.006 2.547,-0.257 2.025,-0.356 1.481,-0.459 0.914,-0.395 0.339,-0.158 0.227,-0.112 0.113,-0.06 0,0"
             style="fill:#000000;fill-opacity:1;fill-rule:nonzero;stroke:none"
             id="path82" /></g><g
           id="g84"
           transform="translate(79.6826,39.0322)"><path
             d="m 0,0 c 0.21,-0.872 0.35,-1.899 0.119,-2.638 -0.214,-0.678 -0.594,-1.091 -0.917,-1.44 l -0.033,-0.033 c -0.216,-0.235 -0.368,-0.417 -0.209,-0.667 0.014,-0.023 0.03,-0.043 0.051,-0.062 0.242,-0.221 0.777,-0.265 1.386,-0.187 0.685,0.088 1.423,0.34 1.977,0.693 0.193,0.122 0.359,0.255 0.483,0.392 0.051,0.055 0.113,0.218 0.17,0.419 0.088,0.301 0.148,0.651 0.165,0.905 0.071,0.972 0.201,2.029 0.325,2.978 L 3.454,0.305 C 2.641,-0.402 1.666,-0.657 0.498,-0.218 0.328,-0.153 0.162,-0.08 0,0"
             style="fill:#000000;fill-opacity:1;fill-rule:nonzero;stroke:none"
             id="path86" /></g><g
           id="g88"
           transform="translate(99.8232,52.1211)"><path
             d="m 0,0 c -0.009,-0.038 -0.024,-0.08 -0.045,-0.125 l -0.012,-0.03 c -0.119,-0.23 -0.38,-0.334 -0.664,-0.371 -0.389,-0.051 -0.813,0.015 -1.09,0.086 -0.095,0.025 -0.166,0.048 -0.203,0.064 -0.224,0.101 -0.48,0.047 -0.646,-0.116 l 0.01,0.037 c 0.149,0.575 0.161,1.288 0.044,2.074 -0.191,1.282 -0.727,2.805 -1.559,4.262 0.736,0.128 1.609,0.156 2.364,0.013 C -1.073,5.757 -0.477,5.47 -0.32,4.972 -0.313,4.948 -0.306,4.921 -0.3,4.89 -0.07,3.832 -1.212,3.831 -1.215,3.831 -1.539,3.831 -1.801,3.569 -1.801,3.246 -1.801,3.063 -1.717,2.9 -1.586,2.792 -1.356,2.575 0.258,1.003 0,0 m -2.938,-2.033 c -0.082,-0.121 -0.181,-0.227 -0.29,-0.301 -0.09,-0.062 -0.19,-0.102 -0.293,-0.109 -0.216,-0.014 -0.48,0.106 -0.78,0.437 0.199,0.019 0.384,0.065 0.554,0.139 0.409,0.176 0.712,0.488 0.914,0.906 0.008,-0.096 0.04,-0.188 0.094,-0.268 H -2.74 c 0.101,-0.156 0.005,-0.503 -0.198,-0.804 m -5.545,-16.632 c -0.019,-0.253 -0.079,-0.603 -0.165,-0.905 -0.059,-0.2 -0.12,-0.363 -0.17,-0.419 -0.124,-0.137 -0.29,-0.269 -0.485,-0.392 -0.553,-0.352 -1.292,-0.605 -1.975,-0.693 -0.611,-0.078 -1.146,-0.032 -1.389,0.189 -0.019,0.017 -0.036,0.038 -0.051,0.06 -0.158,0.25 -0.006,0.433 0.21,0.668 l 0.032,0.032 c 0.325,0.351 0.705,0.762 0.917,1.442 0.222,0.706 0.102,1.678 -0.091,2.525 0.112,-0.059 0.225,-0.112 0.337,-0.158 0.577,-0.236 1.142,-0.301 1.687,-0.197 0.522,0.099 1.012,0.35 1.456,0.751 -0.121,-0.929 -0.246,-1.956 -0.313,-2.903 m -8.968,6.763 c -0.487,-0.423 -1.074,-0.576 -1.78,-0.31 -0.557,0.209 -1.072,0.541 -1.536,0.964 -0.279,0.254 -0.539,0.541 -0.779,0.853 1.637,0.133 3.483,0.407 5.308,0.935 0.037,-0.115 0.075,-0.229 0.113,-0.343 -0.367,-0.898 -0.805,-1.646 -1.326,-2.099 m 0.504,-3.805 c -0.019,-0.254 -0.078,-0.603 -0.165,-0.905 -0.059,-0.201 -0.119,-0.364 -0.171,-0.42 -0.123,-0.136 -0.289,-0.268 -0.484,-0.392 -0.553,-0.351 -1.292,-0.604 -1.976,-0.692 -0.61,-0.078 -1.145,-0.033 -1.388,0.188 -0.018,0.018 -0.036,0.038 -0.051,0.061 -0.158,0.249 -0.005,0.433 0.21,0.667 l 0.033,0.033 c 0.324,0.35 0.705,0.762 0.917,1.441 0.231,0.738 0.091,1.765 -0.119,2.637 0.162,-0.081 0.329,-0.153 0.497,-0.217 1.169,-0.44 2.144,-0.185 2.957,0.521 l 0.063,0.056 c -0.124,-0.949 -0.254,-2.006 -0.323,-2.978 m -6.823,61.912 c 0.267,0.076 0.52,0.181 0.756,0.309 0.64,0.347 1.158,0.862 1.531,1.424 0.524,0.79 1,1.181 1.401,1.283 0.192,0.048 0.367,0.022 0.519,-0.062 0.185,-0.103 0.352,-0.287 0.491,-0.527 0.125,-0.218 0.223,-0.475 0.291,-0.756 -0.115,0.072 -0.242,0.131 -0.387,0.174 -0.78,0.236 -1.181,-0.358 -1.713,-1.152 -0.484,-0.723 -1.14,-1.696 -2.304,-1.963 -0.103,0.43 -0.292,0.855 -0.585,1.27 m 4.732,-0.902 c -0.282,-0.613 -0.736,-1.174 -1.337,-1.575 -0.728,-0.486 -1.681,-0.735 -2.821,-0.555 0.044,0.194 0.074,0.388 0.092,0.583 1.715,0.291 2.566,1.559 3.193,2.493 0.257,0.382 0.369,0.692 0.409,0.68 0.568,-0.171 0.495,-1.312 0.464,-1.626 m -25.337,-0.368 c -1.166,0.267 -1.82,1.24 -2.305,1.963 -0.533,0.794 -0.932,1.388 -1.714,1.152 -0.143,-0.043 -0.271,-0.102 -0.385,-0.174 0.067,0.281 0.165,0.538 0.291,0.756 0.138,0.24 0.305,0.424 0.49,0.527 0.151,0.084 0.326,0.11 0.519,0.062 0.401,-0.102 0.876,-0.493 1.401,-1.283 0.37,-0.555 0.877,-1.065 1.507,-1.411 0.242,-0.134 0.503,-0.243 0.78,-0.322 -0.294,-0.415 -0.482,-0.84 -0.584,-1.27 m -2.816,-1.204 c -0.598,0.4 -1.05,0.96 -1.332,1.572 -0.031,0.314 -0.105,1.455 0.464,1.626 0.04,0.012 0.152,-0.298 0.408,-0.68 0.627,-0.934 1.479,-2.202 3.194,-2.493 0.017,-0.195 0.049,-0.389 0.093,-0.583 -1.143,-0.18 -2.098,0.071 -2.827,0.558 m 8.436,-50.577 c 0.867,-0.792 1.827,-1.507 2.842,-2.115 0.964,-0.578 1.978,-1.057 3.012,-1.412 0.017,-0.079 0.035,-0.158 0.053,-0.236 l -0.034,0.012 c -0.398,-1.127 -0.868,-2.048 -1.438,-2.576 -0.472,-0.438 -1.039,-0.582 -1.726,-0.291 -2.802,1.188 -4.275,5.835 -4.988,9.166 0.652,-0.907 1.423,-1.766 2.279,-2.548 m 4.95,-10.429 c -0.02,-0.285 -0.085,-0.681 -0.177,-1.028 -0.064,-0.236 -0.131,-0.43 -0.189,-0.499 -0.195,-0.235 -0.475,-0.452 -0.801,-0.636 -0.537,-0.305 -1.183,-0.515 -1.775,-0.581 -0.518,-0.058 -0.969,-0.008 -1.204,0.187 l -10e-4,-0.002 c -0.037,0.031 -0.068,0.068 -0.092,0.109 -0.201,0.356 -0.005,0.589 0.256,0.899 0.322,0.384 0.701,0.834 0.913,1.565 0.239,0.829 0.091,1.998 -0.121,2.969 0.161,-0.092 0.327,-0.175 0.497,-0.247 1.18,-0.5 2.157,-0.249 2.975,0.51 0.024,0.021 0.045,0.043 0.067,0.064 -0.132,-1.057 -0.271,-2.234 -0.348,-3.31 M -0.103,2.91 C 0.525,3.197 1.131,3.813 0.845,5.137 0.832,5.197 0.815,5.257 0.796,5.319 0.487,6.306 -0.461,6.831 -1.586,7.043 -2.592,7.233 -3.758,7.172 -4.671,6.975 -4.725,6.963 -4.777,6.951 -4.831,6.938 c -0.189,0.273 -0.389,0.54 -0.599,0.8 0.266,0.178 0.467,0.394 0.602,0.64 0.232,0.419 0.264,0.899 0.097,1.398 -0.144,0.431 -0.439,0.874 -0.881,1.294 -1.103,1.043 -3.215,2.027 -6.274,2.35 -0.816,0.086 -1.611,0.134 -2.389,0.181 -3.332,0.2 -6.347,0.381 -8.183,3.561 -2.076,3.596 -1.782,8.309 -1.477,13.223 0.103,1.672 0.209,3.367 0.226,5.037 0.054,0.021 0.106,0.045 0.157,0.072 0.422,0.218 0.757,0.602 0.963,1.138 0.184,0.476 0.264,1.074 0.21,1.78 -0.074,0.98 -0.409,2.2 -1.099,3.621 1.5,-0.262 2.772,0.07 3.753,0.725 1.038,0.693 1.74,1.748 2.036,2.842 0.02,0.078 0.04,0.154 0.055,0.229 0.271,1.24 0.072,2.516 -0.428,3.384 -0.242,0.422 -0.559,0.759 -0.934,0.966 -0.408,0.227 -0.872,0.302 -1.369,0.177 -0.67,-0.169 -1.391,-0.714 -2.093,-1.773 -0.275,-0.414 -0.65,-0.791 -1.109,-1.039 -0.175,-0.094 -0.361,-0.17 -0.559,-0.224 0.171,0.789 0.145,1.677 -0.186,2.518 -0.331,0.838 -0.956,1.625 -1.979,2.216 0.072,0.625 -0.157,1.281 -0.579,1.826 -0.264,0.341 -0.603,0.641 -0.986,0.862 -0.393,0.224 -0.836,0.37 -1.303,0.395 -0.641,0.036 -1.306,-0.151 -1.911,-0.661 -0.196,0.313 -0.441,0.576 -0.72,0.79 -0.567,0.434 -1.273,0.656 -1.984,0.666 h -0.016 c -0.71,-0.01 -1.415,-0.233 -1.981,-0.666 -0.28,-0.214 -0.525,-0.477 -0.72,-0.79 -0.606,0.51 -1.271,0.697 -1.912,0.661 -0.465,-0.025 -0.91,-0.171 -1.302,-0.395 -0.384,-0.221 -0.723,-0.521 -0.987,-0.862 -0.421,-0.545 -0.65,-1.201 -0.578,-1.826 -1.022,-0.591 -1.647,-1.378 -1.978,-2.216 -0.332,-0.841 -0.358,-1.729 -0.188,-2.518 -0.203,0.055 -0.395,0.134 -0.573,0.232 -0.452,0.249 -0.822,0.622 -1.094,1.031 -0.703,1.059 -1.424,1.604 -2.093,1.773 -0.497,0.125 -0.96,0.05 -1.369,-0.177 -0.375,-0.207 -0.692,-0.544 -0.935,-0.966 -0.499,-0.868 -0.698,-2.144 -0.427,-3.384 0.015,-0.071 0.033,-0.144 0.053,-0.22 0.294,-1.096 0.995,-2.154 2.034,-2.848 0.981,-0.657 2.254,-0.99 3.757,-0.728 -0.69,-1.421 -1.025,-2.641 -1.1,-3.621 -0.054,-0.706 0.028,-1.304 0.211,-1.78 0.206,-0.536 0.54,-0.92 0.962,-1.138 0.052,-0.026 0.103,-0.05 0.156,-0.071 0,-1.676 10e-4,0.203 0.003,-1.491 0.008,-8.522 0.012,-13.095 -1.617,-19.177 l -0.146,-0.537 c -0.377,-1.383 -0.669,-2.458 -0.423,-3.11 0.37,-0.979 0.98,-1.239 1.52,-1.241 -0.441,-1.786 -1.263,-5.587 -0.82,-7.563 0.483,-2.158 1.403,-1.981 2.127,-1.393 0.078,-0.643 0.231,-1.286 0.447,-1.921 0.124,-1.091 1.061,-8.415 4.189,-11.963 0.157,-0.457 0.918,-2.784 0.577,-3.963 -0.144,-0.497 -0.435,-0.844 -0.684,-1.139 -0.559,-0.665 -0.979,-1.165 -0.379,-2.226 0.094,-0.166 0.217,-0.309 0.363,-0.43 v -0.003 c 0.499,-0.413 1.264,-0.538 2.079,-0.447 0.743,0.083 1.55,0.346 2.223,0.727 0.446,0.252 0.839,0.56 1.126,0.906 0.174,0.21 0.315,0.561 0.417,0.943 0.167,0.624 0.208,1.117 0.214,1.247 0.092,1.967 0.834,3.532 0.755,6.711 -0.008,0.323 -0.028,0.787 -0.081,1.349 -0.384,0.083 -0.768,0.166 -1.153,0.25 -0.75,0.297 -1.487,0.664 -2.196,1.089 -0.944,0.565 -1.84,1.234 -2.655,1.979 -1.349,1.231 -2.467,2.665 -3.199,4.171 -0.672,1.378 -1.018,2.812 -0.918,4.198 0.015,0.209 -0.084,0.419 -0.274,0.538 -0.274,0.17 -0.635,0.086 -0.806,-0.188 -0.002,-0.003 -0.789,-1.272 -1.033,-0.183 -0.525,2.344 1.056,7.951 1.06,7.967 h -0.001 c 0.04,0.146 0.025,0.307 -0.056,0.448 -0.161,0.279 -0.517,0.376 -0.796,0.215 -0.002,-10e-4 -0.672,-0.408 -0.952,0.334 -0.112,0.294 0.138,1.211 0.459,2.392 l 0.146,0.541 c 1.653,6.167 1.662,10.776 1.654,19.262 0,-0.114 10e-4,0.143 0,2.166 10e-4,0.304 -0.233,0.561 -0.541,0.584 -0.092,0.006 -0.175,0.029 -0.25,0.068 -0.168,0.087 -0.31,0.261 -0.408,0.516 -0.122,0.316 -0.173,0.742 -0.133,1.276 0.07,0.917 0.415,2.1 1.143,3.517 0.097,0.163 0.113,0.369 0.026,0.552 -0.32,0.674 -0.511,1.34 -0.443,1.973 0.065,0.609 0.376,1.22 1.05,1.824 0.208,0.164 0.285,0.454 0.17,0.705 -0.326,0.709 -0.43,1.649 -0.089,2.517 0.272,0.692 0.838,1.345 1.817,1.809 l -0.001,10e-4 c 0.283,0.133 0.412,0.469 0.287,0.758 -0.15,0.347 -0.01,0.798 0.289,1.185 0.17,0.22 0.392,0.415 0.643,0.559 0.244,0.14 0.513,0.23 0.785,0.245 0.511,0.028 1.068,-0.214 1.554,-0.895 0.078,-0.111 0.196,-0.195 0.338,-0.229 0.313,-0.076 0.629,0.117 0.705,0.43 0.113,0.462 0.361,0.816 0.68,1.061 0.363,0.277 0.819,0.42 1.281,0.428 0.463,-0.008 0.919,-0.151 1.281,-0.428 0.321,-0.246 0.598,-0.653 0.678,-1.052 0.031,-0.136 0.109,-0.261 0.231,-0.348 0.263,-0.187 0.628,-0.125 0.815,0.138 0.485,0.681 1.043,0.923 1.553,0.895 0.273,-0.015 0.541,-0.105 0.786,-0.245 0.252,-0.144 0.473,-0.34 0.643,-0.559 0.291,-0.378 0.433,-0.816 0.299,-1.159 L -27.498,52 c -0.138,-0.292 -0.013,-0.641 0.279,-0.778 0.979,-0.464 1.544,-1.117 1.818,-1.809 0.341,-0.868 0.237,-1.808 -0.088,-2.517 -0.106,-0.228 -0.056,-0.507 0.142,-0.682 0.693,-0.612 1.01,-1.23 1.076,-1.847 0.067,-0.633 -0.123,-1.299 -0.444,-1.973 h 0.001 c -0.075,-0.159 -0.078,-0.351 0.009,-0.519 0.739,-1.432 1.09,-2.626 1.159,-3.55 0.041,-0.534 -0.011,-0.96 -0.132,-1.276 -0.097,-0.255 -0.24,-0.429 -0.409,-0.516 -0.067,-0.036 -0.144,-0.058 -0.228,-0.067 -0.314,-0.012 -0.564,-0.269 -0.564,-0.585 0,-1.824 -0.113,-3.639 -0.224,-5.428 -0.316,-5.088 -0.619,-9.97 1.634,-13.872 2.153,-3.728 5.463,-3.927 9.125,-4.147 0.772,-0.047 1.559,-0.094 2.339,-0.176 2.775,-0.293 4.645,-1.142 5.587,-2.035 C -6.114,9.936 -5.922,9.658 -5.839,9.41 -5.778,9.229 -5.783,9.068 -5.853,8.941 -5.95,8.765 -6.178,8.614 -6.542,8.51 -6.627,8.486 -6.708,8.442 -6.777,8.378 -7.015,8.16 -7.03,7.79 -6.812,7.552 -5.113,5.703 -4.038,3.295 -3.764,1.45 -3.67,0.811 -3.672,0.256 -3.78,-0.162 c -0.083,-0.32 -0.226,-0.542 -0.43,-0.63 -0.175,-0.075 -0.423,-0.073 -0.751,0.025 -0.033,0.01 -0.066,0.017 -0.102,0.021 -0.322,0.035 -0.611,-0.196 -0.646,-0.517 -0.02,-0.18 -0.055,-0.547 -0.096,-0.992 -0.234,-2.491 -0.723,-7.725 -2.011,-10.868 -0.317,-0.772 -0.688,-1.35 -1.096,-1.733 -0.295,-0.277 -0.608,-0.447 -0.929,-0.508 -0.323,-0.062 -0.668,-0.019 -1.028,0.128 -0.468,0.192 -0.961,0.556 -1.466,1.094 -0.748,0.796 -1.327,1.662 -1.799,2.588 -0.393,0.776 -0.713,1.594 -0.99,2.45 1.502,0.538 3.128,1.422 3.543,3.148 -1.898,-1.241 -3.608,-1.936 -4.829,-2.337 -2.246,-0.739 -4.251,-0.953 -5.687,-1.105 -0.719,-0.078 -1.32,-0.119 -1.737,-0.142 0.135,-0.318 0.375,-0.786 0.8,-1.239 0.363,-0.389 0.603,-0.493 0.872,-0.708 1.016,-0.815 1.544,-2.558 1.023,-3.891 -0.095,-0.245 -0.28,-0.615 -0.661,-0.998 l -0.028,-0.033 c -0.566,-0.612 -0.977,-1.087 -0.342,-2.085 0.07,-0.11 0.155,-0.21 0.252,-0.299 0.518,-0.471 1.397,-0.599 2.321,-0.481 0.85,0.109 1.768,0.424 2.457,0.862 0.278,0.176 0.525,0.375 0.722,0.593 0.181,0.197 0.323,0.525 0.426,0.882 0.113,0.388 0.188,0.83 0.212,1.147 0.085,1.184 0.253,2.451 0.392,3.505 l 0.067,0.493 c 0.047,-0.098 0.094,-0.196 0.144,-0.293 0.501,-0.984 1.118,-1.912 1.914,-2.775 0.177,-0.459 0.907,-2.46 0.588,-3.475 -0.134,-0.428 -0.419,-0.736 -0.661,-0.998 l -0.027,-0.033 c -0.567,-0.612 -0.978,-1.087 -0.343,-2.086 0.07,-0.11 0.155,-0.209 0.252,-0.298 0.517,-0.471 1.396,-0.6 2.321,-0.481 0.85,0.109 1.768,0.423 2.457,0.861 0.278,0.176 0.524,0.376 0.722,0.594 0.181,0.197 0.323,0.525 0.427,0.881 0.111,0.388 0.187,0.831 0.211,1.148 0.085,1.184 0.253,2.451 0.392,3.505 0.094,0.705 0.176,1.319 0.213,1.739 1.201,2.979 1.725,7.576 1.989,10.31 0.438,-0.327 0.874,-0.444 1.28,-0.417 0.322,0.022 0.616,0.136 0.874,0.311 0.237,0.162 0.44,0.375 0.6,0.612 0.206,0.307 0.343,0.665 0.395,1.015 0.307,-0.041 0.66,-0.057 1.004,-0.012 0.638,0.084 1.247,0.366 1.567,1.032 0.01,0.018 0.021,0.037 0.028,0.056 0.039,0.088 0.075,0.19 0.104,0.307 0.287,1.113 -0.566,2.401 -1.233,3.199"
             style="fill:#000000;fill-opacity:1;fill-rule:nonzero;stroke:none"
             id="path90" /></g><g
           id="g92"
           transform="translate(59.7314,95.5562)"><path
             d="m 0,0 c 0.138,-0.091 0.288,-0.172 0.446,-0.24 0.423,-0.182 0.874,-0.281 1.323,-0.294 0.451,-0.014 0.898,0.059 1.311,0.221 0.431,0.168 0.824,0.43 1.15,0.787 0.318,-0.395 0.725,-0.682 1.18,-0.869 0.409,-0.167 0.854,-0.251 1.307,-0.256 0.446,-0.005 0.898,0.065 1.326,0.204 0.712,0.233 1.37,0.66 1.842,1.259 1.094,-1.161 2.348,-1.216 3.253,-0.741 C 14.011,-2.427 16.405,-11.27 6.581,-11.27 -3.155,-11.27 -0.891,-2.587 0,0 m 6.581,-12.442 c 12.174,0 8.192,11.549 7.488,13.371 0.326,0.524 0.418,1.162 0.148,1.766 C 12.423,-0.331 10.313,2.142 10.309,2.15 10.246,2.249 10.153,2.33 10.036,2.379 9.738,2.501 9.397,2.359 9.274,2.06 8.993,1.373 8.377,0.893 7.681,0.665 7.369,0.564 7.045,0.512 6.731,0.516 6.423,0.52 6.124,0.575 5.854,0.685 5.396,0.873 5.019,1.23 4.835,1.775 4.788,1.937 4.672,2.079 4.504,2.151 4.207,2.278 3.863,2.141 3.735,1.844 3.505,1.309 3.112,0.955 2.655,0.776 2.387,0.671 2.096,0.624 1.801,0.633 1.505,0.642 1.201,0.71 0.908,0.835 0.298,1.098 -0.683,1.639 -0.981,2.401 -1.192,1.955 -1.139,1.438 -0.893,0.966 -1.551,-0.724 -5.682,-12.442 6.581,-12.442"
             style="fill:#000000;fill-opacity:1;fill-rule:nonzero;stroke:none"
             id="path94" /></g><g
           id="g96"
           transform="translate(59.731,95.5566)"><path
             d="m 0,0 c -0.89,-2.588 -3.154,-11.271 6.582,-11.271 9.824,0 7.429,8.843 6.557,11.341 C 12.234,-0.404 10.978,-0.349 9.885,0.812 9.413,0.213 8.756,-0.214 8.043,-0.447 7.616,-0.587 7.163,-0.657 6.717,-0.651 6.265,-0.646 5.819,-0.562 5.411,-0.395 4.955,-0.208 4.548,0.079 4.23,0.473 3.905,0.117 3.511,-0.145 3.081,-0.313 2.667,-0.475 2.22,-0.548 1.769,-0.535 1.32,-0.521 0.869,-0.422 0.446,-0.24 0.288,-0.172 0.139,-0.091 0,0"
             style="fill:#ffd7a6;fill-opacity:1;fill-rule:nonzero;stroke:none"
             id="path98" /></g><g
           id="g100"
           transform="translate(63.5117,87.458)"><path
             d="M 0,0 C -0.3,0.432 -0.254,0.921 0.198,1.212 0.335,0.726 0.606,0.389 0.918,0.196 1.073,0.099 1.238,0.038 1.401,0.013 1.558,-0.012 1.712,-0.005 1.853,0.035 2.042,0.089 2.206,0.203 2.314,0.376 2.357,0.446 2.38,0.538 2.391,0.627 2.407,0.758 2.405,0.845 2.398,0.86 2.377,0.905 2.161,0.927 1.907,1.037 1.697,1.128 1.49,1.218 1.344,1.303 1.216,1.376 1.112,1.466 1.034,1.563 0.936,1.684 0.876,1.82 0.856,1.959 0.834,2.113 0.861,2.267 0.943,2.408 0.988,2.487 1.049,2.559 1.126,2.621 1.237,2.71 2.055,2.757 2.827,2.757 3.326,2.757 3.835,2.738 4.156,2.698 4.261,2.719 4.373,2.697 4.464,2.629 L 4.477,2.621 C 4.555,2.557 4.616,2.485 4.66,2.409 V 2.408 C 4.741,2.267 4.768,2.113 4.746,1.959 4.726,1.82 4.666,1.684 4.568,1.563 4.491,1.466 4.386,1.376 4.258,1.303 4.112,1.218 3.905,1.128 3.695,1.037 3.442,0.927 3.225,0.905 3.204,0.86 3.197,0.844 3.195,0.758 3.211,0.627 3.222,0.537 3.245,0.446 3.288,0.376 3.396,0.203 3.56,0.089 3.749,0.035 3.89,-0.004 4.045,-0.012 4.201,0.013 4.364,0.038 4.529,0.099 4.684,0.196 4.996,0.389 5.267,0.726 5.405,1.212 5.887,0.822 5.916,0.366 5.594,-0.039 5.449,-0.664 5.111,-1.233 4.622,-1.644 4.142,-2.048 3.521,-2.298 2.801,-2.298 2.083,-2.298 1.464,-2.05 0.985,-1.65 0.485,-1.232 0.141,-0.645 0,0 m 1.64,-1.168 c 0.319,-0.218 0.713,-0.349 1.161,-0.349 0.449,0 0.842,0.13 1.162,0.348 -0.109,0.074 -0.225,0.137 -0.35,0.19 -0.242,0.101 -0.514,0.158 -0.812,0.158 -0.297,0 -0.568,-0.056 -0.808,-0.156 C 1.867,-1.029 1.749,-1.094 1.64,-1.168"
             style="fill:#000000;fill-opacity:1;fill-rule:nonzero;stroke:none"
             id="path102" /></g><g
           id="g104"
           transform="translate(60.9326,91.9609)"><path
             d="m 0,0 c -0.05,-0.21 -0.26,-0.34 -0.47,-0.29 -0.21,0.05 -0.34,0.26 -0.29,0.47 0.001,0.005 0.419,1.908 1.812,2.029 C 2.54,2.338 2.788,-0.051 2.789,-0.058 2.814,-0.272 2.66,-0.465 2.446,-0.49 2.232,-0.514 2.039,-0.36 2.014,-0.146 2.014,-0.142 1.838,1.493 1.119,1.431 0.303,1.36 0.001,0.004 0,0"
             style="fill:#000000;fill-opacity:1;fill-rule:nonzero;stroke:none"
             id="path106" /></g><g
           id="g108"
           transform="translate(71.6924,91.9609)"><path
             d="m 0,0 c 0.05,-0.21 0.26,-0.34 0.471,-0.29 0.21,0.05 0.34,0.26 0.289,0.47 -0.001,0.005 -0.419,1.908 -1.812,2.029 -1.488,0.129 -1.736,-2.26 -1.737,-2.267 -0.025,-0.214 0.129,-0.407 0.343,-0.432 0.214,-0.024 0.407,0.13 0.432,0.344 0,0.004 0.176,1.639 0.895,1.577 C -0.303,1.36 -0.001,0.004 0,0"
             style="fill:#000000;fill-opacity:1;fill-rule:nonzero;stroke:none"
             id="path110" /></g><g
           id="g112"
           transform="translate(65.1514,86.2896)"><path
             d="m 0,0 c 0.32,-0.218 0.713,-0.348 1.161,-0.348 0.449,0 0.842,0.13 1.162,0.347 C 2.214,0.073 2.098,0.137 1.973,0.189 1.731,0.291 1.459,0.348 1.161,0.348 0.864,0.348 0.593,0.292 0.353,0.191 0.228,0.139 0.109,0.075 0,0"
             style="fill:#b81f40;fill-opacity:1;fill-rule:nonzero;stroke:none"
             id="path114" /></g><g
           id="g116"
           transform="translate(76.7188,63.4111)"><path
             d="M 0,0 C 0.492,1.322 1.056,2.839 0.987,4.795 0.976,4.913 1.02,5.035 1.114,5.12 1.274,5.264 1.521,5.251 1.665,5.091 3.729,2.799 6.237,2.764 8.657,2.73 c 1.296,-0.019 2.568,-0.036 3.77,-0.376 0.072,-0.02 0.14,-0.061 0.192,-0.123 0.179,-0.21 0.337,-0.434 0.474,-0.665 0.735,-1.236 0.89,-2.732 0.588,-4.147 -0.3,-1.405 -1.054,-2.736 -2.137,-3.656 -0.235,-0.2 -0.486,-0.38 -0.751,-0.537 C 9.293,-7.667 7.38,-8.032 5.588,-7.939 3.724,-7.845 1.973,-7.252 0.925,-6.238 -1.462,-3.93 -0.824,-2.217 0,0 M 8.585,1.952 C 8.957,1.134 9.158,0.158 9.163,-0.73 9.17,-1.862 8.854,-2.876 8.166,-3.321 L 8.116,-3.353 C 7.551,-3.688 6.834,-3.827 6.165,-3.793 5.46,-3.756 4.791,-3.525 4.382,-3.131 3.548,-2.324 3.791,-1.325 4.072,-0.164 4.27,0.646 4.487,1.548 4.293,2.455 3.909,2.58 3.528,2.737 3.153,2.935 3.084,1.683 2.713,0.645 2.379,-0.294 1.831,-1.832 1.39,-3.069 2.85,-4.48 c 0.658,-0.636 1.795,-1.011 3.021,-1.073 1.205,-0.062 2.483,0.179 3.477,0.77 0.173,0.103 0.332,0.218 0.478,0.341 0.801,0.679 1.206,1.662 1.277,2.704 0.072,1.065 -0.202,2.187 -0.755,3.118 C 10.236,1.569 10.113,1.749 9.979,1.919 9.541,1.939 9.096,1.945 8.648,1.952 Z M 5.121,2.234 C 5.23,1.308 5.021,0.441 4.829,-0.347 4.604,-1.274 4.41,-2.074 4.922,-2.569 c 0.272,-0.263 0.755,-0.418 1.283,-0.446 0.527,-0.026 1.084,0.078 1.514,0.333 l 0.022,0.013 c 0.446,0.288 0.65,1.052 0.644,1.936 C 8.38,0.18 8.141,1.197 7.703,1.969 6.84,1.994 5.973,2.052 5.121,2.234 M 1.756,3.904 C 1.663,2.239 1.169,0.909 0.729,-0.271 0.005,-2.219 -0.555,-3.724 1.465,-5.677 c 0.911,-0.881 2.476,-1.399 4.162,-1.485 1.651,-0.085 3.404,0.247 4.769,1.059 0.227,0.135 0.443,0.29 0.644,0.461 0.951,0.806 1.613,1.98 1.878,3.223 0.263,1.233 0.134,2.529 -0.496,3.588 C 12.326,1.331 12.219,1.486 12.1,1.635 11.737,1.731 11.363,1.796 10.981,1.841 L 11.02,1.777 C 11.651,0.714 11.963,-0.57 11.881,-1.79 11.796,-3.031 11.305,-4.211 10.329,-5.038 10.15,-5.188 9.956,-5.329 9.745,-5.454 8.616,-6.125 7.178,-6.399 5.831,-6.331 4.426,-6.259 3.104,-5.81 2.31,-5.042 0.487,-3.28 1.003,-1.833 1.645,-0.035 1.998,0.958 2.396,2.071 2.386,3.405 2.174,3.555 1.964,3.721 1.756,3.904"
             style="fill:#000000;fill-opacity:1;fill-rule:nonzero;stroke:none"
             id="path118" /></g><g
           id="g120"
           transform="translate(85.3037,65.3633)"><path
             d="m 0,0 c 0.372,-0.817 0.573,-1.795 0.578,-2.683 0.007,-1.13 -0.309,-2.145 -0.998,-2.59 l -0.049,-0.032 c -0.565,-0.336 -1.282,-0.473 -1.951,-0.439 -0.705,0.035 -1.374,0.266 -1.782,0.661 -0.834,0.807 -0.593,1.807 -0.311,2.967 0.197,0.809 0.415,1.712 0.221,2.619 -0.385,0.124 -0.765,0.281 -1.14,0.479 -0.07,-1.253 -0.44,-2.291 -0.774,-3.227 -0.548,-1.538 -0.988,-2.776 0.472,-4.188 0.657,-0.635 1.793,-1.009 3.019,-1.073 1.205,-0.061 2.485,0.181 3.479,0.772 0.173,0.101 0.332,0.215 0.476,0.338 0.802,0.68 1.206,1.664 1.278,2.707 0.072,1.063 -0.202,2.186 -0.754,3.118 -0.113,0.187 -0.237,0.368 -0.37,0.538 -0.439,0.02 -0.882,0.026 -1.331,0.032 z"
             style="fill:#aaaaaa;fill-opacity:1;fill-rule:nonzero;stroke:none"
             id="path122" /></g><g
           id="g124"
           transform="translate(85.3037,65.3633)"><path
             d="m 0,0 c 0.372,-0.817 0.573,-1.795 0.578,-2.683 0.007,-1.13 -0.309,-2.145 -0.998,-2.59 l -0.049,-0.032 c -0.565,-0.336 -1.282,-0.473 -1.951,-0.439 -0.705,0.035 -1.374,0.266 -1.782,0.661 -0.834,0.807 -0.593,1.807 -0.311,2.967 0.197,0.809 0.415,1.712 0.221,2.619 -0.23,0.074 -0.46,0.161 -0.687,0.261 -0.099,-1.056 -0.413,-2.409 -0.675,-3.147 -0.476,-1.332 -0.858,-2.402 0.407,-3.625 0.569,-0.551 1.554,-0.875 2.615,-0.929 1.043,-0.053 2.152,0.156 3.011,0.667 0.15,0.089 0.288,0.188 0.414,0.294 0.693,0.589 1.044,1.441 1.105,2.343 0.063,0.921 -0.371,2.35 -0.849,3.155 -0.098,0.164 -0.204,0.32 -0.32,0.466 -0.221,0.005 -0.444,0.008 -0.666,0.011 z"
             style="fill:#47a0b5;fill-opacity:1;fill-rule:nonzero;stroke:none"
             id="path126" /></g><g
           id="g128"
           transform="translate(81.8389,65.6455)"><path
             d="M 0,0 C 0.11,-0.927 -0.101,-1.794 -0.292,-2.582 -0.517,-3.509 -0.71,-4.308 -0.197,-4.804 0.074,-5.066 0.558,-5.222 1.084,-5.249 1.611,-5.276 2.17,-5.171 2.6,-4.916 l 0.021,0.013 c 0.445,0.288 0.65,1.052 0.645,1.935 C 3.26,-2.054 3.021,-1.038 2.583,-0.265 1.721,-0.241 0.854,-0.183 0,0"
             style="fill:#ffa62b;fill-opacity:1;fill-rule:nonzero;stroke:none"
             id="path130" /></g><g
           id="g132"
           transform="translate(78.4746,67.3154)"><path
             d="m 0,0 c -0.093,-1.665 -0.588,-2.995 -1.026,-4.176 -0.725,-1.946 -1.285,-3.453 0.735,-5.405 0.911,-0.881 2.477,-1.399 4.162,-1.485 1.651,-0.084 3.404,0.247 4.77,1.058 0.226,0.136 0.442,0.29 0.643,0.461 0.95,0.807 1.613,1.981 1.878,3.224 0.263,1.233 0.134,2.528 -0.496,3.589 -0.096,0.161 -0.203,0.317 -0.322,0.465 -0.363,0.095 -0.737,0.161 -1.118,0.206 L 9.264,-2.128 C 9.896,-3.19 10.207,-4.475 10.124,-5.693 10.04,-6.936 9.549,-8.114 8.573,-8.942 8.395,-9.094 8.2,-9.233 7.989,-9.358 6.86,-10.029 5.422,-10.305 4.075,-10.235 c -1.405,0.072 -2.726,0.52 -3.52,1.289 -1.824,1.762 -1.308,3.209 -0.666,5.008 0.353,0.993 0.751,2.106 0.741,3.44 C 0.417,-0.35 0.207,-0.184 0,0"
             style="fill:#aaaaaa;fill-opacity:1;fill-rule:nonzero;stroke:none"
             id="path134" /></g><g
           id="g136"
           transform="translate(88.3984,65.1426)"><path
             d="M 0,0 C -0.229,0.047 -0.463,0.081 -0.699,0.109 L -0.66,0.045 c 0.632,-1.063 0.944,-2.347 0.861,-3.566 -0.084,-1.242 -0.576,-2.42 -1.552,-3.249 -0.178,-0.151 -0.374,-0.291 -0.584,-0.416 -1.129,-0.67 -2.567,-0.946 -3.915,-0.877 -1.403,0.073 -2.725,0.521 -3.52,1.29 -1.823,1.762 -1.307,3.209 -0.666,5.007 0.353,0.994 0.751,2.107 0.742,3.441 -0.109,0.076 -0.218,0.157 -0.326,0.243 -0.114,-1.508 -0.603,-2.924 -1.002,-3.998 -0.684,-1.837 -1.212,-3.258 0.694,-5.101 0.86,-0.832 2.336,-1.32 3.928,-1.402 1.558,-0.08 3.212,0.233 4.501,0.999 0.214,0.128 0.417,0.274 0.607,0.436 0.897,0.76 1.522,1.869 1.773,3.042 C 1.129,-2.942 1.007,-1.72 0.412,-0.72 0.352,-0.618 0.157,-0.266 0,0"
             style="fill:#47a0b5;fill-opacity:1;fill-rule:nonzero;stroke:none"
             id="path138" /></g><g
           id="g140"
           transform="translate(61.3672,52.6064)"><path
             d="m 0,0 h -0.509 c -0.676,0 -1.223,0.548 -1.223,1.224 v 14.571 c 0,0.676 0.547,1.224 1.223,1.224 H 0 c 0.676,0 1.224,-0.548 1.224,-1.224 V 1.224 C 1.224,0.548 0.676,0 0,0"
             style="fill:#f4f4f4;fill-opacity:1;fill-rule:nonzero;stroke:none"
             id="path142" /></g><g
           id="g144"
           transform="translate(61.3672,52.6064)"><path
             d="m 0,0 h -0.509 c -0.676,0 -1.223,0.548 -1.223,1.224 v 14.571 c 0,0.676 0.547,1.224 1.223,1.224 H 0 c 0.676,0 1.224,-0.548 1.224,-1.224 V 1.224 C 1.224,0.548 0.676,0 0,0 Z"
             style="fill:none;stroke:#000000;stroke-width:1.15;stroke-linecap:butt;stroke-linejoin:miter;stroke-miterlimit:10;stroke-dasharray:none;stroke-opacity:1"
             id="path146" /></g><g
           id="g148"
           transform="translate(70.0654,60.0303)"><path
             d="m 0,0 c 1.608,-3.064 3.218,-6.13 4.826,-9.194 -3.875,-1.454 -7.543,0.335 -8.301,2.769 -0.502,1.614 0.294,3.742 1.554,5.076 C -1.242,-0.631 -0.508,-0.226 0,0"
             style="fill:#f4f4f4;fill-opacity:1;fill-rule:nonzero;stroke:none"
             id="path150" /></g><g
           id="g152"
           transform="translate(76.7676,42.0313)"><path
             d="m 0,0 c -1.609,-0.131 -3.461,-0.18 -5.504,-0.054 -1.694,0.105 -3.237,0.312 -4.605,0.563"
             style="fill:#f4f4f4;fill-opacity:1;fill-rule:nonzero;stroke:#000000;stroke-width:1.15;stroke-linecap:butt;stroke-linejoin:miter;stroke-miterlimit:10;stroke-dasharray:none;stroke-opacity:1"
             id="path154" /></g><g
           id="g156"
           transform="translate(69.2734,59.9414)"><path
             d="m 0,0 c -0.22,-0.293 -1.807,-2.482 -1.095,-4.931 0.746,-2.561 3.713,-4.388 7.068,-3.916 -0.355,-0.098 -7.473,-2.007 -10.112,1.477 -0.272,0.358 -0.519,0.804 -0.695,1.365 -0.008,0.405 -0.018,2.83 1.886,4.576 C -1.829,-0.402 -0.583,-0.101 0,0"
             style="fill:#aaaaaa;fill-opacity:1;fill-rule:nonzero;stroke:none"
             id="path158" /></g><g
           id="g160"
           transform="translate(76.0889,51.4951)"><path
             d="m 0,0 c -0.934,-1.326 -2.552,-1.846 -4.116,-2.002 -1.591,-0.156 -3.211,0.211 -4.606,0.941 -1.379,0.699 -2.655,1.693 -3.645,2.892 -1.006,1.192 -1.763,2.565 -2.314,4.007 l 0.874,-0.272 c -0.468,-0.324 -0.971,-0.55 -1.545,-0.662 -0.568,-0.113 -1.208,-0.056 -1.767,0.2 -1.153,0.543 -1.713,1.708 -1.882,2.772 -0.207,1.081 0.125,2.355 0.864,3.207 0.734,0.859 1.697,1.438 2.782,1.696 1.107,0.284 2.3,0.021 3.218,-0.369 0.946,-0.347 1.881,-0.95 2.622,-1.634 C -8.76,10.101 -8.154,9.35 -7.494,9.118 -6.799,8.907 -6.087,9.032 -4.964,9.057 -5.189,8.529 -5.626,8.168 -6.153,7.949 -6.69,7.738 -7.31,7.764 -7.889,7.944 -8.471,8.135 -8.938,8.49 -9.321,8.822 l -1.067,0.956 c -0.687,0.601 -1.419,1.005 -2.265,1.346 -0.837,0.352 -1.62,0.508 -2.396,0.322 -0.781,-0.177 -1.551,-0.629 -2.072,-1.219 -0.52,-0.606 -0.744,-1.346 -0.622,-2.164 0.108,-0.802 0.516,-1.564 1.138,-1.858 0.613,-0.318 1.467,-0.134 2.134,0.311 l 0.62,0.414 0.255,-0.685 c 0.495,-1.331 1.219,-2.579 2.131,-3.65 0.909,-1.088 2.038,-1.925 3.292,-2.585 1.233,-0.641 2.608,-0.975 3.982,-0.926 C -2.785,-0.876 -1.559,-0.267 0,0"
             style="fill:#000000;fill-opacity:1;fill-rule:nonzero;stroke:none"
             id="path162" /></g><g
           id="g164"
           transform="translate(69.3701,59.9082)"><path
             d="m 0,0 c -0.514,-0.147 -2.049,-0.66 -3.095,-2.185 -1.702,-2.48 -0.538,-5.35 -0.446,-5.568 -1.252,1.691 -2.504,3.383 -3.755,5.074 -1.338,-0.608 -2.821,-0.396 -3.697,0.488 -1.13,1.139 -0.778,2.918 -0.321,3.823 0.934,1.849 3.695,2.794 6.767,2.029 C -4.439,3.331 -4.256,2.876 -3.94,2.388 -3.231,1.289 -2.328,0.759 -2.126,0.645 -1.277,0.164 -0.476,0.037 0,0"
             style="fill:#000000;fill-opacity:1;fill-rule:nonzero;stroke:none"
             id="path166" /></g><g
           id="g168"
           transform="translate(69.6694,66.1504)"><path
             d="m 0,0 h -18.139 c -0.916,0 -1.659,0.743 -1.659,1.659 v 10.984 c 0,0.916 0.743,1.659 1.659,1.659 H 0 c 0.917,0 1.66,-0.743 1.66,-1.659 V 1.659 C 1.66,0.743 0.917,0 0,0"
             style="fill:#f4f4f4;fill-opacity:1;fill-rule:nonzero;stroke:none"
             id="path170" /></g><g
           id="g172"
           transform="translate(69.6694,66.1504)"><path
             d="m 0,0 h -18.139 c -0.916,0 -1.659,0.743 -1.659,1.659 v 10.984 c 0,0.916 0.743,1.659 1.659,1.659 H 0 c 0.917,0 1.66,-0.743 1.66,-1.659 V 1.659 C 1.66,0.743 0.917,0 0,0 Z"
             style="fill:none;stroke:#000000;stroke-width:1.15;stroke-linecap:butt;stroke-linejoin:miter;stroke-miterlimit:10;stroke-dasharray:none;stroke-opacity:1"
             id="path174" /></g><g
           id="g176"
           transform="translate(60.0601,77.6235)"><path
             d="M 0,0 -4.278,-7.111 C -4.675,-7.77 -4.203,-8.61 -3.434,-8.615 -0.447,-8.634 2.54,-8.654 5.527,-8.672 6.318,-8.678 6.797,-7.8 6.364,-7.138 4.803,-4.748 3.242,-2.358 1.681,0.031 1.281,0.644 0.377,0.627 0,0 Z"
             style="fill:none;stroke:#d32929;stroke-width:1;stroke-linecap:butt;stroke-linejoin:miter;stroke-miterlimit:10;stroke-dasharray:none;stroke-opacity:1"
             id="path178" /></g></g></g><text
       transform="matrix(1,0,0,-1,59.0713,70.1094)"
       style="font-variant:normal;font-weight:normal;font-stretch:normal;font-size:9.9479px;font-family:Calibri;-inkscape-font-specification:Calibri;writing-mode:lr-tb;fill:#000000;fill-opacity:1;fill-rule:nonzero;stroke:none"
       id="text182"><tspan
         x="0"
         y="0"
         id="tspan180">!</tspan></text></g></svg>
