<?xml version="1.0" encoding="UTF-8" standalone="no"?>
<svg
   xmlns:dc="http://purl.org/dc/elements/1.1/"
   xmlns:cc="http://creativecommons.org/ns#"
   xmlns:rdf="http://www.w3.org/1999/02/22-rdf-syntax-ns#"
   xmlns:svg="http://www.w3.org/2000/svg"
   xmlns="http://www.w3.org/2000/svg"
   xmlns:sodipodi="http://sodipodi.sourceforge.net/DTD/sodipodi-0.dtd"
   xmlns:inkscape="http://www.inkscape.org/namespaces/inkscape"
   version="1.1"
   id="svg2"
   xml:space="preserve"
   width="188.976"
   height="188.976"
   viewBox="0 0 188.976 188.976"
   sodipodi:docname="otto 2.ai"><metadata
     id="metadata8"><rdf:RDF><cc:Work
         rdf:about=""><dc:format>image/svg+xml</dc:format><dc:type
           rdf:resource="http://purl.org/dc/dcmitype/StillImage" /></cc:Work></rdf:RDF></metadata><defs
     id="defs6"><clipPath
       clipPathUnits="userSpaceOnUse"
       id="clipPath18"><path
         d="M 0,141.732 H 141.732 V 0 H 0 Z"
         id="path16" /></clipPath></defs><sodipodi:namedview
     pagecolor="#ffffff"
     bordercolor="#666666"
     borderopacity="1"
     objecttolerance="10"
     gridtolerance="10"
     guidetolerance="10"
     inkscape:pageopacity="0"
     inkscape:pageshadow="2"
     inkscape:window-width="640"
     inkscape:window-height="480"
     id="namedview4" /><g
     id="g10"
     inkscape:groupmode="layer"
     inkscape:label="otto 2"
     transform="matrix(1.3333333,0,0,-1.3333333,0,188.976)"><g
       id="g12"><g
         id="g14"
         clip-path="url(#clipPath18)"><g
           id="g20"
           transform="translate(41.8936,53.8896)"><path
             d="M 0,0 C 0.274,1.847 1.349,4.253 3.047,6.104 3.266,6.34 3.251,6.71 3.013,6.93 2.944,6.993 2.863,7.037 2.777,7.062 2.413,7.165 2.185,7.316 2.088,7.492 2.018,7.618 2.014,7.779 2.075,7.96 c 0.082,0.249 0.276,0.527 0.579,0.814 0.943,0.893 2.812,1.743 5.586,2.035 0.781,0.082 1.569,0.129 2.34,0.175 3.662,0.22 6.972,0.419 9.125,4.148 2.253,3.902 1.949,8.784 1.633,13.872 -0.111,1.789 -0.224,3.604 -0.224,5.428 0,0.315 -0.25,0.573 -0.563,0.585 -0.083,0.009 -0.16,0.031 -0.229,0.066 -0.169,0.088 -0.31,0.262 -0.408,0.517 -0.122,0.315 -0.173,0.742 -0.133,1.275 0.07,0.924 0.42,2.119 1.16,3.55 0.087,0.169 0.084,0.36 0.008,0.519 l 10e-4,10e-4 c -0.321,0.674 -0.511,1.34 -0.443,1.973 0.066,0.616 0.383,1.234 1.075,1.847 0.198,0.174 0.249,0.453 0.144,0.681 -0.326,0.709 -0.43,1.649 -0.088,2.517 0.273,0.693 0.839,1.345 1.817,1.809 0.291,0.138 0.417,0.486 0.279,0.778 l -0.004,0.007 c -0.132,0.343 0.008,0.782 0.3,1.16 0.17,0.219 0.391,0.414 0.643,0.559 0.244,0.14 0.513,0.23 0.785,0.245 0.511,0.028 1.068,-0.214 1.554,-0.896 0.186,-0.263 0.551,-0.324 0.814,-0.137 0.123,0.088 0.202,0.214 0.232,0.351 0.114,0.456 0.361,0.806 0.677,1.048 0.363,0.278 0.819,0.421 1.281,0.429 0.463,-0.008 0.919,-0.151 1.281,-0.429 0.32,-0.244 0.568,-0.598 0.682,-1.06 0.074,-0.314 0.39,-0.506 0.703,-0.431 0.143,0.035 0.26,0.119 0.339,0.229 0.485,0.682 1.042,0.924 1.553,0.896 0.273,-0.015 0.541,-0.105 0.785,-0.245 0.253,-0.145 0.474,-0.34 0.644,-0.559 0.299,-0.387 0.439,-0.838 0.289,-1.185 -0.125,-0.29 0.003,-0.625 0.287,-0.758 l -10e-4,-0.002 c 0.978,-0.464 1.544,-1.116 1.818,-1.809 0.341,-0.868 0.237,-1.808 -0.09,-2.516 -0.116,-0.251 -0.039,-0.542 0.169,-0.705 0.675,-0.605 0.986,-1.215 1.051,-1.824 0.067,-0.633 -0.123,-1.299 -0.444,-1.973 -0.087,-0.184 -0.07,-0.39 0.026,-0.552 0.729,-1.418 1.074,-2.6 1.143,-3.518 0.041,-0.533 -0.011,-0.96 -0.132,-1.275 -0.098,-0.255 -0.24,-0.429 -0.409,-0.517 -0.074,-0.038 -0.158,-0.061 -0.249,-0.068 -0.308,-0.023 -0.542,-0.28 -0.542,-0.583 -10e-4,-2.707 0,-2.254 0.001,-1.979 -0.009,-8.609 -0.011,-13.236 1.653,-19.449 l 0.146,-0.542 c 0.322,-1.18 0.571,-2.097 0.46,-2.392 C 40.899,9.328 40.229,9.736 40.228,9.737 39.948,9.897 39.591,9.801 39.431,9.522 39.349,9.38 39.334,9.22 39.375,9.074 L 39.373,9.073 C 39.378,9.058 40.958,3.451 40.433,1.107 40.189,0.018 39.402,1.286 39.4,1.29 39.23,1.564 38.869,1.648 38.595,1.478 38.404,1.359 38.306,1.149 38.32,0.94 c 0.101,-1.385 -0.245,-2.82 -0.916,-4.198 -0.733,-1.506 -1.851,-2.94 -3.2,-4.172 -0.816,-0.744 -1.712,-1.413 -2.655,-1.978 -0.709,-0.425 -1.445,-0.792 -2.195,-1.09 -0.396,-0.325 -0.791,-0.65 -1.185,-0.976 -6.258,0.414 -8.165,0.435 -8.214,0.308 -0.004,-0.011 -0.106,-0.18 -0.245,-0.388 l -0.001,-10e-4 c -0.358,0.226 -0.716,0.451 -1.075,0.676 -1.539,0.074 -3.634,0.337 -5.989,1.137 -2.027,0.689 -3.644,1.571 -4.828,2.337 0.414,-1.727 2.041,-2.61 3.543,-3.148 -0.277,-0.856 -0.596,-1.675 -0.991,-2.451 -0.471,-0.926 -1.051,-1.791 -1.798,-2.587 -0.505,-0.538 -0.999,-0.902 -1.467,-1.094 -0.36,-0.148 -0.705,-0.19 -1.027,-0.128 -0.322,0.06 -0.634,0.23 -0.93,0.508 -0.408,0.383 -0.778,0.961 -1.095,1.734 C 2.765,-11.43 2.274,-6.194 2.041,-3.704 1.999,-3.259 1.965,-2.893 1.945,-2.713 1.909,-2.392 1.62,-2.16 1.299,-2.195 1.264,-2.199 1.229,-2.207 1.196,-2.216 0.869,-2.313 0.621,-2.316 0.445,-2.241 0.241,-2.153 0.099,-1.931 0.016,-1.611 -0.092,-1.193 -0.095,-0.639 0,0"
             style="fill:#f4f4f4;fill-opacity:1;fill-rule:nonzero;stroke:none"
             id="path22" /></g><g
           id="g24"
           transform="translate(79.1631,48.1426)"><path
             d="m 0,0 c -0.713,-3.331 -2.186,-7.979 -4.988,-9.166 -0.687,-0.291 -1.253,-0.147 -1.726,0.291 -0.568,0.528 -1.041,1.449 -1.437,2.576 l -0.036,-0.013 c 0.02,0.079 0.037,0.158 0.053,0.237 1.034,0.355 2.049,0.834 3.013,1.412 1.016,0.608 1.975,1.323 2.843,2.115 C -1.423,-1.766 -0.652,-0.907 0,0"
             style="fill:#ffffff;fill-opacity:1;fill-rule:nonzero;stroke:none"
             id="path26" /></g><g
           id="g28"
           transform="translate(86.9082,100.3164)"><path
             d="m 0,0 c -0.113,0.072 -0.241,0.131 -0.386,0.174 -0.781,0.236 -1.179,-0.358 -1.713,-1.152 -0.485,-0.723 -1.138,-1.696 -2.303,-1.963 -0.104,0.43 -0.292,0.855 -0.585,1.27 0.276,0.079 0.537,0.188 0.779,0.322 0.629,0.347 1.139,0.856 1.508,1.411 0.523,0.791 1,1.181 1.4,1.283 0.194,0.048 0.368,0.022 0.52,-0.062 C -0.596,1.18 -0.429,0.996 -0.291,0.756 -0.166,0.538 -0.066,0.281 0,0"
             style="fill:#ffffff;fill-opacity:1;fill-rule:nonzero;stroke:none"
             id="path30" /></g><g
           id="g32"
           transform="translate(61.3145,97.375)"><path
             d="M 0,0 C -1.165,0.267 -1.819,1.241 -2.304,1.964 -2.837,2.757 -3.236,3.352 -4.017,3.116 -4.161,3.072 -4.289,3.013 -4.403,2.941 c 0.067,0.282 0.166,0.538 0.291,0.756 0.138,0.241 0.305,0.425 0.49,0.527 0.151,0.084 0.326,0.111 0.519,0.062 C -2.702,4.185 -2.226,3.794 -1.702,3.004 -1.328,2.441 -0.811,1.926 -0.171,1.579 0.065,1.452 0.317,1.347 0.585,1.271 0.292,0.855 0.103,0.431 0,0"
             style="fill:#ffffff;fill-opacity:1;fill-rule:nonzero;stroke:none"
             id="path34" /></g><g
           id="g36"
           transform="translate(44.9067,60.8184)"><path
             d="m 0,0 c -0.07,0.064 -0.151,0.108 -0.236,0.132 -0.364,0.104 -0.592,0.255 -0.689,0.431 -0.07,0.127 -0.074,0.289 -0.014,0.469 0.083,0.248 0.277,0.527 0.58,0.813 0.943,0.893 2.812,1.742 5.586,2.035 0.78,0.082 1.568,0.129 2.339,0.177 3.662,0.219 6.973,0.419 9.126,4.146 2.252,3.902 1.949,8.784 1.633,13.872 -0.111,1.789 -0.224,3.604 -0.224,5.428 0,0.316 -0.25,0.573 -0.563,0.585 -0.083,0.009 -0.16,0.031 -0.229,0.067 -0.169,0.087 -0.31,0.261 -0.408,0.516 -0.122,0.316 -0.174,0.742 -0.133,1.276 0.07,0.924 0.42,2.118 1.16,3.55 0.087,0.168 0.083,0.36 0.008,0.519 h 0.001 c -0.321,0.674 -0.511,1.34 -0.443,1.973 1.751,-0.003 7.345,-5.092 7.564,-6.41 0.219,-1.318 -0.409,-6.836 -0.409,-6.836 0,0 -4.28,3.253 -4.514,-3.835 C 19.9,11.82 18.715,9.065 17.557,6.664 16.399,4.263 17.879,1.656 17.704,-0.219 17.528,-2.093 16.005,-5.021 11.816,-5.403 7.628,-5.784 4.582,-4.202 3.469,-2.767 2.355,-1.332 2.385,0.719 1.945,0.982 1.506,1.246 0.385,1.309 0,0"
             style="fill:#aaaaaa;fill-opacity:1;fill-rule:nonzero;stroke:none"
             id="path38" /></g><g
           id="g40"
           transform="translate(62.7222,95.1045)"><path
             d="M 0,0 C -0.246,0.582 -0.38,1.155 -0.322,1.703 -0.256,2.32 0.062,2.938 0.754,3.55 0.951,3.725 1.002,4.004 0.897,4.232 0.571,4.941 0.467,5.881 0.809,6.749 1.062,7.39 1.567,7.998 2.418,8.453 0.945,6.747 1.755,4.711 3.102,4.038 4.449,3.364 6.236,4.741 6.236,4.741 c 0,0 0.645,-1.025 1.904,-1.494 1.26,-0.469 2.753,0.937 2.753,0.937 0,0 1.524,-1.171 3.75,-0.644 2.227,0.527 2.709,3.381 1.856,4.571 0.531,-0.399 0.874,-0.87 1.067,-1.362 0.342,-0.868 0.238,-1.808 -0.089,-2.517 -0.115,-0.251 -0.038,-0.541 0.17,-0.705 0.674,-0.605 0.985,-1.215 1.05,-1.824 0.03,-0.282 0.01,-0.57 -0.052,-0.863 -1.578,0.831 -2.273,-0.932 -2.273,-0.932 0,0 -1.671,-2.519 -2.403,-2.344 C 13.237,-2.26 3.358,-1.37 1.991,-0.356 1.116,0.291 0.402,0.171 0,0"
             style="fill:#aaaaaa;fill-opacity:1;fill-rule:nonzero;stroke:none"
             id="path42" /></g><g
           id="g44"
           transform="translate(41.8936,53.8906)"><path
             d="m 0,0 c 0.24,1.614 1.093,3.661 2.441,5.386 0,0 -1.658,-2.783 -1.666,-4.613 -0.008,-1.829 1.289,-1.054 1.962,-1.699 0.674,-0.644 1.846,-13.386 3.721,-12.477 1.874,0.908 1.405,5.825 1.405,5.825 0.478,-1.613 2.045,-2.455 3.497,-2.977 -0.277,-0.855 -0.596,-1.674 -0.991,-2.449 -0.471,-0.927 -1.051,-1.791 -1.798,-2.588 -0.505,-0.538 -0.999,-0.902 -1.467,-1.095 -0.36,-0.146 -0.705,-0.189 -1.027,-0.127 -0.322,0.061 -0.634,0.231 -0.93,0.507 -0.408,0.384 -0.779,0.962 -1.095,1.735 -1.287,3.141 -1.778,8.377 -2.011,10.868 -0.042,0.443 -0.076,0.81 -0.096,0.991 C 1.909,-2.393 1.62,-2.161 1.299,-2.196 1.264,-2.2 1.229,-2.207 1.196,-2.218 0.869,-2.315 0.62,-2.317 0.445,-2.242 0.241,-2.154 0.099,-1.932 0.016,-1.612 -0.092,-1.194 -0.095,-0.64 0,0"
             style="fill:#aaaaaa;fill-opacity:1;fill-rule:nonzero;stroke:none"
             id="path46" /></g><g
           id="g48"
           transform="translate(81.2666,62.9629)"><path
             d="m 0,0 c 0.003,0.001 0.007,-0.021 0.007,-0.021 0.069,-0.433 1.49,-5.996 1.054,-7.946 -0.245,-1.089 -1.032,0.18 -1.034,0.184 -0.171,0.273 -0.531,0.357 -0.805,0.187 -0.191,-0.118 -0.288,-0.329 -0.275,-0.538 0.1,-1.385 -0.246,-2.82 -0.917,-4.198 -0.733,-1.505 -1.85,-2.939 -3.2,-4.171 -0.784,-0.716 -1.439,-1.157 -2.653,-1.978 -1.361,-0.92 -2.54,-1.605 -3.381,-2.066 -2.442,0.075 -4.885,0.151 -7.328,0.226 6.462,1.65 11.003,3.859 12.436,5.128 1.178,1.041 2,2.181 2,2.181 0.448,0.619 0.82,1.135 1.128,1.891 0.564,1.381 0.848,3.394 1.186,5.501 0.01,0.062 0.025,0.154 0.094,0.242 0.351,0.447 1.316,-0.206 1.838,0.08 C 1.267,-4.687 -0.017,-0.003 0,0"
             style="fill:#aaaaaa;fill-opacity:1;fill-rule:nonzero;stroke:none"
             id="path50" /></g><g
           id="g52"
           transform="translate(40.9624,51.4795)"><path
             d="m 0,0 c 0.202,-0.418 0.504,-0.73 0.914,-0.906 0.17,-0.073 0.354,-0.12 0.553,-0.139 -0.299,-0.331 -0.562,-0.451 -0.779,-0.436 -0.103,0.005 -0.203,0.046 -0.293,0.108 -0.11,0.075 -0.208,0.18 -0.29,0.302 -0.202,0.3 -0.299,0.647 -0.197,0.802 H -0.093 C -0.041,-0.188 -0.009,-0.095 0,0"
             style="fill:#aaaaaa;fill-opacity:1;fill-rule:nonzero;stroke:none"
             id="path54" /></g><g
           id="g56"
           transform="translate(42.2944,58.3213)"><path
             d="m 0,0 c -0.832,-1.457 -1.368,-2.979 -1.559,-4.262 -0.116,-0.786 -0.105,-1.499 0.044,-2.074 l 0.01,-0.037 c -0.166,0.163 -0.421,0.217 -0.646,0.116 -0.037,-0.015 -0.107,-0.039 -0.203,-0.064 -0.277,-0.071 -0.7,-0.137 -1.09,-0.086 -0.284,0.037 -0.545,0.141 -0.664,0.371 l -0.013,0.031 c -0.019,0.045 -0.035,0.086 -0.044,0.124 -0.258,1.003 1.357,2.575 1.586,2.792 0.131,0.109 0.215,0.271 0.215,0.454 0,0.323 -0.262,0.586 -0.586,0.586 -0.003,0 -1.145,0 -0.915,1.058 0.006,0.031 0.013,0.058 0.021,0.082 0.156,0.498 0.752,0.786 1.48,0.923 C -1.609,0.156 -0.736,0.128 0,0"
             style="fill:#aaaaaa;fill-opacity:1;fill-rule:nonzero;stroke:none"
             id="path58" /></g><g
           id="g60"
           transform="translate(79.1631,48.1426)"><path
             d="m 0,0 c -0.141,-0.654 -0.31,-1.358 -0.513,-2.078 -1.508,-1.385 -3.444,-3.211 -3.515,-4.334 -0.043,-0.684 0.381,-1.062 0.894,-1.297 -0.541,-0.651 -1.156,-1.161 -1.854,-1.457 -0.687,-0.291 -1.253,-0.147 -1.726,0.291 -0.568,0.528 -1.041,1.449 -1.437,2.576 l -0.036,-0.013 c 0.02,0.079 0.037,0.158 0.053,0.237 1.034,0.355 2.049,0.834 3.013,1.412 1.016,0.608 1.975,1.323 2.843,2.115 C -1.423,-1.766 -0.652,-0.907 0,0"
             style="fill:#aaaaaa;fill-opacity:1;fill-rule:nonzero;stroke:none"
             id="path62" /></g><g
           id="g64"
           transform="translate(59.6748,42.0459)"><path
             d="m 0,0 c -0.239,-0.312 -0.5,-0.6 -0.779,-0.854 -0.464,-0.422 -0.979,-0.753 -1.535,-0.963 -0.705,-0.266 -1.292,-0.114 -1.78,0.31 -0.522,0.452 -0.96,1.2 -1.327,2.099 0.039,0.113 0.077,0.227 0.114,0.343 C -3.481,0.406 -1.636,0.133 0,0"
             style="fill:#aaaaaa;fill-opacity:1;fill-rule:nonzero;stroke:none"
             id="path66" /></g><g
           id="g68"
           transform="translate(82.5869,96.1968)"><path
             d="M 0,0 C 1.715,0.291 2.566,1.559 3.192,2.492 3.449,2.874 3.562,3.185 3.602,3.173 4.17,3.002 4.097,1.861 4.065,1.547 3.783,0.935 3.332,0.375 2.732,-0.025 2.005,-0.513 1.05,-0.763 -0.094,-0.583 -0.05,-0.389 -0.019,-0.195 0,0"
             style="fill:#aaaaaa;fill-opacity:1;fill-rule:nonzero;stroke:none"
             id="path70" /></g><g
           id="g72"
           transform="translate(57.1675,97.7437)"><path
             d="M 0,0 C -0.031,0.314 -0.104,1.455 0.464,1.626 0.504,1.638 0.616,1.327 0.873,0.945 1.499,0.012 2.351,-1.256 4.066,-1.547 4.083,-1.742 4.115,-1.936 4.159,-2.13 3.018,-2.31 2.065,-2.061 1.337,-1.575 0.736,-1.174 0.283,-0.613 0,0"
             style="fill:#aaaaaa;fill-opacity:1;fill-rule:nonzero;stroke:none"
             id="path74" /></g><g
           id="g76"
           transform="translate(71.5859,38.4756)"><path
             d="m 0,0 c 0.022,-0.021 0.044,-0.043 0.067,-0.063 0.818,-0.76 1.795,-1.012 2.975,-0.512 0.17,0.073 0.336,0.156 0.497,0.248 C 3.327,-1.299 3.18,-2.467 3.419,-3.296 3.63,-4.027 4.009,-4.477 4.331,-4.861 4.592,-5.171 4.788,-5.404 4.587,-5.76 4.563,-5.802 4.532,-5.838 4.495,-5.869 L 4.494,-5.867 C 4.259,-6.062 3.809,-6.112 3.29,-6.054 2.698,-5.988 2.052,-5.778 1.516,-5.473 1.189,-5.289 0.909,-5.072 0.714,-4.838 0.656,-4.768 0.589,-4.574 0.525,-4.338 0.434,-3.991 0.368,-3.595 0.349,-3.311 0.271,-2.235 0.132,-1.057 0,0"
             style="fill:#000000;fill-opacity:1;fill-rule:nonzero;stroke:none"
             id="path78" /></g><g
           id="g80"
           transform="translate(49.7808,36.2832)"><path
             d="M 0,0 C -0.195,-0.848 -0.314,-1.819 -0.093,-2.526 0.12,-3.205 0.5,-3.617 0.824,-3.968 L 0.857,-4 C 1.073,-4.234 1.225,-4.418 1.066,-4.667 1.052,-4.69 1.035,-4.71 1.015,-4.729 0.772,-4.949 0.237,-4.994 -0.372,-4.916 c -0.684,0.088 -1.422,0.341 -1.976,0.691 -0.194,0.124 -0.36,0.256 -0.485,0.394 -0.05,0.055 -0.111,0.218 -0.169,0.419 -0.088,0.302 -0.147,0.65 -0.165,0.905 -0.068,0.946 -0.193,1.974 -0.314,2.903 0.445,-0.401 0.934,-0.652 1.456,-0.752 0.544,-0.103 1.111,-0.039 1.686,0.198 C -0.226,-0.112 -0.113,-0.06 0,0"
             style="fill:#000000;fill-opacity:1;fill-rule:nonzero;stroke:none"
             id="path82" /></g><g
           id="g84"
           transform="translate(58.2705,39.3516)"><path
             d="m 0,0 c -0.21,-0.872 -0.35,-1.899 -0.119,-2.638 0.213,-0.678 0.593,-1.091 0.917,-1.44 L 0.831,-4.111 C 1.047,-4.346 1.199,-4.528 1.04,-4.778 1.026,-4.801 1.009,-4.821 0.989,-4.839 0.747,-5.061 0.212,-5.105 -0.398,-5.027 c -0.684,0.088 -1.423,0.34 -1.976,0.693 -0.194,0.123 -0.36,0.255 -0.484,0.392 -0.051,0.055 -0.112,0.218 -0.17,0.419 -0.088,0.301 -0.147,0.651 -0.165,0.905 -0.07,0.972 -0.2,2.03 -0.324,2.978 l 0.063,-0.055 c 0.813,-0.707 1.788,-0.962 2.956,-0.523 C -0.328,-0.153 -0.162,-0.08 0,0"
             style="fill:#000000;fill-opacity:1;fill-rule:nonzero;stroke:none"
             id="path86" /></g><g
           id="g88"
           transform="translate(39.7153,55.2324)"><path
             d="m 0,0 c 0.131,0.108 0.215,0.271 0.215,0.454 0,0.323 -0.262,0.585 -0.586,0.585 -0.003,0 -1.144,0.001 -0.915,1.059 0.006,0.031 0.014,0.058 0.021,0.082 0.156,0.498 0.753,0.785 1.48,0.923 C 0.97,3.245 1.843,3.217 2.579,3.089 1.747,1.632 1.211,0.109 1.021,-1.173 0.904,-1.959 0.915,-2.672 1.065,-3.247 L 1.074,-3.284 C 0.908,-3.121 0.653,-3.067 0.428,-3.168 0.391,-3.184 0.321,-3.207 0.225,-3.231 c -0.277,-0.072 -0.7,-0.138 -1.09,-0.087 -0.283,0.037 -0.545,0.141 -0.664,0.371 l -0.012,0.03 c -0.02,0.045 -0.036,0.087 -0.045,0.125 C -1.844,-1.789 -0.229,-0.217 0,0 M 1.155,-4.021 H 1.154 c 0.053,0.08 0.085,0.172 0.093,0.268 0.202,-0.418 0.505,-0.73 0.914,-0.906 0.17,-0.074 0.355,-0.12 0.554,-0.139 -0.3,-0.331 -0.563,-0.451 -0.78,-0.437 -0.103,0.007 -0.202,0.048 -0.293,0.109 -0.109,0.074 -0.208,0.18 -0.289,0.301 -0.203,0.301 -0.3,0.648 -0.198,0.804 m 5.429,-14.533 c 0.445,-0.401 0.935,-0.652 1.456,-0.751 0.545,-0.104 1.111,-0.039 1.687,0.197 0.112,0.046 0.225,0.099 0.338,0.158 -0.194,-0.847 -0.314,-1.819 -0.092,-2.525 0.212,-0.68 0.593,-1.091 0.917,-1.442 l 0.032,-0.032 c 0.216,-0.235 0.368,-0.418 0.21,-0.668 -0.015,-0.022 -0.032,-0.043 -0.051,-0.06 -0.243,-0.22 -0.778,-0.267 -1.388,-0.189 -0.684,0.088 -1.422,0.341 -1.976,0.693 -0.194,0.123 -0.36,0.255 -0.484,0.392 -0.051,0.056 -0.112,0.219 -0.17,0.419 -0.087,0.302 -0.147,0.652 -0.165,0.905 -0.068,0.947 -0.193,1.974 -0.314,2.903 m 7.955,5.959 c 0.038,0.115 0.076,0.228 0.114,0.343 1.825,-0.528 3.67,-0.802 5.307,-0.935 -0.24,-0.312 -0.5,-0.599 -0.779,-0.853 -0.464,-0.423 -0.979,-0.755 -1.535,-0.964 -0.706,-0.266 -1.293,-0.113 -1.781,0.31 -0.521,0.453 -0.959,1.201 -1.326,2.099 m 0.499,-2.926 0.063,-0.056 c 0.813,-0.706 1.788,-0.961 2.957,-0.521 0.169,0.064 0.335,0.136 0.497,0.217 -0.21,-0.872 -0.35,-1.899 -0.118,-2.637 0.212,-0.679 0.593,-1.091 0.917,-1.441 l 0.032,-0.033 c 0.216,-0.234 0.368,-0.418 0.21,-0.667 -0.015,-0.023 -0.032,-0.043 -0.051,-0.061 -0.243,-0.221 -0.778,-0.266 -1.388,-0.188 -0.684,0.088 -1.422,0.341 -1.976,0.692 -0.194,0.124 -0.36,0.256 -0.484,0.392 -0.051,0.056 -0.112,0.22 -0.17,0.42 -0.087,0.302 -0.147,0.651 -0.165,0.905 -0.07,0.972 -0.2,2.029 -0.324,2.978 m 6.561,57.664 c -1.164,0.267 -1.819,1.24 -2.304,1.963 -0.532,0.794 -0.932,1.388 -1.713,1.152 -0.144,-0.043 -0.271,-0.102 -0.386,-0.174 0.067,0.281 0.166,0.538 0.291,0.756 0.138,0.24 0.305,0.424 0.491,0.527 0.151,0.084 0.326,0.11 0.518,0.062 0.402,-0.102 0.877,-0.493 1.402,-1.283 0.373,-0.562 0.89,-1.077 1.53,-1.424 0.236,-0.128 0.489,-0.233 0.756,-0.309 -0.293,-0.415 -0.482,-0.84 -0.585,-1.27 m -3.683,1.994 c 0.04,0.012 0.153,-0.298 0.409,-0.68 0.627,-0.934 1.478,-2.202 3.193,-2.493 0.018,-0.195 0.049,-0.389 0.093,-0.583 -1.141,-0.18 -2.094,0.069 -2.822,0.555 -0.6,0.401 -1.054,0.962 -1.337,1.575 -0.031,0.314 -0.104,1.455 0.464,1.626 m 24.289,-0.724 c 0.277,0.079 0.538,0.188 0.78,0.322 0.63,0.346 1.138,0.856 1.507,1.411 0.525,0.79 1,1.181 1.402,1.283 0.191,0.048 0.367,0.022 0.518,-0.062 0.185,-0.103 0.352,-0.287 0.49,-0.527 0.126,-0.218 0.223,-0.475 0.291,-0.756 -0.114,0.072 -0.242,0.131 -0.385,0.174 -0.782,0.236 -1.182,-0.358 -1.714,-1.152 -0.485,-0.723 -1.139,-1.696 -2.304,-1.963 -0.103,0.43 -0.291,0.855 -0.585,1.27 m 0.573,-3.032 c 0.044,0.194 0.076,0.388 0.093,0.583 1.714,0.291 2.567,1.559 3.194,2.493 0.256,0.382 0.368,0.692 0.408,0.68 0.569,-0.171 0.495,-1.312 0.464,-1.626 -0.282,-0.612 -0.734,-1.172 -1.332,-1.572 -0.73,-0.487 -1.685,-0.738 -2.827,-0.558 M 39.448,-7.09 c -0.713,-3.331 -2.186,-7.978 -4.989,-9.166 -0.686,-0.291 -1.253,-0.147 -1.725,0.291 -0.569,0.528 -1.04,1.449 -1.439,2.576 l -0.033,-0.012 c 0.018,0.078 0.035,0.157 0.053,0.236 1.034,0.355 2.048,0.834 3.012,1.412 1.014,0.608 1.975,1.323 2.841,2.115 0.857,0.783 1.627,1.641 2.28,2.548 m -7.577,-9.667 c 0.022,-0.021 0.044,-0.043 0.067,-0.064 0.817,-0.759 1.795,-1.01 2.975,-0.51 0.17,0.072 0.336,0.155 0.497,0.247 -0.212,-0.971 -0.361,-2.14 -0.12,-2.969 0.21,-0.731 0.589,-1.181 0.912,-1.565 0.26,-0.31 0.457,-0.543 0.256,-0.899 -0.024,-0.041 -0.055,-0.078 -0.092,-0.109 l -10e-4,0.002 c -0.236,-0.195 -0.686,-0.245 -1.204,-0.187 -0.592,0.066 -1.239,0.276 -1.775,0.582 -0.326,0.183 -0.606,0.4 -0.802,0.635 -0.057,0.069 -0.125,0.263 -0.188,0.499 -0.092,0.347 -0.157,0.743 -0.177,1.028 -0.077,1.076 -0.217,2.254 -0.348,3.31 M -2.716,-3.081 c 0.03,-0.117 0.065,-0.219 0.104,-0.307 0.008,-0.019 0.018,-0.038 0.028,-0.056 0.321,-0.666 0.929,-0.948 1.568,-1.032 0.343,-0.045 0.696,-0.029 1.004,0.012 0.051,-0.349 0.188,-0.708 0.394,-1.015 0.16,-0.237 0.363,-0.45 0.601,-0.612 0.257,-0.175 0.551,-0.289 0.874,-0.311 0.405,-0.027 0.841,0.09 1.279,0.417 0.265,-2.734 0.788,-7.331 1.989,-10.31 0.037,-0.42 0.119,-1.034 0.213,-1.739 0.14,-1.054 0.308,-2.32 0.393,-3.505 0.023,-0.316 0.099,-0.76 0.211,-1.148 0.103,-0.356 0.246,-0.684 0.426,-0.881 0.199,-0.218 0.445,-0.418 0.722,-0.594 0.69,-0.438 1.607,-0.752 2.457,-0.86 0.925,-0.12 1.804,0.009 2.321,0.48 0.097,0.089 0.182,0.188 0.252,0.298 0.635,0.999 0.224,1.474 -0.342,2.086 l -0.028,0.033 c -0.242,0.262 -0.527,0.57 -0.661,0.998 -0.318,1.015 0.411,3.016 0.588,3.475 0.796,0.863 1.413,1.791 1.914,2.775 0.05,0.097 0.098,0.195 0.145,0.293 l 0.066,-0.493 c 0.14,-1.054 0.308,-2.32 0.393,-3.505 0.023,-0.317 0.098,-0.759 0.211,-1.147 0.103,-0.357 0.246,-0.685 0.426,-0.882 0.198,-0.218 0.445,-0.417 0.722,-0.593 0.689,-0.438 1.607,-0.753 2.457,-0.862 0.925,-0.118 1.804,0.01 2.321,0.481 0.097,0.089 0.182,0.189 0.252,0.299 0.635,0.998 0.224,1.474 -0.342,2.085 l -0.028,0.033 c -0.381,0.383 -0.566,0.753 -0.661,0.998 -0.52,1.333 0.008,3.076 1.023,3.891 0.268,0.215 0.509,0.319 0.873,0.708 0.424,0.453 0.664,0.921 0.799,1.239 -0.417,0.023 -1.018,0.064 -1.737,0.142 -1.436,0.153 -3.441,0.367 -5.687,1.105 -1.221,0.401 -2.931,1.096 -4.829,2.337 0.415,-1.726 2.041,-2.61 3.543,-3.148 -0.277,-0.856 -0.596,-1.674 -0.99,-2.45 -0.472,-0.925 -1.051,-1.792 -1.799,-2.588 -0.505,-0.538 -0.998,-0.902 -1.466,-1.094 -0.36,-0.147 -0.705,-0.19 -1.028,-0.128 -0.321,0.061 -0.634,0.231 -0.929,0.509 -0.408,0.382 -0.779,0.96 -1.095,1.732 C 4.943,-12.771 4.453,-7.538 4.219,-5.047 4.178,-4.602 4.143,-4.235 4.123,-4.055 4.088,-3.734 3.799,-3.503 3.478,-3.538 3.442,-3.542 3.408,-3.549 3.375,-3.559 3.047,-3.657 2.799,-3.659 2.624,-3.584 2.42,-3.496 2.278,-3.274 2.195,-2.954 2.086,-2.536 2.084,-1.98 2.178,-1.342 2.452,0.503 3.528,2.911 5.226,4.76 5.445,4.998 5.429,5.368 5.192,5.586 5.122,5.65 5.041,5.694 4.956,5.718 4.592,5.822 4.364,5.973 4.267,6.149 4.197,6.276 4.193,6.437 4.253,6.618 c 0.083,0.248 0.276,0.527 0.579,0.813 0.943,0.893 2.813,1.742 5.587,2.035 0.78,0.082 1.568,0.129 2.339,0.176 3.662,0.22 6.973,0.42 9.125,4.147 2.253,3.902 1.95,8.784 1.634,13.872 -0.111,1.789 -0.224,3.604 -0.224,5.428 0,0.316 -0.25,0.573 -0.563,0.585 -0.084,0.009 -0.161,0.031 -0.229,0.067 -0.169,0.087 -0.311,0.261 -0.409,0.516 -0.121,0.316 -0.173,0.742 -0.132,1.276 0.07,0.924 0.42,2.118 1.159,3.55 0.087,0.168 0.084,0.36 0.009,0.519 h 0.001 c -0.321,0.674 -0.511,1.34 -0.444,1.973 0.066,0.617 0.384,1.235 1.076,1.847 0.198,0.175 0.248,0.454 0.143,0.682 -0.326,0.709 -0.43,1.649 -0.088,2.517 0.273,0.692 0.839,1.345 1.817,1.809 0.292,0.137 0.417,0.486 0.279,0.778 l -0.003,0.007 c -0.133,0.343 0.008,0.781 0.299,1.159 0.17,0.219 0.391,0.415 0.644,0.559 0.244,0.14 0.512,0.23 0.785,0.245 0.511,0.028 1.068,-0.214 1.553,-0.895 0.187,-0.263 0.552,-0.325 0.815,-0.138 0.122,0.087 0.2,0.212 0.231,0.348 0.08,0.399 0.357,0.806 0.678,1.052 0.362,0.277 0.818,0.42 1.281,0.428 0.462,-0.008 0.918,-0.151 1.281,-0.428 0.318,-0.245 0.566,-0.599 0.68,-1.061 0.076,-0.313 0.391,-0.506 0.705,-0.43 0.141,0.034 0.26,0.118 0.338,0.229 0.486,0.681 1.043,0.923 1.553,0.895 0.273,-0.015 0.541,-0.105 0.786,-0.245 0.252,-0.144 0.473,-0.339 0.643,-0.559 0.299,-0.387 0.439,-0.838 0.289,-1.185 -0.125,-0.289 0.004,-0.625 0.286,-0.758 L 38.755,48.43 c 0.98,-0.464 1.545,-1.117 1.818,-1.809 0.342,-0.868 0.238,-1.808 -0.089,-2.517 -0.115,-0.251 -0.038,-0.541 0.17,-0.705 0.674,-0.604 0.985,-1.215 1.05,-1.824 0.068,-0.633 -0.122,-1.299 -0.443,-1.973 -0.088,-0.183 -0.071,-0.389 0.026,-0.552 0.728,-1.417 1.073,-2.6 1.143,-3.517 0.04,-0.534 -0.012,-0.96 -0.134,-1.276 -0.097,-0.255 -0.239,-0.429 -0.407,-0.516 -0.075,-0.039 -0.158,-0.062 -0.25,-0.068 -0.307,-0.023 -0.542,-0.28 -0.541,-0.584 -10e-4,-2.023 -10e-4,-2.28 0,-2.166 -0.008,-8.486 10e-4,-13.095 1.653,-19.262 L 42.898,11.12 C 43.219,9.939 43.469,9.022 43.357,8.729 43.077,7.986 42.407,8.394 42.405,8.395 42.125,8.555 41.77,8.458 41.609,8.179 41.528,8.038 41.513,7.877 41.553,7.731 h -10e-4 c 0.004,-0.016 1.585,-5.623 1.06,-7.967 -0.244,-1.089 -1.031,0.18 -1.033,0.183 -0.171,0.274 -0.533,0.358 -0.806,0.188 -0.19,-0.119 -0.289,-0.329 -0.274,-0.538 0.1,-1.386 -0.247,-2.82 -0.917,-4.198 -0.733,-1.505 -1.851,-2.94 -3.201,-4.17 -0.814,-0.746 -1.711,-1.415 -2.654,-1.98 -0.709,-0.425 -1.446,-0.792 -2.196,-1.089 -0.384,-0.083 -0.769,-0.167 -1.153,-0.25 -0.053,-0.561 -0.073,-1.026 -0.081,-1.349 -0.079,-3.178 0.662,-4.744 0.755,-6.711 0.006,-0.129 0.047,-0.623 0.214,-1.246 0.102,-0.383 0.242,-0.734 0.417,-0.944 0.287,-0.346 0.68,-0.654 1.126,-0.906 0.673,-0.381 1.481,-0.644 2.223,-0.727 0.815,-0.09 1.58,0.035 2.079,0.447 v 0.004 c 0.145,0.12 0.268,0.263 0.363,0.429 0.6,1.061 0.18,1.561 -0.379,2.226 -0.249,0.295 -0.54,0.642 -0.684,1.139 -0.341,1.179 0.421,3.506 0.577,3.963 3.128,3.548 4.065,10.872 4.189,11.963 0.217,0.635 0.368,1.278 0.447,1.921 0.724,-0.588 1.644,-0.765 2.126,1.393 0.444,1.976 -0.378,5.777 -0.819,7.563 0.54,0.002 1.15,0.262 1.52,1.241 0.246,0.652 -0.046,1.727 -0.423,3.11 l -0.147,0.537 c -1.629,6.082 -1.625,10.655 -1.616,19.177 0.002,1.694 0.003,-0.185 0.004,1.491 0.052,0.021 0.104,0.045 0.154,0.071 0.423,0.218 0.757,0.602 0.963,1.138 0.183,0.476 0.265,1.074 0.211,1.78 -0.075,0.98 -0.41,2.2 -1.099,3.621 1.502,-0.262 2.775,0.071 3.755,0.728 1.039,0.694 1.741,1.752 2.035,2.848 0.02,0.076 0.038,0.149 0.052,0.22 0.272,1.24 0.073,2.516 -0.426,3.384 -0.244,0.422 -0.56,0.759 -0.935,0.966 -0.409,0.227 -0.872,0.302 -1.369,0.177 -0.669,-0.169 -1.39,-0.714 -2.093,-1.773 -0.272,-0.409 -0.642,-0.782 -1.095,-1.031 -0.177,-0.098 -0.369,-0.177 -0.572,-0.232 0.17,0.789 0.144,1.677 -0.188,2.518 -0.33,0.838 -0.955,1.625 -1.978,2.216 0.071,0.625 -0.157,1.281 -0.578,1.826 -0.265,0.341 -0.604,0.641 -0.987,0.862 -0.392,0.224 -0.837,0.37 -1.302,0.395 -0.642,0.036 -1.306,-0.151 -1.912,-0.661 -0.196,0.313 -0.441,0.576 -0.72,0.79 -0.566,0.433 -1.271,0.656 -1.981,0.666 h -0.016 c -0.71,-0.01 -1.417,-0.232 -1.984,-0.666 -0.279,-0.214 -0.524,-0.477 -0.72,-0.79 -0.605,0.51 -1.27,0.697 -1.911,0.661 -0.466,-0.025 -0.91,-0.171 -1.302,-0.395 -0.384,-0.221 -0.723,-0.521 -0.987,-0.862 -0.421,-0.545 -0.651,-1.201 -0.579,-1.826 -1.023,-0.591 -1.648,-1.378 -1.978,-2.216 -0.331,-0.841 -0.358,-1.729 -0.187,-2.518 -0.198,0.054 -0.384,0.13 -0.558,0.224 -0.459,0.248 -0.834,0.625 -1.11,1.039 -0.702,1.059 -1.423,1.604 -2.092,1.773 -0.498,0.125 -0.961,0.05 -1.37,-0.177 -0.375,-0.207 -0.692,-0.544 -0.934,-0.966 -0.499,-0.868 -0.698,-2.144 -0.428,-3.384 0.016,-0.075 0.035,-0.151 0.056,-0.229 0.296,-1.094 0.998,-2.149 2.035,-2.842 0.981,-0.655 2.253,-0.987 3.753,-0.725 -0.69,-1.421 -1.025,-2.641 -1.099,-3.621 -0.054,-0.706 0.027,-1.304 0.21,-1.78 0.206,-0.536 0.541,-0.92 0.963,-1.138 0.051,-0.027 0.104,-0.051 0.157,-0.072 0.017,-1.67 0.123,-3.365 0.226,-5.037 C 22.655,22.679 22.948,17.966 20.872,14.37 19.036,11.19 16.022,11.009 12.69,10.809 11.911,10.762 11.116,10.714 10.3,10.628 7.241,10.305 5.129,9.321 4.027,8.278 3.584,7.858 3.289,7.415 3.146,6.984 2.979,6.485 3.01,6.005 3.242,5.586 3.377,5.34 3.578,5.124 3.844,4.946 3.634,4.687 3.434,4.419 3.245,4.146 3.192,4.159 3.139,4.171 3.085,4.183 2.172,4.38 1.006,4.441 0,4.251 -1.125,4.039 -2.073,3.514 -2.382,2.527 -2.401,2.465 -2.418,2.405 -2.43,2.345 -2.717,1.021 -2.111,0.405 -1.483,0.118 -2.15,-0.68 -3.003,-1.968 -2.716,-3.081"
             style="fill:#000000;fill-opacity:1;fill-rule:nonzero;stroke:none"
             id="path90" /></g><g
           id="g92"
           transform="translate(71.6396,84.6055)"><path
             d="m 0,0 c -9.824,0 -7.43,8.843 -6.557,11.341 0.906,-0.475 2.161,-0.42 3.253,0.741 0.472,-0.599 1.131,-1.026 1.842,-1.259 0.429,-0.139 0.881,-0.209 1.326,-0.204 0.453,0.005 0.899,0.089 1.308,0.256 0.454,0.187 0.861,0.474 1.18,0.869 0.326,-0.357 0.718,-0.619 1.149,-0.787 0.413,-0.162 0.86,-0.235 1.311,-0.221 0.45,0.013 0.901,0.112 1.324,0.294 0.158,0.068 0.307,0.149 0.445,0.24 C 7.473,8.683 9.736,0 0,0 m 7.475,12.236 c 0.246,0.472 0.298,0.989 0.087,1.435 C 7.265,12.909 6.283,12.368 5.674,12.105 5.381,11.98 5.076,11.912 4.78,11.903 4.485,11.894 4.194,11.941 3.927,12.046 3.47,12.225 3.076,12.579 2.847,13.114 2.719,13.411 2.374,13.548 2.077,13.421 1.909,13.349 1.794,13.207 1.746,13.045 1.562,12.5 1.186,12.143 0.728,11.955 0.457,11.845 0.158,11.79 -0.149,11.786 c -0.315,-0.004 -0.638,0.048 -0.951,0.149 -0.695,0.228 -1.312,0.708 -1.592,1.395 -0.123,0.299 -0.465,0.441 -0.763,0.319 -0.117,-0.049 -0.21,-0.13 -0.273,-0.229 -0.003,-0.008 -2.113,-2.481 -3.908,0.545 -0.27,-0.604 -0.176,-1.242 0.149,-1.766 C -8.191,10.377 -12.173,-1.172 0,-1.172 c 12.264,0 8.133,11.718 7.475,13.408"
             style="fill:#000000;fill-opacity:1;fill-rule:nonzero;stroke:none"
             id="path94" /></g><g
           id="g96"
           transform="translate(78.2217,95.876)"><path
             d="m 0,0 c 0.89,-2.588 3.154,-11.271 -6.582,-11.271 -9.824,0 -7.429,8.843 -6.557,11.341 0.905,-0.474 2.161,-0.419 3.254,0.742 0.472,-0.599 1.129,-1.026 1.842,-1.259 0.427,-0.14 0.88,-0.21 1.326,-0.204 0.451,0.005 0.898,0.089 1.306,0.256 0.456,0.187 0.863,0.474 1.181,0.868 0.325,-0.356 0.719,-0.618 1.149,-0.786 0.414,-0.162 0.861,-0.235 1.311,-0.222 0.45,0.014 0.901,0.113 1.324,0.295 C -0.288,-0.172 -0.139,-0.091 0,0"
             style="fill:#ffd7a6;fill-opacity:1;fill-rule:nonzero;stroke:none"
             id="path98" /></g><g
           id="g100"
           transform="translate(74.4414,87.7773)"><path
             d="m 0,0 c -0.142,-0.645 -0.485,-1.232 -0.985,-1.65 -0.48,-0.4 -1.098,-0.648 -1.817,-0.648 -0.719,0 -1.341,0.25 -1.821,0.654 -0.488,0.411 -0.826,0.98 -0.971,1.605 -0.323,0.405 -0.293,0.861 0.189,1.251 0.137,-0.486 0.408,-0.823 0.72,-1.016 0.156,-0.097 0.321,-0.158 0.484,-0.183 0.156,-0.025 0.31,-0.017 0.452,0.022 0.188,0.054 0.353,0.168 0.461,0.341 0.043,0.07 0.065,0.161 0.077,0.251 0.016,0.131 0.014,0.217 0.007,0.233 -0.022,0.045 -0.238,0.067 -0.491,0.177 -0.21,0.091 -0.417,0.181 -0.564,0.266 -0.128,0.073 -0.232,0.163 -0.309,0.26 -0.099,0.121 -0.159,0.257 -0.179,0.396 -0.022,0.154 0.006,0.308 0.087,0.449 v 10e-4 c 0.044,0.076 0.105,0.148 0.182,0.212 l 0.014,0.008 c 0.091,0.068 0.202,0.09 0.308,0.069 0.321,0.04 0.83,0.059 1.329,0.059 0.771,0 1.59,-0.047 1.701,-0.136 C -1.05,2.559 -0.988,2.487 -0.943,2.408 -0.861,2.267 -0.834,2.113 -0.856,1.959 -0.876,1.82 -0.937,1.684 -1.034,1.563 -1.112,1.466 -1.217,1.376 -1.345,1.303 -1.49,1.218 -1.697,1.128 -1.907,1.037 -2.161,0.927 -2.377,0.905 -2.398,0.86 -2.405,0.845 -2.407,0.758 -2.392,0.627 -2.38,0.538 -2.357,0.446 -2.314,0.376 c 0.108,-0.173 0.272,-0.287 0.46,-0.341 0.142,-0.04 0.295,-0.047 0.453,-0.022 0.163,0.025 0.328,0.086 0.483,0.183 0.312,0.193 0.583,0.53 0.72,1.016 C 0.254,0.921 0.3,0.432 0,0 m -1.641,-1.168 c -0.108,0.074 -0.226,0.139 -0.352,0.191 -0.24,0.1 -0.511,0.156 -0.809,0.156 -0.298,0 -0.569,-0.057 -0.811,-0.158 -0.125,-0.053 -0.241,-0.116 -0.35,-0.19 0.319,-0.218 0.713,-0.348 1.161,-0.348 0.448,0 0.843,0.131 1.161,0.349"
             style="fill:#000000;fill-opacity:1;fill-rule:nonzero;stroke:none"
             id="path102" /></g><g
           id="g104"
           transform="translate(77.0195,92.2803)"><path
             d="m 0,0 c 0.051,-0.21 0.261,-0.34 0.471,-0.29 0.21,0.05 0.34,0.26 0.29,0.47 -0.001,0.005 -0.419,1.908 -1.813,2.029 -1.488,0.129 -1.736,-2.26 -1.737,-2.267 -0.024,-0.214 0.129,-0.407 0.344,-0.432 0.214,-0.024 0.406,0.13 0.431,0.344 0,0.004 0.176,1.639 0.895,1.577 C -0.303,1.36 -0.001,0.004 0,0"
             style="fill:#000000;fill-opacity:1;fill-rule:nonzero;stroke:none"
             id="path106" /></g><g
           id="g108"
           transform="translate(66.2603,92.2803)"><path
             d="m 0,0 c -0.05,-0.21 -0.26,-0.34 -0.47,-0.29 -0.21,0.05 -0.34,0.26 -0.29,0.47 0.001,0.005 0.419,1.908 1.812,2.029 C 2.54,2.338 2.788,-0.051 2.789,-0.058 2.814,-0.272 2.66,-0.465 2.446,-0.49 2.232,-0.514 2.039,-0.36 2.014,-0.146 2.014,-0.142 1.838,1.493 1.119,1.431 0.303,1.36 0.001,0.004 0,0"
             style="fill:#000000;fill-opacity:1;fill-rule:nonzero;stroke:none"
             id="path110" /></g><g
           id="g112"
           transform="translate(72.8008,86.6089)"><path
             d="m 0,0 c -0.319,-0.218 -0.713,-0.348 -1.16,-0.348 -0.449,0 -0.843,0.13 -1.162,0.347 0.108,0.074 0.224,0.138 0.349,0.19 0.243,0.102 0.514,0.159 0.813,0.159 0.297,0 0.567,-0.056 0.807,-0.157 C -0.228,0.139 -0.108,0.075 0,0"
             style="fill:#b81f40;fill-opacity:1;fill-rule:nonzero;stroke:none"
             id="path114" /></g><g
           id="g116"
           transform="translate(61.2339,63.7305)"><path
             d="m 0,0 c 0.824,-2.217 1.462,-3.93 -0.925,-6.237 -1.048,-1.015 -2.799,-1.608 -4.663,-1.702 -1.792,-0.093 -3.705,0.272 -5.205,1.165 -0.265,0.157 -0.516,0.337 -0.751,0.538 -1.083,0.919 -1.837,2.251 -2.137,3.655 -0.302,1.415 -0.147,2.911 0.588,4.147 0.137,0.231 0.295,0.455 0.474,0.665 0.052,0.062 0.12,0.103 0.192,0.123 1.202,0.34 2.474,0.357 3.77,0.376 2.42,0.035 4.928,0.069 6.992,2.361 0.144,0.16 0.391,0.174 0.551,0.029 C -1.019,5.035 -0.976,4.913 -0.987,4.795 -1.056,2.839 -0.492,1.322 0,0 m -8.648,1.952 c -0.448,-0.007 -0.893,-0.013 -1.33,-0.033 -0.135,-0.17 -0.258,-0.35 -0.37,-0.539 -0.553,-0.931 -0.827,-2.053 -0.754,-3.117 0.07,-1.042 0.475,-2.026 1.276,-2.705 0.146,-0.123 0.305,-0.238 0.478,-0.341 0.994,-0.591 2.272,-0.832 3.477,-0.77 1.227,0.062 2.363,0.437 3.021,1.073 1.46,1.412 1.019,2.648 0.471,4.186 -0.334,0.939 -0.705,1.977 -0.774,3.229 -0.375,-0.198 -0.756,-0.355 -1.14,-0.48 -0.194,-0.907 0.024,-1.809 0.221,-2.619 0.281,-1.161 0.524,-2.16 -0.31,-2.967 -0.409,-0.394 -1.078,-0.625 -1.783,-0.662 -0.669,-0.034 -1.386,0.105 -1.951,0.44 l -0.05,0.033 c -0.688,0.444 -1.004,1.459 -0.997,2.59 0.005,0.888 0.206,1.864 0.578,2.682 z m 3.527,0.282 C -5.973,2.052 -6.84,1.994 -7.703,1.97 -8.141,1.197 -8.38,0.181 -8.385,-0.733 c -0.006,-0.884 0.199,-1.648 0.644,-1.936 l 0.022,-0.013 c 0.43,-0.255 0.987,-0.359 1.514,-0.333 0.528,0.029 1.011,0.183 1.283,0.447 0.512,0.494 0.318,1.294 0.093,2.221 -0.191,0.788 -0.401,1.655 -0.292,2.581 m 3.365,1.67 c -0.208,-0.182 -0.418,-0.348 -0.63,-0.499 -0.009,-1.334 0.388,-2.447 0.742,-3.44 0.641,-1.798 1.157,-3.244 -0.666,-5.007 -0.794,-0.768 -2.116,-1.217 -3.521,-1.289 -1.347,-0.068 -2.785,0.206 -3.914,0.877 -0.211,0.125 -0.405,0.266 -0.584,0.416 -0.976,0.827 -1.467,2.008 -1.552,3.248 -0.082,1.221 0.23,2.504 0.862,3.567 l 0.038,0.064 c -0.382,-0.045 -0.756,-0.11 -1.119,-0.206 -0.119,-0.149 -0.226,-0.304 -0.322,-0.466 -0.63,-1.059 -0.759,-2.355 -0.496,-3.588 0.265,-1.243 0.927,-2.417 1.878,-3.223 0.201,-0.171 0.417,-0.326 0.644,-0.461 1.365,-0.812 3.118,-1.144 4.769,-1.059 1.686,0.086 3.251,0.604 4.162,1.485 2.02,1.953 1.46,3.458 0.736,5.406 -0.44,1.18 -0.934,2.51 -1.027,4.175"
             style="fill:#000000;fill-opacity:1;fill-rule:nonzero;stroke:none"
             id="path118" /></g><g
           id="g120"
           transform="translate(52.6484,65.6836)"><path
             d="m 0,0 c -0.372,-0.818 -0.573,-1.796 -0.578,-2.684 -0.007,-1.13 0.31,-2.145 0.998,-2.59 l 0.049,-0.032 c 0.566,-0.336 1.282,-0.473 1.951,-0.439 0.705,0.035 1.374,0.266 1.783,0.662 0.834,0.806 0.592,1.806 0.31,2.966 -0.196,0.809 -0.415,1.712 -0.221,2.62 0.385,0.124 0.765,0.28 1.14,0.478 0.07,-1.252 0.44,-2.291 0.774,-3.227 0.548,-1.538 0.989,-2.775 -0.471,-4.188 -0.657,-0.635 -1.793,-1.009 -3.02,-1.073 -1.205,-0.061 -2.484,0.181 -3.478,0.772 -0.173,0.101 -0.332,0.215 -0.477,0.339 -0.802,0.679 -1.206,1.663 -1.277,2.706 -0.072,1.063 0.201,2.186 0.754,3.118 0.112,0.187 0.236,0.368 0.37,0.538 0.438,0.02 0.882,0.026 1.33,0.032 z"
             style="fill:#aaaaaa;fill-opacity:1;fill-rule:nonzero;stroke:none"
             id="path122" /></g><g
           id="g124"
           transform="translate(52.6484,65.6836)"><path
             d="m 0,0 c -0.372,-0.818 -0.573,-1.796 -0.578,-2.684 -0.007,-1.13 0.31,-2.145 0.998,-2.59 l 0.049,-0.032 c 0.566,-0.336 1.282,-0.473 1.951,-0.439 0.705,0.035 1.374,0.266 1.783,0.662 0.834,0.806 0.592,1.806 0.31,2.966 -0.196,0.809 -0.415,1.712 -0.221,2.62 0.231,0.073 0.46,0.16 0.687,0.26 0.1,-1.056 0.413,-2.409 0.676,-3.147 C 6.13,-3.716 6.512,-4.786 5.247,-6.009 4.678,-6.56 3.694,-6.884 2.632,-6.937 c -1.043,-0.054 -2.151,0.155 -3.011,0.666 -0.15,0.089 -0.288,0.189 -0.414,0.294 -0.693,0.589 -1.044,1.441 -1.105,2.343 -0.063,0.921 0.371,2.35 0.85,3.155 0.097,0.164 0.204,0.32 0.32,0.466 0.221,0.005 0.443,0.008 0.665,0.011 z"
             style="fill:#47a0b5;fill-opacity:1;fill-rule:nonzero;stroke:none"
             id="path126" /></g><g
           id="g128"
           transform="translate(56.1133,65.9648)"><path
             d="m 0,0 c -0.11,-0.927 0.101,-1.794 0.292,-2.582 0.225,-0.927 0.418,-1.726 -0.094,-2.222 -0.272,-0.261 -0.755,-0.418 -1.282,-0.445 -0.527,-0.026 -1.085,0.078 -1.515,0.333 l -0.022,0.014 c -0.445,0.287 -0.649,1.051 -0.644,1.934 0.006,0.914 0.245,1.93 0.682,2.703 C -1.72,-0.241 -0.853,-0.183 0,0"
             style="fill:#ffa62b;fill-opacity:1;fill-rule:nonzero;stroke:none"
             id="path130" /></g><g
           id="g132"
           transform="translate(59.4775,67.6348)"><path
             d="m 0,0 c 0.093,-1.665 0.588,-2.995 1.027,-4.176 0.724,-1.946 1.284,-3.452 -0.736,-5.405 -0.911,-0.88 -2.476,-1.399 -4.162,-1.485 -1.651,-0.084 -3.404,0.247 -4.769,1.058 -0.227,0.136 -0.443,0.29 -0.644,0.462 -0.95,0.806 -1.613,1.98 -1.878,3.223 -0.263,1.233 -0.134,2.529 0.496,3.589 0.096,0.161 0.203,0.317 0.323,0.465 0.362,0.095 0.736,0.161 1.118,0.206 l -0.038,-0.064 c -0.632,-1.063 -0.944,-2.348 -0.861,-3.566 0.084,-1.243 0.575,-2.421 1.551,-3.249 0.179,-0.152 0.373,-0.291 0.584,-0.416 1.129,-0.671 2.567,-0.947 3.914,-0.877 1.405,0.072 2.727,0.521 3.521,1.289 1.823,1.762 1.307,3.209 0.666,5.008 -0.354,0.993 -0.751,2.106 -0.742,3.44 C -0.417,-0.35 -0.207,-0.184 0,0"
             style="fill:#aaaaaa;fill-opacity:1;fill-rule:nonzero;stroke:none"
             id="path134" /></g><g
           id="g136"
           transform="translate(49.5542,65.4629)"><path
             d="M 0,0 C 0.229,0.046 0.463,0.08 0.699,0.108 L 0.66,0.045 c -0.632,-1.064 -0.944,-2.348 -0.861,-3.566 0.084,-1.243 0.576,-2.421 1.551,-3.25 0.179,-0.151 0.374,-0.291 0.584,-0.416 1.13,-0.67 2.568,-0.946 3.915,-0.876 1.404,0.072 2.726,0.521 3.521,1.289 1.823,1.762 1.307,3.209 0.666,5.007 C 9.682,-0.773 9.285,0.34 9.294,1.674 9.403,1.751 9.512,1.831 9.62,1.918 9.734,0.409 10.223,-1.007 10.622,-2.08 11.306,-3.918 11.834,-5.339 9.928,-7.182 9.068,-8.014 7.592,-8.502 6,-8.583 c -1.558,-0.08 -3.212,0.232 -4.501,0.998 -0.214,0.129 -0.417,0.274 -0.608,0.436 -0.896,0.76 -1.521,1.869 -1.772,3.042 -0.248,1.164 -0.126,2.386 0.469,3.386 C -0.352,-0.619 -0.157,-0.267 0,0"
             style="fill:#47a0b5;fill-opacity:1;fill-rule:nonzero;stroke:none"
             id="path138" /></g><g
           id="g140"
           transform="translate(61.1846,42.3506)"><path
             d="M 0,0 C 1.61,-0.131 3.462,-0.18 5.504,-0.054 7.198,0.051 8.741,0.258 10.109,0.51"
             style="fill:#f4f4f4;fill-opacity:1;fill-rule:nonzero;stroke:#000000;stroke-width:1.15;stroke-linecap:butt;stroke-linejoin:miter;stroke-miterlimit:10;stroke-dasharray:none;stroke-opacity:1"
             id="path142" /></g><g
           id="g144"
           transform="translate(74.5459,56.6826)"><path
             d="m 0,0 c 1.152,-0.269 3.187,-0.578 5.293,0.304 1.742,0.73 2.754,1.861 3.33,2.531 2.419,2.82 2.689,6.179 2.717,7.548 1.264,-0.641 2.768,-0.379 3.658,0.595 1.027,1.124 0.847,2.772 0.218,3.709 -1.084,1.615 -3.646,1.329 -4.8,1.199 C 9.562,15.791 8.57,15.68 7.58,15.014 5.393,13.543 5.745,11.073 3.859,10.266 3.072,9.93 2.26,10.038 1.684,10.189"
             style="fill:#f4f4f4;fill-opacity:1;fill-rule:nonzero;stroke:none"
             id="path146" /></g><g
           id="g148"
           transform="translate(74.5459,56.6826)"><path
             d="m 0,0 c 1.557,0.247 2.919,0.1 4.26,0.521 1.315,0.405 2.497,1.184 3.449,2.194 0.966,1.039 1.749,2.205 2.248,3.531 0.509,1.313 0.769,2.73 0.808,4.15 l 0.025,0.916 0.811,-0.416 c 0.752,-0.383 1.688,-0.365 2.391,0.047 0.714,0.404 1.132,1.175 1.104,2.006 -0.011,0.41 -0.113,0.834 -0.303,1.183 -0.189,0.344 -0.454,0.602 -0.809,0.79 -0.71,0.379 -1.678,0.428 -2.63,0.366 C 10.883,15.256 10.357,15.193 9.886,15.128 9.415,15.06 8.982,14.952 8.584,14.778 7.785,14.418 7.138,13.836 6.676,13.039 6.181,12.264 5.926,11.187 4.988,10.278 4.517,9.851 3.902,9.547 3.286,9.542 2.672,9.54 2.096,9.749 1.684,10.189 c 1.136,0.337 1.879,0.474 2.457,0.997 0.562,0.533 0.841,1.538 1.38,2.512 0.527,0.989 1.423,1.904 2.513,2.349 0.541,0.234 1.112,0.366 1.653,0.441 0.542,0.071 1.032,0.127 1.581,0.162 1.069,0.058 2.238,0.029 3.35,-0.569 0.547,-0.296 1.036,-0.789 1.32,-1.352 0.286,-0.558 0.415,-1.159 0.419,-1.769 C 16.392,11.738 15.684,10.466 14.581,9.892 13.496,9.288 12.146,9.314 11.08,9.87 l 0.836,0.501 C 11.886,8.827 11.616,7.281 11.064,5.822 10.529,4.362 9.65,3.004 8.58,1.889 7.507,0.735 6.096,-0.14 4.546,-0.522 3.019,-0.9 1.322,-0.924 0,0"
             style="fill:#000000;fill-opacity:1;fill-rule:nonzero;stroke:none"
             id="path150" /></g><g
           id="g152"
           transform="translate(78.0996,66.8467)"><path
             d="m 0,0 c 0.533,0.03 2.151,0.055 3.644,-1.037 2.426,-1.777 2.28,-4.87 2.264,-5.106 0.621,2.01 1.242,4.021 1.863,6.032 1.567,-0.243 3.056,0.329 3.783,1.469 0.56,0.883 0.794,2.306 0.108,3.164 C 11.233,5.061 10.58,5.207 10.135,5.286 7.616,5.735 4.727,5.291 3.078,4.96 3.085,4.613 3.063,4.123 2.928,3.557 2.621,2.285 1.944,1.486 1.793,1.312 1.15,0.576 0.437,0.191 0,0"
             style="fill:#000000;fill-opacity:1;fill-rule:nonzero;stroke:none"
             id="path154" /></g><g
           id="g156"
           transform="translate(105.4063,85.479)"><path
             d="m 0,0 c 0,-5.108 -4.141,-9.249 -9.249,-9.249 -5.107,0 -9.249,4.141 -9.249,9.249 0,5.108 4.142,9.249 9.249,9.249 C -4.141,9.249 0,5.108 0,0"
             style="fill:#f4f4f4;fill-opacity:1;fill-rule:nonzero;stroke:none"
             id="path158" /></g><g
           id="g160"
           transform="translate(105.4063,85.479)"><path
             d="m 0,0 c 0,-5.108 -4.141,-9.249 -9.249,-9.249 -5.107,0 -9.249,4.141 -9.249,9.249 0,5.108 4.142,9.249 9.249,9.249 C -4.141,9.249 0,5.108 0,0 Z"
             style="fill:none;stroke:#000000;stroke-width:1.15;stroke-linecap:butt;stroke-linejoin:miter;stroke-miterlimit:10;stroke-dasharray:none;stroke-opacity:1"
             id="path162" /></g></g></g><text
       transform="matrix(1,0,0,-1,94.5171,80.6484)"
       style="font-variant:normal;font-weight:normal;font-stretch:normal;font-size:15.7698px;font-family:Calibri;-inkscape-font-specification:Calibri;writing-mode:lr-tb;fill:#000000;fill-opacity:1;fill-rule:nonzero;stroke:none"
       id="text166"><tspan
         x="0"
         y="0"
         id="tspan164">i</tspan></text></g></svg>
