<svg id="Original" xmlns="http://www.w3.org/2000/svg" viewBox="0 0 141.73 141.73"><g id="Schattierung"><g id="Weiß"><path d="M62.47,93A26.78,26.78,0,0,0,64.68,100a6.78,6.78,0,0,0,3,3.29c1.33.56,2.31-.68,3-2.53a31.23,31.23,0,0,0,1.56-7.11,4.25,4.25,0,0,1,.52,2.19,26.89,26.89,0,0,0,6.08-1,15.13,15.13,0,0,0,4.83-2.34c-.42,1.73-2,2.61-3.55,3.15a17.17,17.17,0,0,0,1,2.45,11,11,0,0,0,1.8,2.59,4.35,4.35,0,0,0,1.47,1.09,1.79,1.79,0,0,0,1,.13,1.82,1.82,0,0,0,.92-.51,4.91,4.91,0,0,0,1.1-1.73c1.29-3.14,1.78-8.38,2-10.87,0-.44.08-.81.1-1a.58.58,0,0,1,.64-.52l.11,0a1.14,1.14,0,0,0,.75,0,.91.91,0,0,0,.43-.63,4.29,4.29,0,0,0,0-1.61,12.3,12.3,0,0,0-3-6.1.59.59,0,0,1,.27-1,1.11,1.11,0,0,0,.69-.43.58.58,0,0,0,0-.47,2.16,2.16,0,0,0-.58-.81,9.69,9.69,0,0,0-5.59-2c-.78-.08-1.57-.13-2.34-.18-3.66-.22-7-.41-9.12-4.14-2.26-3.91-2-8.79-1.64-13.88.12-1.78.23-3.6.23-5.42a.59.59,0,0,1,.56-.59.86.86,0,0,0,.23-.06,1,1,0,0,0,.41-.52,3,3,0,0,0,.13-1.28,9.68,9.68,0,0,0-1.16-3.55.59.59,0,0,1,0-.52h0a3.82,3.82,0,0,0,.45-2A2.93,2.93,0,0,0,70,40.37a.57.57,0,0,1-.14-.68,3.24,3.24,0,0,0,.08-2.51,3.35,3.35,0,0,0-1.81-1.81.59.59,0,0,1-.28-.78h0a1.27,1.27,0,0,0-.3-1.16,2.31,2.31,0,0,0-.64-.56,1.73,1.73,0,0,0-.79-.24,1.79,1.79,0,0,0-1.55.89.57.57,0,0,1-.81.14.56.56,0,0,1-.24-.35,1.85,1.85,0,0,0-.67-1,2.14,2.14,0,0,0-2.57,0,2,2,0,0,0-.68,1.06.57.57,0,0,1-.7.43.58.58,0,0,1-.34-.23,1.67,1.67,0,0,0-2.34-.65,2.31,2.31,0,0,0-.64.56,1.24,1.24,0,0,0-.29,1.19.58.58,0,0,1-.29.76h0a3.38,3.38,0,0,0-1.81,1.81,3.24,3.24,0,0,0,.09,2.51.62.62,0,0,1-.17.71A2.79,2.79,0,0,0,52,42.22a3.71,3.71,0,0,0,.44,2,.59.59,0,0,1,0,.56,9.69,9.69,0,0,0-1.14,3.51,3,3,0,0,0,.13,1.28,1,1,0,0,0,.41.52.71.71,0,0,0,.25.06.59.59,0,0,1,.54.59v2c0,8.6,0,13.23-1.65,19.45l-.15.54a7.12,7.12,0,0,0-.46,2.39.63.63,0,0,0,1,.33.59.59,0,0,1,.85.66h0s-1.59,5.62-1.06,8c.24,1.09,1-.18,1-.18a.58.58,0,0,1,.81-.19.58.58,0,0,1,.27.54,8.33,8.33,0,0,0,.92,4.2,14.15,14.15,0,0,0,3.2,4.17,17.09,17.09,0,0,0,2.65,2,16.06,16.06,0,0,0,2.2,1.09A5.14,5.14,0,0,1,62.47,93Z" style="fill:#f4f4f4"/><path d="M54.26,90.89c.72,3.33,2.19,8,5,9.16A1.5,1.5,0,0,0,61,99.76a6.5,6.5,0,0,0,1.43-2.57h0A2,2,0,0,1,62.4,97a15.6,15.6,0,0,1-3-1.41,17.78,17.78,0,0,1-2.84-2.12,17.57,17.57,0,0,1-2.28-2.54Z" style="fill:#fff"/><path d="M46.52,38.71a1.46,1.46,0,0,1,.38-.17c.78-.24,1.18.36,1.72,1.15a4,4,0,0,0,2.3,2,3.55,3.55,0,0,1,.59-1.27,3.87,3.87,0,0,1-.78-.32,4.36,4.36,0,0,1-1.51-1.41,2.79,2.79,0,0,0-1.4-1.28.7.7,0,0,0-.52.06,1.34,1.34,0,0,0-.49.53,2.39,2.39,0,0,0-.29.75Z" style="fill:#fff"/><path d="M72.11,41.65a4,4,0,0,0,2.31-2c.53-.79.93-1.39,1.71-1.15a1.46,1.46,0,0,1,.38.17,2.39,2.39,0,0,0-.29-.75,1.27,1.27,0,0,0-.49-.53.7.7,0,0,0-.52-.06,2.79,2.79,0,0,0-1.4,1.28,4.27,4.27,0,0,1-1.53,1.42,3.29,3.29,0,0,1-.75.31,3.7,3.7,0,0,1,.58,1.27Z" style="fill:#fff"/></g><g id="Schattierung-2" data-name="Schattierung"><path d="M88.52,78.21a.59.59,0,0,1,.23-.13,1.11,1.11,0,0,0,.69-.43.58.58,0,0,0,0-.47,2.16,2.16,0,0,0-.58-.81,9.69,9.69,0,0,0-5.59-2c-.78-.08-1.57-.13-2.34-.18-3.66-.22-7-.41-9.12-4.14-2.26-3.91-2-8.79-1.64-13.88.12-1.78.23-3.6.23-5.42a.59.59,0,0,1,.56-.59.86.86,0,0,0,.23-.06,1,1,0,0,0,.41-.52,3,3,0,0,0,.13-1.28,9.68,9.68,0,0,0-1.16-3.55.59.59,0,0,1,0-.52h0a3.82,3.82,0,0,0,.45-2c-1.76,0-7.35,5.09-7.57,6.41a51.41,51.41,0,0,0,.41,6.84s4.28-3.26,4.51,3.83S69.8,69.14,71,71.55s-.32,5-.14,6.88,1.69,4.8,5.88,5.18,7.24-1.2,8.35-2.63,1.08-3.49,1.52-3.75a1.34,1.34,0,0,1,2,1Z" style="fill:#aaa"/><path d="M70.7,43.92a3.51,3.51,0,0,0,.33-1.7A2.93,2.93,0,0,0,70,40.37a.57.57,0,0,1-.14-.68,3.24,3.24,0,0,0,.08-2.51,3.3,3.3,0,0,0-1.6-1.71,2.8,2.8,0,0,1-.69,4.42c-1.35.67-3.13-.71-3.13-.71a4.16,4.16,0,0,1-1.91,1.5c-1.26.47-2.75-.94-2.75-.94a4.68,4.68,0,0,1-3.75.64,3.17,3.17,0,0,1-1.85-4.57,3,3,0,0,0-1.07,1.37,3.24,3.24,0,0,0,.09,2.51.62.62,0,0,1-.17.71,2.6,2.6,0,0,0-1,2.68,1.6,1.6,0,0,1,2.27.94s1.67,2.52,2.4,2.34,10.62-1.07,12-2.08a1.94,1.94,0,0,1,2-.36Z" style="fill:#aaa"/><path d="M63.43,96.92A20.31,20.31,0,0,0,64.68,100a6.78,6.78,0,0,0,3,3.29c1.33.56,2.31-.68,3-2.53a23.58,23.58,0,0,0,1.09-4s-1.78,5-4.2,4.83S63.44,97,63.43,96.92Zm20.24-4.2c-.48,1.61-2,2.45-3.5,3a17.17,17.17,0,0,0,1,2.45,11,11,0,0,0,1.8,2.59,4.35,4.35,0,0,0,1.47,1.09,1.79,1.79,0,0,0,1,.13,1.82,1.82,0,0,0,.92-.51,4.91,4.91,0,0,0,1.1-1.73c1.29-3.14,1.78-8.38,2-10.87,0-.44.08-.81.1-1a.58.58,0,0,1,.64-.52l.11,0a1.14,1.14,0,0,0,.75,0,.91.91,0,0,0,.43-.63,4.29,4.29,0,0,0,0-1.61,12.2,12.2,0,0,0-2.44-5.39h0s1.66,2.79,1.67,4.61-1.29,1.06-2,1.7S87,99.45,85.07,98.54s-1.4-5.82-1.4-5.82Z" style="fill:#aaa"/><path d="M52.16,76.07s-1.59,5.62-1.06,8c.24,1.09,1-.18,1-.18a.58.58,0,0,1,.81-.19.58.58,0,0,1,.27.54,8.33,8.33,0,0,0,.92,4.2,14.15,14.15,0,0,0,3.2,4.17,17.09,17.09,0,0,0,2.65,2,16.06,16.06,0,0,0,2.2,1.09,5.8,5.8,0,0,1,.14-2.31h0a9.28,9.28,0,0,1-5.86-3.27c-2.87-3.13-2.46-7.61-2.52-8.37s-1.29,0-1.93-.33.15-5.29.15-5.29Z" style="fill:#aaa"/><path d="M92.46,87.55a1.79,1.79,0,0,1-.91.91,1.7,1.7,0,0,1-.55.13c.3.34.56.46.78.44a.65.65,0,0,0,.29-.11,1,1,0,0,0,.29-.3c.2-.3.3-.65.2-.8h0a.56.56,0,0,1-.1-.27Z" style="fill:#aaa"/><path d="M91.13,80.71A12.7,12.7,0,0,1,92.69,85a5.23,5.23,0,0,1,0,2.07v0a.58.58,0,0,1,.64-.12l.21.07a2.89,2.89,0,0,0,1.09.08.8.8,0,0,0,.66-.37v0a.61.61,0,0,0,0-.12c.25-1-1.36-2.58-1.59-2.79a.59.59,0,0,1-.21-.46.58.58,0,0,1,.58-.58s1.15,0,.92-1.06a.31.31,0,0,1,0-.08c-.16-.5-.76-.79-1.48-.93a7,7,0,0,0-2.37,0Z" style="fill:#aaa"/><path d="M54.26,90.89c.14.65.31,1.35.51,2.07,1.51,1.39,3.45,3.22,3.52,4.34a1.29,1.29,0,0,1-.89,1.29,4.82,4.82,0,0,0,1.85,1.46A1.5,1.5,0,0,0,61,99.76a6.5,6.5,0,0,0,1.43-2.57h0A2,2,0,0,1,62.4,97a15.6,15.6,0,0,1-3-1.41,17.78,17.78,0,0,1-2.84-2.12,17.57,17.57,0,0,1-2.28-2.54Z" style="fill:#aaa"/><path d="M73.75,97a6.44,6.44,0,0,0,.78.86,4.86,4.86,0,0,0,1.53,1,1.67,1.67,0,0,0,1.79-.31,5.62,5.62,0,0,0,1.32-2.1c0-.11-.07-.23-.11-.34a26.85,26.85,0,0,1-5.31.93Z" style="fill:#aaa"/><path d="M50.84,42.83a4.81,4.81,0,0,1-3.19-2.49c-.26-.38-.37-.69-.41-.68-.57.17-.5,1.31-.47,1.62a3.85,3.85,0,0,0,1.34,1.58,3.9,3.9,0,0,0,2.82.55,5.4,5.4,0,0,1-.09-.58Z" style="fill:#aaa"/><path d="M76.26,41.28c0-.31.1-1.45-.47-1.62,0,0-.15.3-.4.68a4.85,4.85,0,0,1-3.2,2.49,4,4,0,0,1-.09.59,3.91,3.91,0,0,0,2.82-.56,3.77,3.77,0,0,0,1.34-1.58Z" style="fill:#aaa"/></g></g><g id="Füße"><path d="M70.28,103.81a2.55,2.55,0,0,1-3,.6l-.5-.25a6.71,6.71,0,0,1,.12,3,4,4,0,0,1-.91,1.56c-.26.31-.46.55-.26.9a.52.52,0,0,0,.1.11,1.76,1.76,0,0,0,1.2.19,5,5,0,0,0,1.78-.58,3.31,3.31,0,0,0,.8-.64,1.78,1.78,0,0,0,.19-.5,6.12,6.12,0,0,0,.17-1c.08-1.08.22-2.27.35-3.33Z"/><path d="M61.84,100.55l-.07.07a2.57,2.57,0,0,1-3,.51,4.66,4.66,0,0,1-.5-.25,6.71,6.71,0,0,1,.12,3,4,4,0,0,1-.91,1.56c-.26.31-.46.55-.26.9l.09.11h0a1.7,1.7,0,0,0,1.2.19,5,5,0,0,0,1.78-.58,3.08,3.08,0,0,0,.8-.64,1.86,1.86,0,0,0,.18-.5,5.32,5.32,0,0,0,.18-1c.08-1.07.22-2.25.35-3.31Z"/><path d="M83.65,102.75a5.3,5.3,0,0,1,.09,2.52,3.62,3.62,0,0,1-.92,1.44l0,0c-.22.23-.37.41-.21.66a.1.1,0,0,0,0,.06,1.9,1.9,0,0,0,1.39.19,5.09,5.09,0,0,0,2-.69,2.54,2.54,0,0,0,.49-.39,1.51,1.51,0,0,0,.17-.42,5.46,5.46,0,0,0,.16-.91c.07-.94.2-2,.32-2.9a3.06,3.06,0,0,1-1.46.75,2.88,2.88,0,0,1-1.69-.2,2.41,2.41,0,0,1-.33-.15Z"/><path d="M75.16,99.68a5.28,5.28,0,0,1,.11,2.63,3.73,3.73,0,0,1-.91,1.45l0,0c-.21.23-.36.42-.2.67l0,.06a1.88,1.88,0,0,0,1.38.18,4.92,4.92,0,0,0,2-.69,2.14,2.14,0,0,0,.48-.39,1.25,1.25,0,0,0,.17-.42,4.7,4.7,0,0,0,.17-.9c.07-1,.2-2,.32-3l-.06.05a2.74,2.74,0,0,1-3,.52,4.25,4.25,0,0,1-.49-.21Z"/></g><path id="Kontur" d="M76.26,41.28c0-.31.1-1.45-.47-1.62,0,0-.15.3-.4.68a4.85,4.85,0,0,1-3.2,2.49,4,4,0,0,1-.09.59,3.91,3.91,0,0,0,2.82-.56,3.77,3.77,0,0,0,1.34-1.58Zm-4.15.37a4,4,0,0,0,2.31-2c.53-.79.93-1.39,1.71-1.15a1.46,1.46,0,0,1,.38.17,2.39,2.39,0,0,0-.29-.75,1.27,1.27,0,0,0-.49-.53.7.7,0,0,0-.52-.06,2.79,2.79,0,0,0-1.4,1.28,4.27,4.27,0,0,1-1.53,1.42,3.29,3.29,0,0,1-.75.31,3.7,3.7,0,0,1,.58,1.27ZM55.2,43.15c-.89,2.59-3.15,11.27,6.59,11.27s7.43-8.84,6.55-11.34a2.64,2.64,0,0,1-3.25-.74,3.84,3.84,0,0,1-1.84,1.26,4,4,0,0,1-1.33.2,3.54,3.54,0,0,1-1.3-.25,3,3,0,0,1-1.19-.87,2.93,2.93,0,0,1-1.15.79,3.41,3.41,0,0,1-1.31.22,3.79,3.79,0,0,1-1.32-.3,3.21,3.21,0,0,1-.45-.24ZM62.47,93A26.78,26.78,0,0,0,64.68,100a6.78,6.78,0,0,0,3,3.29c1.33.56,2.31-.68,3-2.53a31.23,31.23,0,0,0,1.56-7.11,4.25,4.25,0,0,1,.52,2.19,26.89,26.89,0,0,0,6.08-1,15.13,15.13,0,0,0,4.83-2.34c-.42,1.73-2,2.61-3.55,3.15a17.17,17.17,0,0,0,1,2.45,11,11,0,0,0,1.8,2.59,4.35,4.35,0,0,0,1.47,1.09,1.79,1.79,0,0,0,1,.13,1.82,1.82,0,0,0,.92-.51,4.91,4.91,0,0,0,1.1-1.73c1.29-3.14,1.78-8.38,2-10.87,0-.44.08-.81.1-1a.58.58,0,0,1,.64-.52l.11,0a1.14,1.14,0,0,0,.75,0,.91.91,0,0,0,.43-.63,4.29,4.29,0,0,0,0-1.61,12.3,12.3,0,0,0-3-6.1.59.59,0,0,1,.27-1,1.11,1.11,0,0,0,.69-.43.58.58,0,0,0,0-.47,2.16,2.16,0,0,0-.58-.81,9.69,9.69,0,0,0-5.59-2c-.78-.08-1.57-.13-2.34-.18-3.66-.22-7-.41-9.12-4.14-2.26-3.91-2-8.79-1.64-13.88.12-1.78.23-3.6.23-5.42a.59.59,0,0,1,.56-.59.86.86,0,0,0,.23-.06,1,1,0,0,0,.41-.52,3,3,0,0,0,.13-1.28,9.68,9.68,0,0,0-1.16-3.55.59.59,0,0,1,0-.52h0a3.82,3.82,0,0,0,.45-2A2.93,2.93,0,0,0,70,40.37a.57.57,0,0,1-.14-.68,3.24,3.24,0,0,0,.08-2.51,3.35,3.35,0,0,0-1.81-1.81.59.59,0,0,1-.28-.78h0a1.27,1.27,0,0,0-.3-1.16,2.31,2.31,0,0,0-.64-.56,1.73,1.73,0,0,0-.79-.24,1.79,1.79,0,0,0-1.55.89.57.57,0,0,1-.81.14.6.6,0,0,1-.24-.35,1.83,1.83,0,0,0-.67-1,2.14,2.14,0,0,0-2.57,0,2,2,0,0,0-.68,1.06.57.57,0,0,1-.7.43.58.58,0,0,1-.34-.23,1.67,1.67,0,0,0-2.34-.65,2.31,2.31,0,0,0-.64.56,1.24,1.24,0,0,0-.29,1.19.58.58,0,0,1-.29.76h0a3.38,3.38,0,0,0-1.81,1.81,3.24,3.24,0,0,0,.09,2.51.62.62,0,0,1-.17.71A2.79,2.79,0,0,0,52,42.22a3.71,3.71,0,0,0,.44,2,.59.59,0,0,1,0,.56,9.69,9.69,0,0,0-1.14,3.51,3,3,0,0,0,.13,1.28,1,1,0,0,0,.41.52.71.71,0,0,0,.25.06.59.59,0,0,1,.54.59v2c0,8.6,0,13.23-1.65,19.45l-.15.54a7.12,7.12,0,0,0-.46,2.39.63.63,0,0,0,1,.33.59.59,0,0,1,.85.66h0s-1.59,5.62-1.06,8c.24,1.09,1-.18,1-.18a.58.58,0,0,1,.81-.19.58.58,0,0,1,.27.54,8.33,8.33,0,0,0,.92,4.2,14.15,14.15,0,0,0,3.2,4.17,17.09,17.09,0,0,0,2.65,2,16.06,16.06,0,0,0,2.2,1.09A5.14,5.14,0,0,1,62.47,93Zm8.7-53.68a2.75,2.75,0,0,0,.56-.23,3.08,3.08,0,0,0,1.11-1,3.86,3.86,0,0,1,2.09-1.77,1.84,1.84,0,0,1,1.37.18,2.51,2.51,0,0,1,.94,1,5,5,0,0,1,.42,3.38c0,.07,0,.15,0,.23a5,5,0,0,1-5.79,3.57,10.41,10.41,0,0,1,1.1,3.62A4.23,4.23,0,0,1,72.71,50a2.06,2.06,0,0,1-1,1.13l-.16.08c0,1.67-.12,3.36-.23,5-.3,4.92-.6,9.63,1.48,13.23C74.68,72.61,77.69,72.79,81,73c.78,0,1.57.09,2.39.18a10.83,10.83,0,0,1,6.27,2.35,3.27,3.27,0,0,1,.89,1.29,1.74,1.74,0,0,1-.1,1.4,1.92,1.92,0,0,1-.6.64c.21.26.41.53.6.8l.16,0a8.35,8.35,0,0,1,3.08-.06,2.79,2.79,0,0,1,2.38,1.72,1.21,1.21,0,0,1,0,.18,1.76,1.76,0,0,1-1,2.23c.67.8,1.52,2.08,1.24,3.2a1.72,1.72,0,0,1-.11.3s0,0,0,.06a1.87,1.87,0,0,1-1.56,1,3.78,3.78,0,0,1-1,0,2.6,2.6,0,0,1-.39,1,2.32,2.32,0,0,1-.6.61,1.79,1.79,0,0,1-.88.31,1.94,1.94,0,0,1-1.28-.42c-.26,2.74-.78,7.33-2,10.31,0,.42-.12,1-.22,1.74-.14,1-.31,2.32-.39,3.51a5.9,5.9,0,0,1-.21,1.14,2.19,2.19,0,0,1-.43.88,3.59,3.59,0,0,1-.72.6,6.28,6.28,0,0,1-2.46.86,2.94,2.94,0,0,1-2.32-.48,1.81,1.81,0,0,1-.25-.3c-.63-1-.22-1.47.34-2.09l0,0a2.61,2.61,0,0,0,.66-1c.32-1-.41-3-.59-3.47a12.41,12.41,0,0,1-1.91-2.78L80,98.38l-.06.49c-.14,1.06-.31,2.32-.39,3.51a7.07,7.07,0,0,1-.21,1.15,2.49,2.49,0,0,1-.43.88,4.28,4.28,0,0,1-.72.59,6.28,6.28,0,0,1-2.46.86,2.93,2.93,0,0,1-2.32-.48,1.42,1.42,0,0,1-.25-.3c-.64-1-.23-1.47.34-2.08l0,0a2.77,2.77,0,0,0,.66-1c.3-1-.35-2.83-.56-3.4a8,8,0,0,1-.89-1,16.65,16.65,0,0,1-.89,3.68c0,.07,0,.13-.07.19,0,.45-.13,1.14-.23,1.92-.15,1.17-.33,2.57-.42,3.89a6.94,6.94,0,0,1-.21,1.25,2.91,2.91,0,0,1-.42,1,4.12,4.12,0,0,1-1.13.9,6,6,0,0,1-2.22.73A2.8,2.8,0,0,1,65,110.6a1.5,1.5,0,0,1-.36-.43c-.6-1.06-.18-1.56.38-2.23a2.93,2.93,0,0,0,.68-1.14c.34-1.15-.39-3.42-.57-3.93a11.43,11.43,0,0,1-1.53-2.29c-.15-.3-.32-.67-.49-1.11l-.07.58c-.15,1.17-.33,2.57-.42,3.9a6.92,6.92,0,0,1-.22,1.24,2.63,2.63,0,0,1-.41,1,4.12,4.12,0,0,1-1.13.9,6,6,0,0,1-2.22.73,2.76,2.76,0,0,1-2.08-.45h0a1.36,1.36,0,0,1-.36-.43c-.6-1.06-.18-1.56.38-2.23a3.06,3.06,0,0,0,.68-1.14c.34-1.17-.42-3.5-.58-4-3.13-3.55-4.06-10.87-4.19-12a9.5,9.5,0,0,1-.44-1.92c-.73.58-1.65.76-2.13-1.4-.44-2,.38-5.77.82-7.56a1.6,1.6,0,0,1-1.52-1.24c-.25-.65.05-1.73.42-3.11l.15-.54c1.63-6.08,1.62-10.65,1.62-19.17,0-1.7,0,.18,0-1.49l-.15-.08a2.07,2.07,0,0,1-1-1.13,4.23,4.23,0,0,1-.21-1.78,10.41,10.41,0,0,1,1.1-3.62A5,5,0,0,1,45.42,41a2.25,2.25,0,0,1-.05-.22,4.9,4.9,0,0,1,.43-3.38,2.49,2.49,0,0,1,.93-1,1.84,1.84,0,0,1,1.37-.18A3.86,3.86,0,0,1,50.19,38a3.32,3.32,0,0,0,1.1,1,3.57,3.57,0,0,0,.57.23A4.29,4.29,0,0,1,54,34.53a2.48,2.48,0,0,1,.58-1.82,3.38,3.38,0,0,1,1-.86,3,3,0,0,1,1.3-.4,2.73,2.73,0,0,1,1.92.66,3,3,0,0,1,.72-.79,3.34,3.34,0,0,1,2-.66h0a3.39,3.39,0,0,1,2,.66,3.2,3.2,0,0,1,.72.79,2.69,2.69,0,0,1,1.91-.66,3,3,0,0,1,1.3.4,3.55,3.55,0,0,1,1,.86A2.57,2.57,0,0,1,69,34.53a4.3,4.3,0,0,1,2.16,4.74Zm-1.9,2.95C70,44.05,74,55.6,61.79,55.6s-8.14-11.72-7.48-13.41a1.63,1.63,0,0,1-.09-1.44,3.56,3.56,0,0,0,1.89,1.57,2.66,2.66,0,0,0,.9.2,2.23,2.23,0,0,0,.85-.14,2,2,0,0,0,1.08-1.07.58.58,0,0,1,.77-.31.59.59,0,0,1,.33.38,1.76,1.76,0,0,0,1,1.09,2.55,2.55,0,0,0,.88.17,3.19,3.19,0,0,0,1-.15,2.54,2.54,0,0,0,1.59-1.4.58.58,0,0,1,.76-.32.56.56,0,0,1,.27.23s2.12,2.48,3.91-.54a1.83,1.83,0,0,1-.15,1.76ZM46.52,38.71a1.46,1.46,0,0,1,.38-.17c.78-.24,1.18.36,1.72,1.15a4,4,0,0,0,2.3,2,3.55,3.55,0,0,1,.59-1.27,3.87,3.87,0,0,1-.78-.32,4.36,4.36,0,0,1-1.51-1.41,2.79,2.79,0,0,0-1.4-1.28.7.7,0,0,0-.52.06,1.34,1.34,0,0,0-.49.53,2.39,2.39,0,0,0-.29.75Zm4.32,4.12a4.81,4.81,0,0,1-3.19-2.49c-.26-.38-.37-.69-.41-.68-.57.17-.5,1.31-.47,1.62a3.85,3.85,0,0,0,1.34,1.58,3.9,3.9,0,0,0,2.82.55,5.4,5.4,0,0,1-.09-.58ZM75.16,99.68a5.28,5.28,0,0,1,.11,2.63,3.73,3.73,0,0,1-.91,1.45l0,0c-.21.23-.36.42-.2.67l0,.06a1.88,1.88,0,0,0,1.38.18,4.92,4.92,0,0,0,2-.69,2.14,2.14,0,0,0,.48-.39,1.25,1.25,0,0,0,.17-.42,4.7,4.7,0,0,0,.17-.9c.07-1,.2-2,.32-3l-.06.05a2.74,2.74,0,0,1-3,.52,4.25,4.25,0,0,1-.49-.21ZM73.75,97a6.44,6.44,0,0,0,.78.86,4.86,4.86,0,0,0,1.53,1,1.67,1.67,0,0,0,1.79-.31,5.62,5.62,0,0,0,1.32-2.1c0-.11-.07-.23-.11-.34a26.85,26.85,0,0,1-5.31.93Zm9.9,5.77a5.3,5.3,0,0,1,.09,2.52,3.62,3.62,0,0,1-.92,1.44l0,0c-.22.23-.37.41-.21.66a.1.1,0,0,0,0,.06,1.9,1.9,0,0,0,1.39.19,5.09,5.09,0,0,0,2-.69,2.54,2.54,0,0,0,.49-.39,1.51,1.51,0,0,0,.17-.42,5.46,5.46,0,0,0,.16-.91c.07-.94.2-2,.32-2.9a3.06,3.06,0,0,1-1.46.75,2.88,2.88,0,0,1-1.69-.2,2.41,2.41,0,0,1-.33-.15ZM54.26,90.89c.72,3.33,2.19,8,5,9.16A1.5,1.5,0,0,0,61,99.76a6.5,6.5,0,0,0,1.43-2.57h0A2,2,0,0,1,62.4,97a15.6,15.6,0,0,1-3-1.41,17.78,17.78,0,0,1-2.84-2.12,17.57,17.57,0,0,1-2.28-2.54ZM91.13,80.71A12.7,12.7,0,0,1,92.69,85a5.23,5.23,0,0,1,0,2.07v0a.58.58,0,0,1,.64-.12l.21.07a2.89,2.89,0,0,0,1.09.08.8.8,0,0,0,.66-.37v0a.61.61,0,0,0,0-.12c.25-1-1.36-2.58-1.59-2.79a.59.59,0,0,1-.21-.46.58.58,0,0,1,.58-.58s1.15,0,.92-1.06a.31.31,0,0,1,0-.08c-.16-.5-.76-.79-1.48-.93a7,7,0,0,0-2.37,0Zm1.33,6.84a1.79,1.79,0,0,1-.91.91,1.7,1.7,0,0,1-.55.13c.3.34.56.46.78.44a.65.65,0,0,0,.29-.11,1,1,0,0,0,.29-.3c.2-.3.3-.65.2-.8h0a.56.56,0,0,1-.1-.27Zm-30.62,13-.07.07a2.57,2.57,0,0,1-3,.51,4.66,4.66,0,0,1-.5-.25,6.71,6.71,0,0,1,.12,3,4,4,0,0,1-.91,1.56c-.26.31-.46.55-.26.9l.09.11h0a1.7,1.7,0,0,0,1.2.19,5,5,0,0,0,1.78-.58,3.08,3.08,0,0,0,.8-.64,1.86,1.86,0,0,0,.18-.5,5.32,5.32,0,0,0,.18-1c.08-1.07.22-2.25.35-3.31Zm8.44,3.26a2.55,2.55,0,0,1-3,.6l-.5-.25a6.71,6.71,0,0,1,.12,3,4,4,0,0,1-.91,1.56c-.26.31-.46.55-.26.9a.52.52,0,0,0,.1.11,1.76,1.76,0,0,0,1.2.19,5,5,0,0,0,1.78-.58,3.31,3.31,0,0,0,.8-.64,1.78,1.78,0,0,0,.19-.5,6.12,6.12,0,0,0,.17-1c.08-1.08.22-2.27.35-3.33Z"/><g id="Gesicht"><path d="M55.2,43.15c-.89,2.59-3.15,11.27,6.59,11.27s7.43-8.84,6.55-11.34a2.64,2.64,0,0,1-3.25-.74,3.84,3.84,0,0,1-1.84,1.26,4,4,0,0,1-1.33.2,3.54,3.54,0,0,1-1.3-.25,3,3,0,0,1-1.19-.87,2.93,2.93,0,0,1-1.15.79,3.41,3.41,0,0,1-1.31.22,3.79,3.79,0,0,1-1.32-.3,3.21,3.21,0,0,1-.45-.24Z" style="fill:#ffd7a6"/><path d="M60.62,52.42a2,2,0,0,0,1.17.35A2,2,0,0,0,63,52.42a2.37,2.37,0,0,0-.35-.19,2.13,2.13,0,0,0-.81-.16,2.09,2.09,0,0,0-.81.16,2,2,0,0,0-.36.19ZM59,51.25a.8.8,0,0,1,.2-1.21,1.74,1.74,0,0,0,.72,1,1.53,1.53,0,0,0,.49.18,1.13,1.13,0,0,0,.45,0,.8.8,0,0,0,.46-.35.61.61,0,0,0,.08-.25.77.77,0,0,0,0-.23,4.65,4.65,0,0,0-.49-.18c-.21-.09-.41-.18-.56-.26a1,1,0,0,1-.31-.26.8.8,0,0,1-.18-.4.72.72,0,0,1,.09-.45.6.6,0,0,1,.18-.21,6.22,6.22,0,0,1,1.7-.14,12.18,12.18,0,0,1,1.33.06.38.38,0,0,1,.31.07h0a.7.7,0,0,1,.18.21h0a.66.66,0,0,1,.09.45.8.8,0,0,1-.18.4,1,1,0,0,1-.31.26c-.14.08-.35.17-.56.26s-.47.14-.49.18a1.07,1.07,0,0,0,.08.48.8.8,0,0,0,.46.35,1.17,1.17,0,0,0,.46,0,1.57,1.57,0,0,0,.48-.18,1.74,1.74,0,0,0,.72-1,.82.82,0,0,1,.19,1.25,3,3,0,0,1-1,1.6,2.76,2.76,0,0,1-1.82.66A2.8,2.8,0,0,1,60,52.9a3,3,0,0,1-1-1.65Z"/><path d="M56.41,46.75a.39.39,0,0,1-.76-.18s.41-1.91,1.81-2,1.73,2.26,1.74,2.27a.4.4,0,0,1-.35.43.39.39,0,0,1-.43-.35s-.18-1.63-.9-1.57-1.11,1.42-1.11,1.43Z"/><path d="M67.17,46.75a.39.39,0,1,0,.76-.18s-.42-1.91-1.82-2-1.73,2.26-1.73,2.27a.39.39,0,1,0,.77.08s.18-1.63.9-1.57,1.11,1.42,1.12,1.43Z"/><path d="M60.62,52.42a2,2,0,0,0,1.17.35A2,2,0,0,0,63,52.42a2.37,2.37,0,0,0-.35-.19,2.13,2.13,0,0,0-.81-.16,2.09,2.09,0,0,0-.81.16,2,2,0,0,0-.36.19Z" style="fill:#b81f40"/></g><g id="Sattel"><path d="M74,71.39a13.54,13.54,0,0,1-1,4.18c-.72,2-1.28,3.45.74,5.4a6.56,6.56,0,0,0,4.16,1.49,8.74,8.74,0,0,0,4.77-1.06,4.15,4.15,0,0,0,.64-.46,5.91,5.91,0,0,0,1.88-3.22,5,5,0,0,0-.5-3.59,3.55,3.55,0,0,0-.32-.47,8.19,8.19,0,0,0-1.12-.2l0,.06a6.23,6.23,0,0,1,.86,3.57,4.56,4.56,0,0,1-1.55,3.25,4,4,0,0,1-.58.41,7.13,7.13,0,0,1-3.92.88,5.56,5.56,0,0,1-3.52-1.29c-1.82-1.76-1.31-3.21-.66-5a9.75,9.75,0,0,0,.74-3.44,6.88,6.88,0,0,1-.63-.5Zm3.36,1.67A7.27,7.27,0,0,1,77,75.65c-.22.92-.42,1.72.09,2.22a2.05,2.05,0,0,0,1.29.44A2.69,2.69,0,0,0,79.91,78h0A2.34,2.34,0,0,0,80.58,76a5.94,5.94,0,0,0-.68-2.7,14.14,14.14,0,0,1-2.59-.27Zm3.47.29A6.87,6.87,0,0,1,81.36,76a3,3,0,0,1-1,2.59l0,0a3.55,3.55,0,0,1-2,.44,2.88,2.88,0,0,1-1.79-.66c-.83-.81-.59-1.81-.31-3a5.88,5.88,0,0,0,.23-2.62,6.27,6.27,0,0,1-1.14-.48,10.93,10.93,0,0,1-.78,3.23c-.55,1.54-1,2.78.47,4.19a4.83,4.83,0,0,0,3,1.07,6.33,6.33,0,0,0,3.48-.77,4.14,4.14,0,0,0,.48-.34A3.8,3.8,0,0,0,83.29,77a5.44,5.44,0,0,0-.75-3.12,5.14,5.14,0,0,0-.37-.54c-.44,0-.88,0-1.33,0Zm-8.59,2a11.87,11.87,0,0,0,1-4.8.37.37,0,0,1,.13-.32.38.38,0,0,1,.55,0c2.06,2.29,4.57,2.32,7,2.36a14.68,14.68,0,0,1,3.77.37.41.41,0,0,1,.19.13,5,5,0,0,1,.48.66,5.8,5.8,0,0,1,.58,4.15,6.7,6.7,0,0,1-2.13,3.66,6.37,6.37,0,0,1-.75.53,9.53,9.53,0,0,1-5.21,1.17,7.4,7.4,0,0,1-4.66-1.7c-2.39-2.31-1.75-4-.93-6.24Z"/><path d="M80.78,73.35A6.87,6.87,0,0,1,81.36,76a3,3,0,0,1-1,2.59l0,0a3.55,3.55,0,0,1-2,.44,2.88,2.88,0,0,1-1.79-.66c-.83-.81-.59-1.81-.31-3a5.88,5.88,0,0,0,.23-2.62,6.27,6.27,0,0,1-1.14-.48,10.93,10.93,0,0,1-.78,3.23c-.55,1.54-1,2.78.47,4.19a4.83,4.83,0,0,0,3,1.07,6.33,6.33,0,0,0,3.48-.77,4.14,4.14,0,0,0,.48-.34A3.8,3.8,0,0,0,83.29,77a5.44,5.44,0,0,0-.75-3.12,5.14,5.14,0,0,0-.37-.54c-.44,0-.88,0-1.33,0Z" style="fill:#aaa"/><path d="M80.78,73.35A6.87,6.87,0,0,1,81.36,76a3,3,0,0,1-1,2.59l0,0a3.55,3.55,0,0,1-2,.44,2.88,2.88,0,0,1-1.79-.66c-.83-.81-.59-1.81-.31-3a5.88,5.88,0,0,0,.23-2.62,5.74,5.74,0,0,1-.69-.26,14.8,14.8,0,0,1-.68,3.15c-.47,1.33-.85,2.4.41,3.62a4.13,4.13,0,0,0,2.62.93,5.43,5.43,0,0,0,3-.66,3.08,3.08,0,0,0,.41-.3A3.36,3.36,0,0,0,82.68,77a6.71,6.71,0,0,0-.85-3.16,5.33,5.33,0,0,0-.32-.46h-.73Z" style="fill:#47a0b5"/><path d="M77.31,73.06A7.27,7.27,0,0,1,77,75.65c-.22.92-.42,1.72.09,2.22a2.05,2.05,0,0,0,1.29.44A2.69,2.69,0,0,0,79.91,78h0A2.34,2.34,0,0,0,80.58,76a5.94,5.94,0,0,0-.68-2.7,14.14,14.14,0,0,1-2.59-.27Z" style="fill:#ffa62b"/><path d="M74,71.39a13.54,13.54,0,0,1-1,4.18c-.72,2-1.28,3.45.74,5.4a6.56,6.56,0,0,0,4.16,1.49,8.74,8.74,0,0,0,4.77-1.06,4.15,4.15,0,0,0,.64-.46,5.91,5.91,0,0,0,1.88-3.22,5,5,0,0,0-.5-3.59,3.55,3.55,0,0,0-.32-.47,8.19,8.19,0,0,0-1.12-.2l0,.06a6.23,6.23,0,0,1,.86,3.57,4.56,4.56,0,0,1-1.55,3.25,4,4,0,0,1-.58.41,7.13,7.13,0,0,1-3.92.88,5.56,5.56,0,0,1-3.52-1.29c-1.82-1.76-1.31-3.21-.66-5a9.75,9.75,0,0,0,.74-3.44,6.88,6.88,0,0,1-.63-.5Z" style="fill:#aaa"/><path d="M83.87,73.57c-.23,0-.46-.08-.7-.11l0,.06a6.23,6.23,0,0,1,.86,3.57,4.56,4.56,0,0,1-1.55,3.25,4,4,0,0,1-.58.41,7.13,7.13,0,0,1-3.92.88,5.56,5.56,0,0,1-3.52-1.29c-1.82-1.76-1.31-3.21-.66-5a9.75,9.75,0,0,0,.74-3.44l-.33-.24a14.71,14.71,0,0,1-1,4c-.68,1.83-1.21,3.25.69,5.1a6.24,6.24,0,0,0,3.93,1.4,8.14,8.14,0,0,0,4.5-1,3.78,3.78,0,0,0,.61-.44,5.48,5.48,0,0,0,1.77-3,4.65,4.65,0,0,0-.47-3.38c-.06-.11-.25-.46-.41-.72Z" style="fill:#47a0b5"/></g></svg>