<?xml version="1.0" encoding="UTF-8" standalone="no"?>
<svg
   xmlns:dc="http://purl.org/dc/elements/1.1/"
   xmlns:cc="http://creativecommons.org/ns#"
   xmlns:rdf="http://www.w3.org/1999/02/22-rdf-syntax-ns#"
   xmlns:svg="http://www.w3.org/2000/svg"
   xmlns="http://www.w3.org/2000/svg"
   xmlns:sodipodi="http://sodipodi.sourceforge.net/DTD/sodipodi-0.dtd"
   xmlns:inkscape="http://www.inkscape.org/namespaces/inkscape"
   version="1.1"
   id="svg2"
   xml:space="preserve"
   width="188.976"
   height="188.976"
   viewBox="0 0 188.976 188.976"
   sodipodi:docname="otto 1.ai"><metadata
     id="metadata8"><rdf:RDF><cc:Work
         rdf:about=""><dc:format>image/svg+xml</dc:format><dc:type
           rdf:resource="http://purl.org/dc/dcmitype/StillImage" /></cc:Work></rdf:RDF></metadata><defs
     id="defs6"><clipPath
       clipPathUnits="userSpaceOnUse"
       id="clipPath18"><path
         d="M 0,141.732 H 141.732 V 0 H 0 Z"
         id="path16" /></clipPath></defs><sodipodi:namedview
     pagecolor="#ffffff"
     bordercolor="#666666"
     borderopacity="1"
     objecttolerance="10"
     gridtolerance="10"
     guidetolerance="10"
     inkscape:pageopacity="0"
     inkscape:pageshadow="2"
     inkscape:window-width="640"
     inkscape:window-height="480"
     id="namedview4" /><g
     id="g10"
     inkscape:groupmode="layer"
     inkscape:label="otto 1"
     transform="matrix(1.3333333,0,0,-1.3333333,0,188.976)"><g
       id="g12"><g
         id="g14"
         clip-path="url(#clipPath18)"><g
           id="g20"
           transform="translate(81.168,77.3281)"><path
             d="m 0,0 c 0.062,2.551 -0.17,4.587 -0.424,6.07 0,0 0.224,3.514 0.224,5.428 0,0.315 0.25,0.573 0.562,0.585 0.083,0.009 0.16,0.031 0.23,0.066 0.169,0.088 0.309,0.262 0.408,0.518 0.122,0.314 0.173,0.741 0.133,1.274 -0.071,0.924 -0.42,2.119 -1.16,3.55 -0.087,0.169 -0.084,0.36 -0.008,0.519 l -10e-4,10e-4 c 0.321,0.674 0.511,1.34 0.442,1.973 -0.065,0.616 -0.383,1.234 -1.074,1.847 -0.198,0.174 -0.249,0.453 -0.144,0.681 0.326,0.709 0.43,1.649 0.087,2.517 -0.272,0.693 -0.838,1.346 -1.816,1.809 -0.291,0.138 -0.417,0.486 -0.279,0.778 l 0.004,0.007 c 0.131,0.343 -0.008,0.782 -0.3,1.16 -0.17,0.219 -0.391,0.414 -0.644,0.559 -0.243,0.14 -0.512,0.23 -0.784,0.245 -0.512,0.028 -1.068,-0.214 -1.555,-0.896 -0.185,-0.263 -0.55,-0.324 -0.813,-0.137 -0.123,0.088 -0.202,0.214 -0.233,0.351 -0.113,0.456 -0.36,0.806 -0.676,1.048 -0.364,0.278 -0.82,0.422 -1.282,0.429 -0.462,-0.007 -0.918,-0.151 -1.28,-0.429 -0.32,-0.244 -0.568,-0.598 -0.681,-1.06 -0.076,-0.314 -0.391,-0.506 -0.704,-0.431 -0.143,0.035 -0.26,0.119 -0.339,0.229 -0.485,0.682 -1.042,0.924 -1.553,0.896 -0.273,-0.015 -0.541,-0.105 -0.785,-0.245 -0.253,-0.145 -0.474,-0.34 -0.644,-0.559 -0.299,-0.387 -0.439,-0.838 -0.289,-1.185 0.125,-0.29 -0.003,-0.625 -0.288,-0.758 l 0.002,-0.002 c -0.978,-0.463 -1.544,-1.116 -1.817,-1.809 -0.342,-0.868 -0.238,-1.808 0.089,-2.516 0.116,-0.251 0.038,-0.542 -0.17,-0.705 -0.674,-0.605 -0.985,-1.215 -1.05,-1.824 -0.067,-0.633 0.123,-1.299 0.444,-1.973 0.087,-0.184 0.07,-0.39 -0.026,-0.552 -0.729,-1.417 -1.074,-2.6 -1.143,-3.518 -0.041,-0.533 0.011,-0.96 0.132,-1.274 0.098,-0.256 0.24,-0.43 0.409,-0.518 0.074,-0.038 0.158,-0.061 0.249,-0.068 0.308,-0.023 0.542,-0.28 0.542,-0.583 10e-4,-2.706 0,-2.254 -0.001,-1.978 0.004,-3.9 0.005,-6.979 -0.148,-9.763 -1.666,-0.409 -5.393,-1.585 -8.307,-5.043 -1.196,-1.42 -4.749,-5.635 -3.281,-10.433 1.185,-3.872 4.87,-5.616 5.712,-5.99 0.539,-4.297 -0.446,-6.326 -1.498,-7.382 -0.761,-0.764 -1.953,-1.416 -2.181,-2.763 -0.194,-1.142 0.416,-2.125 0.654,-2.509 1.62,-2.615 7.991,-5.866 16.698,-6.132 3.966,-0.121 7.334,0.686 14.066,2.313 4.758,1.15 7.095,2.062 7.418,3.709 0.235,1.201 -0.672,2.426 -1.585,3.334 -0.686,2.892 -1.371,5.785 -2.056,8.676 0.617,0.122 1.792,0.446 2.877,1.408 1.965,1.742 2.063,4.181 2.073,4.643 -0.077,1.601 -0.532,6.989 -4.776,11.561 C 4.848,-1.82 1.659,-0.535 0,0"
             style="fill:#f4f4f4;fill-opacity:1;fill-rule:nonzero;stroke:none"
             id="path22" /></g><g
           id="g24"
           transform="translate(57.0669,100.8208)"><path
             d="m 0,0 c 0.114,0.072 0.242,0.131 0.386,0.174 0.781,0.236 1.18,-0.358 1.713,-1.152 0.485,-0.723 1.139,-1.696 2.304,-1.963 0.103,0.43 0.292,0.855 0.585,1.27 -0.277,0.079 -0.537,0.188 -0.78,0.322 C 3.579,-1.002 3.07,-0.493 2.701,0.062 2.177,0.853 1.701,1.243 1.3,1.345 1.107,1.393 0.932,1.367 0.781,1.283 0.596,1.18 0.429,0.996 0.291,0.756 0.166,0.538 0.067,0.281 0,0"
             style="fill:#ffffff;fill-opacity:1;fill-rule:nonzero;stroke:none"
             id="path26" /></g><g
           id="g28"
           transform="translate(82.6611,97.8794)"><path
             d="M 0,0 C 1.165,0.267 1.818,1.241 2.304,1.964 2.837,2.757 3.235,3.352 4.017,3.116 4.161,3.072 4.289,3.013 4.402,2.941 4.336,3.223 4.237,3.479 4.112,3.697 3.974,3.938 3.807,4.122 3.622,4.224 3.471,4.308 3.296,4.335 3.103,4.286 2.702,4.185 2.226,3.794 1.702,3.004 1.328,2.441 0.811,1.926 0.171,1.579 -0.065,1.452 -0.317,1.347 -0.585,1.271 -0.292,0.855 -0.104,0.431 0,0"
             style="fill:#ffffff;fill-opacity:1;fill-rule:nonzero;stroke:none"
             id="path30" /></g><g
           id="g32"
           transform="translate(80.7432,83.3979)"><path
             d="m 0,0 c 0,0 0.225,3.517 0.225,5.428 0,0.316 0.25,0.573 0.562,0.585 C 0.87,6.022 0.947,6.044 1.017,6.08 1.186,6.167 1.326,6.341 1.424,6.596 1.546,6.912 1.599,7.338 1.558,7.872 1.487,8.796 1.138,9.99 0.397,11.422 0.311,11.59 0.314,11.782 0.39,11.941 H 0.389 c 0.32,0.674 0.51,1.34 0.442,1.973 -1.751,-0.003 -7.345,-5.092 -7.563,-6.41 -0.22,-1.318 0.409,-6.836 0.409,-6.836 0,0 1.511,1.149 2.786,0.594 1.308,-0.57 1.531,-2.58 1.727,-4.429 0.195,-1.827 -10e-4,-3.419 -0.275,-4.648 2.696,-0.788 6.21,-2.258 9.273,-5.237 4.046,-3.935 5.304,-8.556 5.672,-8.4 0.36,0.152 -0.409,4.715 -3.38,8.729 C 6.639,-8.883 2.854,-6.998 0.425,-6.07 0.487,-3.519 0.255,-1.483 0,0"
             style="fill:#aaaaaa;fill-opacity:1;fill-rule:nonzero;stroke:none"
             id="path34" /></g><g
           id="g36"
           transform="translate(81.2529,95.6089)"><path
             d="M 0,0 C 0.246,0.582 0.38,1.155 0.322,1.703 0.256,2.32 -0.062,2.938 -0.754,3.55 c -0.197,0.175 -0.248,0.454 -0.143,0.682 0.326,0.709 0.43,1.649 0.088,2.517 -0.253,0.641 -0.758,1.249 -1.609,1.704 1.473,-1.706 0.663,-3.742 -0.684,-4.415 -1.347,-0.674 -3.134,0.703 -3.134,0.703 0,0 -0.645,-1.025 -1.904,-1.494 -1.26,-0.469 -2.753,0.937 -2.753,0.937 0,0 -1.524,-1.171 -3.75,-0.644 -2.226,0.527 -2.709,3.381 -1.855,4.571 -0.532,-0.399 -0.874,-0.87 -1.068,-1.362 -0.342,-0.868 -0.238,-1.808 0.089,-2.517 0.115,-0.251 0.038,-0.541 -0.17,-0.705 -0.674,-0.605 -0.985,-1.215 -1.05,-1.824 -0.03,-0.282 -0.009,-0.57 0.052,-0.863 1.578,0.831 2.274,-0.932 2.274,-0.932 0,0 1.67,-2.519 2.402,-2.344 0.732,0.176 10.611,1.066 11.978,2.08 C -1.116,0.291 -0.402,0.171 0,0"
             style="fill:#aaaaaa;fill-opacity:1;fill-rule:nonzero;stroke:none"
             id="path38" /></g><g
           id="g40"
           transform="translate(58.3677,38.0557)"><path
             d="M 0,0 C 0.545,0.218 1.091,0.437 1.636,0.654 4.179,-0.192 7.594,-1.025 11.672,-1.2 18.622,-1.499 24.15,0.256 27.381,1.581 L 27.818,0.327 C 25.599,-0.964 20.973,-3.253 14.691,-3.491 7.568,-3.762 2.265,-1.245 0,0"
             style="fill:#aaaaaa;fill-opacity:1;fill-rule:nonzero;stroke:none"
             id="path42" /></g><g
           id="g44"
           transform="translate(61.3887,96.7012)"><path
             d="M 0,0 C -1.715,0.291 -2.567,1.559 -3.193,2.492 -3.45,2.874 -3.562,3.185 -3.602,3.173 -4.17,3.002 -4.097,1.861 -4.066,1.547 -3.784,0.935 -3.332,0.375 -2.733,-0.025 -2.005,-0.513 -1.05,-0.763 0.093,-0.583 0.049,-0.389 0.018,-0.195 0,0"
             style="fill:#aaaaaa;fill-opacity:1;fill-rule:nonzero;stroke:none"
             id="path46" /></g><g
           id="g48"
           transform="translate(86.8076,98.248)"><path
             d="m 0,0 c 0.031,0.314 0.104,1.455 -0.464,1.626 -0.04,0.012 -0.152,-0.299 -0.409,-0.681 -0.626,-0.933 -1.478,-2.201 -3.192,-2.492 -0.018,-0.195 -0.05,-0.389 -0.094,-0.583 1.141,-0.18 2.095,0.069 2.822,0.555 C -0.735,-1.174 -0.283,-0.613 0,0"
             style="fill:#aaaaaa;fill-opacity:1;fill-rule:nonzero;stroke:none"
             id="path50" /></g><g
           id="g52"
           transform="translate(63.1621,86.6597)"><path
             d="M 0,0 V 0.188 Z"
             style="fill:#000000;fill-opacity:1;fill-rule:nonzero;stroke:none"
             id="path54" /></g><g
           id="g56"
           transform="translate(61.4702,97.8799)"><path
             d="M 0,0 C -1.165,0.267 -1.819,1.24 -2.304,1.963 -2.837,2.757 -3.236,3.351 -4.018,3.115 -4.161,3.072 -4.289,3.013 -4.403,2.941 c 0.067,0.281 0.165,0.538 0.291,0.756 0.138,0.24 0.305,0.424 0.49,0.527 0.151,0.084 0.326,0.11 0.518,0.062 C -2.702,4.184 -2.227,3.793 -1.702,3.003 -1.333,2.448 -0.825,1.938 -0.195,1.592 0.047,1.458 0.308,1.349 0.585,1.27 0.291,0.855 0.103,0.43 0,0 m -2.815,-1.204 c -0.598,0.4 -1.05,0.96 -1.332,1.572 -0.031,0.314 -0.105,1.455 0.464,1.626 0.04,0.012 0.152,-0.298 0.408,-0.68 0.627,-0.934 1.479,-2.202 3.194,-2.493 0.017,-0.195 0.049,-0.389 0.093,-0.583 -1.143,-0.18 -2.098,0.071 -2.827,0.558 m 24.177,2.783 c 0.64,0.347 1.157,0.862 1.53,1.424 0.525,0.79 1,1.181 1.402,1.283 0.192,0.048 0.367,0.022 0.518,-0.062 C 24.998,4.121 25.165,3.937 25.303,3.697 25.428,3.479 25.527,3.222 25.594,2.941 25.479,3.013 25.352,3.072 25.208,3.115 24.427,3.351 24.027,2.757 23.495,1.963 23.01,1.24 22.355,0.267 21.191,0 c -0.103,0.43 -0.292,0.855 -0.585,1.27 0.267,0.076 0.519,0.181 0.756,0.309 M 25.338,0.368 C 25.055,-0.245 24.601,-0.806 24,-1.207 c -0.727,-0.486 -1.68,-0.735 -2.821,-0.555 0.044,0.194 0.075,0.388 0.093,0.583 1.715,0.291 2.566,1.559 3.193,2.493 0.256,0.382 0.368,0.692 0.409,0.68 0.568,-0.171 0.495,-1.312 0.464,-1.626 M 1.692,-11.22 v 0.188 -0.188 c 0,-0.114 0.001,0.143 0,2.166 0.001,0.304 -0.234,0.561 -0.541,0.584 -0.092,0.006 -0.175,0.029 -0.25,0.068 -0.168,0.087 -0.31,0.261 -0.408,0.516 -0.122,0.316 -0.173,0.742 -0.133,1.276 0.07,0.917 0.415,2.1 1.143,3.517 0.097,0.163 0.113,0.369 0.026,0.552 -0.321,0.674 -0.511,1.34 -0.443,1.973 0.065,0.609 0.376,1.22 1.05,1.824 C 2.344,1.42 2.421,1.71 2.306,1.961 1.979,2.67 1.875,3.61 2.217,4.478 2.489,5.17 3.055,5.823 4.034,6.287 L 4.033,6.288 C 4.316,6.421 4.445,6.757 4.32,7.046 4.17,7.393 4.31,7.844 4.609,8.231 4.779,8.451 5,8.646 5.252,8.79 5.496,8.93 5.765,9.02 6.037,9.035 6.548,9.063 7.105,8.821 7.591,8.14 7.669,8.029 7.787,7.945 7.929,7.911 c 0.313,-0.076 0.629,0.117 0.705,0.43 0.113,0.462 0.361,0.816 0.68,1.061 0.363,0.277 0.819,0.42 1.281,0.428 0.463,-0.008 0.919,-0.151 1.28,-0.428 0.322,-0.246 0.599,-0.653 0.679,-1.052 0.03,-0.136 0.109,-0.261 0.231,-0.348 0.263,-0.187 0.628,-0.125 0.815,0.138 0.484,0.681 1.042,0.923 1.553,0.895 C 15.426,9.02 15.694,8.93 15.938,8.79 16.191,8.646 16.412,8.45 16.582,8.231 16.873,7.853 17.014,7.415 16.881,7.072 L 16.878,7.065 C 16.74,6.773 16.865,6.424 17.157,6.287 18.135,5.823 18.701,5.17 18.974,4.478 19.316,3.61 19.212,2.67 18.886,1.961 18.781,1.733 18.831,1.454 19.029,1.279 c 0.692,-0.612 1.01,-1.23 1.076,-1.847 0.067,-0.633 -0.123,-1.299 -0.444,-1.973 h 10e-4 C 19.587,-2.7 19.583,-2.892 19.671,-3.06 20.41,-4.492 20.76,-5.686 20.83,-6.61 20.871,-7.144 20.819,-7.57 20.698,-7.886 20.6,-8.141 20.458,-8.315 20.289,-8.402 20.221,-8.438 20.144,-8.46 20.06,-8.469 c -0.313,-0.012 -0.563,-0.269 -0.563,-0.585 0,-1.824 -0.113,-3.639 -0.224,-5.428 -0.082,-1.319 -0.162,-2.624 -0.198,-3.902 0.391,-0.046 0.781,-0.1 1.171,-0.167 0.033,1.307 0.111,2.644 0.195,4.001 0.103,1.672 0.209,3.367 0.226,5.037 0.053,0.021 0.106,0.045 0.157,0.072 0.422,0.218 0.757,0.602 0.963,1.138 0.183,0.476 0.264,1.074 0.21,1.78 -0.074,0.98 -0.409,2.2 -1.099,3.621 1.5,-0.262 2.772,0.07 3.753,0.725 1.037,0.693 1.739,1.748 2.035,2.842 0.021,0.078 0.04,0.154 0.056,0.229 0.27,1.24 0.071,2.516 -0.428,3.384 C 26.072,4.7 25.755,5.037 25.38,5.244 24.971,5.471 24.508,5.546 24.01,5.421 23.341,5.252 22.62,4.707 21.917,3.648 21.642,3.234 21.267,2.857 20.808,2.609 20.634,2.515 20.448,2.439 20.25,2.385 c 0.171,0.789 0.144,1.677 -0.187,2.518 -0.33,0.838 -0.955,1.625 -1.979,2.216 0.073,0.625 -0.157,1.281 -0.578,1.826 -0.264,0.341 -0.603,0.641 -0.987,0.862 -0.392,0.224 -0.836,0.37 -1.302,0.395 -0.641,0.036 -1.306,-0.151 -1.911,-0.661 -0.196,0.313 -0.441,0.576 -0.72,0.79 -0.567,0.434 -1.274,0.656 -1.984,0.666 H 10.586 C 9.875,10.987 9.171,10.764 8.605,10.331 8.325,10.117 8.08,9.854 7.885,9.541 7.279,10.051 6.614,10.238 5.973,10.202 5.508,10.177 5.063,10.031 4.671,9.807 4.287,9.586 3.948,9.286 3.684,8.945 3.263,8.4 3.034,7.744 3.106,7.119 2.083,6.528 1.458,5.741 1.128,4.903 0.796,4.062 0.77,3.174 0.94,2.385 0.737,2.44 0.545,2.519 0.367,2.617 -0.085,2.866 -0.455,3.239 -0.727,3.648 -1.43,4.707 -2.151,5.252 -2.82,5.421 -3.317,5.546 -3.78,5.471 -4.189,5.244 -4.564,5.037 -4.881,4.7 -5.124,4.278 -5.623,3.41 -5.822,2.134 -5.551,0.894 c 0.015,-0.071 0.033,-0.144 0.053,-0.22 0.294,-1.096 0.995,-2.154 2.034,-2.848 0.981,-0.657 2.254,-0.99 3.756,-0.728 -0.689,-1.421 -1.024,-2.641 -1.099,-3.621 -0.054,-0.706 0.028,-1.304 0.211,-1.78 0.206,-0.536 0.54,-0.92 0.962,-1.138 0.051,-0.026 0.103,-0.05 0.155,-0.071 0.001,-1.676 0.002,0.203 0.004,-1.491 0.004,-4.067 0.005,-7.23 -0.171,-10.092 0.396,0.099 0.792,0.199 1.189,0.301 0.151,2.736 0.152,5.765 0.149,9.574"
             style="fill:#000000;fill-opacity:1;fill-rule:nonzero;stroke:none"
             id="path58" /></g><g
           id="g60"
           transform="translate(72.335,85.1099)"><path
             d="m 0,0 c -9.736,0 -7.472,8.683 -6.581,11.27 0.138,-0.091 0.288,-0.172 0.446,-0.24 0.423,-0.182 0.874,-0.281 1.323,-0.294 0.451,-0.014 0.898,0.059 1.311,0.221 0.431,0.168 0.824,0.43 1.15,0.787 0.318,-0.395 0.725,-0.682 1.18,-0.869 0.409,-0.167 0.855,-0.251 1.307,-0.256 0.446,-0.005 0.898,0.065 1.326,0.204 0.712,0.233 1.37,0.66 1.843,1.259 C 4.397,10.921 5.652,10.866 6.558,11.341 7.431,8.843 9.824,0 0,0 m 7.488,12.199 c 0.325,0.524 0.418,1.162 0.148,1.766 C 5.842,10.939 3.732,13.412 3.729,13.42 3.665,13.519 3.572,13.6 3.455,13.649 3.157,13.771 2.816,13.629 2.693,13.33 2.412,12.643 1.796,12.163 1.101,11.935 0.788,11.834 0.464,11.782 0.15,11.786 c -0.308,0.004 -0.607,0.059 -0.877,0.169 -0.458,0.188 -0.835,0.545 -1.019,1.09 -0.047,0.162 -0.163,0.304 -0.331,0.376 -0.297,0.127 -0.641,-0.01 -0.769,-0.307 -0.23,-0.535 -0.623,-0.889 -1.08,-1.068 -0.268,-0.105 -0.559,-0.152 -0.854,-0.143 -0.296,0.009 -0.6,0.077 -0.893,0.202 -0.61,0.263 -1.591,0.804 -1.889,1.566 -0.211,-0.446 -0.158,-0.963 0.088,-1.435 -0.658,-1.69 -4.789,-13.408 7.474,-13.408 12.174,0 8.192,11.549 7.488,13.371"
             style="fill:#000000;fill-opacity:1;fill-rule:nonzero;stroke:none"
             id="path62" /></g><g
           id="g64"
           transform="translate(65.7539,96.3804)"><path
             d="m 0,0 c -0.89,-2.588 -3.154,-11.271 6.582,-11.271 9.824,0 7.429,8.843 6.557,11.341 C 12.233,-0.404 10.978,-0.349 9.885,0.812 9.413,0.213 8.756,-0.214 8.043,-0.447 7.616,-0.587 7.163,-0.657 6.717,-0.651 6.265,-0.646 5.819,-0.562 5.411,-0.395 4.955,-0.208 4.548,0.079 4.23,0.473 3.905,0.117 3.511,-0.145 3.081,-0.313 2.667,-0.475 2.22,-0.548 1.769,-0.535 1.32,-0.521 0.869,-0.422 0.446,-0.24 0.288,-0.172 0.139,-0.091 0,0"
             style="fill:#ffd7a6;fill-opacity:1;fill-rule:nonzero;stroke:none"
             id="path66" /></g><g
           id="g68"
           transform="translate(69.5342,88.2817)"><path
             d="M 0,0 C -0.3,0.432 -0.254,0.921 0.198,1.212 0.335,0.726 0.606,0.389 0.918,0.196 1.073,0.099 1.238,0.038 1.401,0.013 1.558,-0.012 1.712,-0.005 1.854,0.035 2.042,0.089 2.206,0.203 2.314,0.376 2.357,0.446 2.38,0.538 2.391,0.627 2.407,0.758 2.405,0.845 2.398,0.86 2.377,0.905 2.161,0.927 1.907,1.037 1.697,1.128 1.49,1.218 1.344,1.303 1.216,1.376 1.112,1.466 1.034,1.563 0.937,1.684 0.876,1.82 0.856,1.959 0.834,2.113 0.861,2.267 0.943,2.408 0.988,2.487 1.049,2.559 1.126,2.621 1.237,2.71 2.055,2.757 2.827,2.757 3.326,2.757 3.835,2.738 4.156,2.698 4.261,2.719 4.373,2.697 4.464,2.629 L 4.478,2.621 C 4.555,2.557 4.616,2.485 4.66,2.409 V 2.408 C 4.741,2.267 4.769,2.113 4.746,1.959 4.727,1.82 4.666,1.684 4.568,1.563 4.491,1.466 4.386,1.376 4.258,1.303 4.112,1.218 3.905,1.128 3.695,1.037 3.442,0.927 3.225,0.905 3.204,0.86 3.197,0.844 3.195,0.758 3.211,0.627 3.222,0.537 3.245,0.446 3.288,0.376 3.396,0.203 3.561,0.089 3.749,0.035 3.89,-0.004 4.045,-0.012 4.201,0.013 4.364,0.038 4.529,0.099 4.684,0.196 4.996,0.389 5.267,0.726 5.405,1.212 5.887,0.822 5.916,0.366 5.594,-0.039 5.449,-0.664 5.111,-1.233 4.622,-1.644 4.142,-2.048 3.521,-2.298 2.801,-2.298 2.083,-2.298 1.464,-2.05 0.985,-1.65 0.485,-1.232 0.141,-0.645 0,0 m 1.64,-1.168 c 0.319,-0.218 0.714,-0.349 1.161,-0.349 0.449,0 0.843,0.13 1.162,0.348 -0.109,0.074 -0.225,0.137 -0.35,0.19 -0.242,0.101 -0.514,0.158 -0.812,0.158 -0.297,0 -0.568,-0.056 -0.808,-0.156 C 1.867,-1.029 1.749,-1.094 1.64,-1.168"
             style="fill:#000000;fill-opacity:1;fill-rule:nonzero;stroke:none"
             id="path70" /></g><g
           id="g72"
           transform="translate(66.9556,92.7847)"><path
             d="m 0,0 c -0.05,-0.21 -0.26,-0.34 -0.47,-0.29 -0.21,0.05 -0.34,0.26 -0.29,0.47 0.001,0.005 0.419,1.908 1.812,2.029 C 2.54,2.338 2.788,-0.051 2.789,-0.058 2.814,-0.272 2.66,-0.465 2.446,-0.49 2.232,-0.514 2.039,-0.36 2.014,-0.146 2.014,-0.142 1.838,1.493 1.119,1.431 0.303,1.36 0.001,0.004 0,0"
             style="fill:#000000;fill-opacity:1;fill-rule:nonzero;stroke:none"
             id="path74" /></g><g
           id="g76"
           transform="translate(77.7148,92.7847)"><path
             d="m 0,0 c 0.051,-0.21 0.261,-0.34 0.471,-0.29 0.21,0.05 0.34,0.26 0.29,0.47 -0.001,0.005 -0.419,1.908 -1.813,2.029 -1.488,0.129 -1.735,-2.26 -1.737,-2.267 -0.024,-0.214 0.13,-0.407 0.344,-0.432 0.214,-0.024 0.406,0.13 0.431,0.344 0,0.004 0.176,1.639 0.896,1.577 C -0.303,1.36 -0.001,0.004 0,0"
             style="fill:#000000;fill-opacity:1;fill-rule:nonzero;stroke:none"
             id="path78" /></g><g
           id="g80"
           transform="translate(71.1738,87.1133)"><path
             d="m 0,0 c 0.32,-0.218 0.713,-0.348 1.161,-0.348 0.449,0 0.842,0.13 1.162,0.347 C 2.214,0.073 2.099,0.137 1.974,0.189 1.731,0.291 1.459,0.348 1.161,0.348 0.864,0.348 0.594,0.292 0.354,0.191 0.229,0.139 0.109,0.075 0,0"
             style="fill:#b81f40;fill-opacity:1;fill-rule:nonzero;stroke:none"
             id="path82" /></g><g
           id="g84"
           transform="translate(85.667,61.0088)"><path
             d="m 0,0 c 0.98,-1.424 2.162,-3.481 2.987,-6.144 0.534,-1.722 0.792,-3.291 0.913,-4.591 -0.047,-0.91 -0.096,-1.819 -0.145,-2.727 -0.627,1.318 -1.776,3.186 -3.818,4.072 -3.095,1.345 -5.433,-0.785 -9.927,-1.054 -6.362,-0.382 -11.802,3.276 -11.636,3.89 0.062,0.234 0.954,0.123 8.981,-0.8 1.698,-0.195 5.715,-0.656 7.349,-0.842 0.315,1.054 0.807,2.343 1.597,3.716 C -2.494,-2.388 -1.071,-0.929 0,0"
             style="fill:#aaaaaa;fill-opacity:1;fill-rule:nonzero;stroke:none"
             id="path86" /></g><g
           id="g88"
           transform="translate(59.4277,60.2842)"><path
             d="m 0,0 c -0.948,-1.511 -2.076,-3.664 -2.86,-6.411 -0.618,-2.162 -0.853,-4.1 -0.928,-5.636 0.274,0.162 0.547,0.325 0.82,0.487 0.197,0.59 0.628,1.595 1.581,2.422 0.551,0.479 1.371,0.979 2.691,1.237 4.189,0.818 8.021,-1.862 13.709,-1.855 1.109,10e-4 2.552,0.105 4.247,0.504 C 16.208,-5.396 13.155,-1.54 10.104,2.316 6.736,1.544 3.368,0.772 0,0"
             style="fill:#aaaaaa;fill-opacity:1;fill-rule:nonzero;stroke:none"
             id="path90" /></g><g
           id="g92"
           transform="translate(81.168,78.8555)"><path
             d="M 0,0 C 0.023,0.873 0.048,1.745 0.072,2.618"
             style="fill:none;stroke:#000000;stroke-width:1.15;stroke-linecap:butt;stroke-linejoin:miter;stroke-miterlimit:10;stroke-dasharray:none;stroke-opacity:1"
             id="path94" /></g><g
           id="g96"
           transform="translate(90.0039,46.8369)"><path
             d="m 0,0 c -0.033,1.808 -0.257,4.122 -0.981,6.709 -1.126,4.02 -2.981,6.987 -4.365,8.837 0.128,-0.043 1.059,-0.34 1.964,0.218 0.986,0.607 1.087,1.7 1.095,1.811"
             style="fill:none;stroke:#000000;stroke-width:1.15;stroke-linecap:butt;stroke-linejoin:miter;stroke-miterlimit:10;stroke-dasharray:none;stroke-opacity:1"
             id="path98" /></g><g
           id="g100"
           transform="translate(58.3677,38.0557)"><path
             d="m 0,0 c 2.713,-1.335 8.876,-3.892 16.8,-3.055 4.869,0.514 8.646,2.124 11.018,3.382"
             style="fill:none;stroke:#000000;stroke-width:1.15;stroke-linecap:butt;stroke-linejoin:miter;stroke-miterlimit:10;stroke-dasharray:none;stroke-opacity:1"
             id="path102" /></g><g
           id="g104"
           transform="translate(55.9751,48.4326)"><path
             d="m 0,0 c -0.67,-0.876 -1.69,-2.117 -3.082,-3.475 -1.336,-1.303 -1.708,-1.439 -1.909,-2.018 -0.816,-2.342 2.574,-7.849 6.927,-7.363 2.888,0.322 5.333,3.183 5.346,6.218 C 7.297,-3.165 4.124,0.036 0,0"
             style="fill:#f4f4f4;fill-opacity:1;fill-rule:nonzero;stroke:none"
             id="path106" /></g><g
           id="g108"
           transform="translate(56.7314,48.9648)"><path
             d="m 0,0 c -0.762,-1.402 -1.784,-2.437 -2.728,-3.575 -0.95,-1.124 -1.814,-2.32 -2.588,-3.565 -0.759,-1.233 -1.449,-2.582 -2.092,-3.884 -0.623,-1.303 -1.064,-2.651 -0.615,-3.731 0.424,-1.228 1.416,-1.787 2.73,-1.621 1.298,0.157 2.629,0.795 3.894,1.484 1.254,0.713 2.527,1.539 3.683,2.405 0.58,0.441 1.139,0.912 1.675,1.407 0.541,0.494 1.119,0.935 1.994,1.165 -0.115,-0.898 -0.573,-1.544 -1.12,-2.083 -0.55,-0.539 -1.125,-1.053 -1.726,-1.538 -1.219,-0.967 -2.446,-1.813 -3.776,-2.622 -1.331,-0.783 -2.759,-1.494 -4.451,-1.732 -0.838,-0.099 -1.811,-0.025 -2.654,0.47 -0.851,0.469 -1.418,1.322 -1.691,2.124 -0.328,0.859 -0.32,1.83 -0.121,2.647 0.192,0.829 0.516,1.562 0.856,2.259 0.698,1.38 1.426,2.682 2.281,3.979 0.852,1.275 1.793,2.488 2.817,3.623 1,1.153 2.176,2.17 3.632,2.788"
             style="fill:#000000;fill-opacity:1;fill-rule:nonzero;stroke:none"
             id="path110" /></g><g
           id="g112"
           transform="translate(62.4976,82.6709)"><path
             d="m 0,0 c 0.01,-0.547 0.021,-1.359 0.016,-2.343 -0.013,-2.215 -0.019,-3.323 -0.147,-3.948 -0.341,-1.661 -0.895,-1.402 -2.253,-4.397 -0.554,-1.22 -0.917,-2.268 -1.455,-3.819 -0.409,-1.179 -0.656,-1.891 -0.909,-2.836 -0.384,-1.433 -1.314,-4.904 -0.473,-5.345 0.667,-0.35 2,1.44 2.336,1.193 0.446,-0.329 -1.697,-3.4 -3.045,-7.303 -0.866,-2.507 -1.182,-4.718 -1.309,-6.272"
             style="fill:none;stroke:#000000;stroke-width:1.15;stroke-linecap:butt;stroke-linejoin:miter;stroke-miterlimit:10;stroke-dasharray:none;stroke-opacity:1"
             id="path114" /></g><g
           id="g116"
           transform="translate(52.8931,44.958)"><path
             d="m 0,0 c 0.8,-0.006 2.814,-0.131 4.747,-1.521 2.96,-2.128 3.339,-5.506 3.392,-6.054 -2.177,-2.345 -4.336,-3.65 -5.77,-4.365 -1.893,-0.947 -3.634,-1.786 -5.307,-1.069 -0.161,0.069 -1.366,0.606 -1.933,1.891 -0.822,1.863 0.323,3.939 1.825,6.667 C -2.429,-3.331 -1.457,-1.748 0,0"
             style="fill:#000000;fill-opacity:1;fill-rule:nonzero;stroke:none"
             id="path118" /></g><g
           id="g120"
           transform="translate(81.0586,39.1465)"><path
             d="m 0,0 c 0.418,-0.764 1.577,-2.613 3.709,-3.273 3.077,-0.952 7.02,0.933 9.106,4.904 C 11.017,4.069 9.217,6.507 7.418,8.945 4.945,5.964 2.473,2.981 0,0"
             style="fill:#f4f4f4;fill-opacity:1;fill-rule:nonzero;stroke:none"
             id="path122" /></g><g
           id="g124"
           transform="translate(52.106,31.4424)"><path
             d="m 0,0 c -1.515,-1.501 -8.176,1.031 -8.287,4.062 -0.046,1.247 1.018,2.503 2.183,2.937 2.083,0.776 4.402,-1.113 5.427,-2.758 C 0.035,3.101 0.877,0.869 0,0"
             style="fill:#000000;fill-opacity:1;fill-rule:nonzero;stroke:none"
             id="path126" /></g><g
           id="g128"
           transform="translate(62.3662,76.3799)"><path
             d="m 0,0 c -0.766,-0.184 -7.91,-2.017 -10.217,-8.434 -0.952,-2.649 -1.72,-7.858 1.419,-10.691 1.972,-1.78 4.525,-1.752 5.127,-1.745 3.899,0.043 7.572,2.911 9.598,7.219 2.594,0.831 3.876,3.407 3.2,5.381 -0.577,1.687 -2.629,3.042 -4.509,2.473 -1.737,-0.525 -2.34,-2.392 -2.398,-2.582 -0.652,-1.522 -2.001,-2.512 -3.421,-2.509 -1.018,0.002 -1.77,0.514 -2.089,0.763"
             style="fill:#f4f4f4;fill-opacity:1;fill-rule:nonzero;stroke:#000000;stroke-width:1.15;stroke-linecap:butt;stroke-linejoin:miter;stroke-miterlimit:10;stroke-dasharray:none;stroke-opacity:1"
             id="path130" /></g><g
           id="g132"
           transform="translate(62.0391,65.7197)"><path
             d="m 0,0 c 1.087,-0.42 1.693,-1.04 2.001,-1.428 1.341,-1.685 1.331,-4.335 0.019,-6.736 0.817,0.607 1.853,1.516 2.818,2.809 0.632,0.847 1.087,1.664 1.416,2.364 1.949,0.327 3.398,1.828 3.548,3.526 0.205,2.349 -2.12,4.57 -4.31,4.201 C 4.124,4.504 2.963,3.288 2.547,1.681 2.162,1.287 1.625,0.825 0.91,0.427 0.59,0.248 0.283,0.108 0,0"
             style="fill:#000000;fill-opacity:1;fill-rule:nonzero;stroke:none"
             id="path134" /></g><g
           id="g136"
           transform="translate(68.7764,72.7202)"><path
             d="m 0,0 c -1.391,-5.962 -2.783,-11.926 -4.174,-17.889 -0.188,-0.806 0.408,-1.581 1.235,-1.608 l 13.763,-0.429 c 0.617,-0.02 1.164,0.394 1.313,0.994 1.442,5.819 2.884,11.639 4.327,17.458 0.197,0.795 -0.374,1.573 -1.191,1.623 C 10.635,0.436 5.996,0.723 1.356,1.01 0.719,1.05 0.146,0.623 0,0"
             style="fill:#47a0b5;fill-opacity:1;fill-rule:nonzero;stroke:none"
             id="path138" /></g><g
           id="g140"
           transform="translate(68.7764,72.7202)"><path
             d="m 0,0 c -1.391,-5.962 -2.783,-11.926 -4.174,-17.889 -0.188,-0.806 0.408,-1.581 1.235,-1.608 l 13.763,-0.429 c 0.617,-0.02 1.164,0.394 1.313,0.994 1.442,5.819 2.884,11.639 4.327,17.458 0.197,0.795 -0.374,1.573 -1.191,1.623 C 10.635,0.436 5.996,0.723 1.356,1.01 0.719,1.05 0.146,0.623 0,0 Z"
             style="fill:none;stroke:#000000;stroke-width:1.15;stroke-linecap:butt;stroke-linejoin:miter;stroke-miterlimit:10;stroke-dasharray:none;stroke-opacity:1"
             id="path142" /></g><g
           id="g144"
           transform="translate(75.1709,64.751)"><path
             d="m 0,0 c -0.004,0.002 -0.007,0.003 -0.011,0.005 0.293,-0.715 0.451,-1.452 0.445,-2.192 -0.023,-2.295 -1.583,-4 -2.183,-4.654 -2.994,-3.269 -7.305,-3.225 -8.145,-3.2 -0.175,-0.369 -0.35,-0.737 -0.525,-1.106 5.173,-0.187 10.347,-0.374 15.521,-0.561 0.822,3.343 1.645,6.686 2.467,10.028 C 5,-1.547 2.484,-0.969 0,0"
             style="fill:#268291;fill-opacity:1;fill-rule:nonzero;stroke:none"
             id="path146" /></g><g
           id="g148"
           transform="translate(68.7764,72.7202)"><path
             d="m 0,0 c -1.391,-5.962 -2.783,-11.926 -4.174,-17.889 -0.188,-0.806 0.408,-1.581 1.235,-1.608 l 13.763,-0.429 c 0.617,-0.02 1.164,0.394 1.313,0.994 1.442,5.819 2.884,11.639 4.327,17.458 0.197,0.795 -0.374,1.573 -1.191,1.623 C 10.635,0.436 5.996,0.723 1.356,1.01 0.719,1.05 0.146,0.623 0,0 Z"
             style="fill:none;stroke:#000000;stroke-width:1.15;stroke-linecap:butt;stroke-linejoin:miter;stroke-miterlimit:10;stroke-dasharray:none;stroke-opacity:1"
             id="path150" /></g><g
           id="g152"
           transform="translate(92.708,65.1943)"><path
             d="m 0,0 c 0.377,-0.922 1.024,-2.892 0.551,-5.269 -0.173,-0.865 -0.489,-2.344 -1.728,-3.652 0,0 -1.261,-1.329 -3.272,-1.854 -3.034,-0.792 -6.792,0.882 -9.701,4.144 -2.595,0.832 -3.876,3.408 -3.201,5.382 0.578,1.686 2.629,3.042 4.509,2.473 1.737,-0.526 2.34,-2.392 2.399,-2.582 0.823,-0.728 1.95,-0.97 2.939,-0.618 1.136,0.406 1.594,1.417 1.673,1.601"
             style="fill:#f4f4f4;fill-opacity:1;fill-rule:nonzero;stroke:#000000;stroke-width:1.15;stroke-linecap:butt;stroke-linejoin:miter;stroke-miterlimit:10;stroke-dasharray:none;stroke-opacity:1"
             id="path154" /></g><g
           id="g156"
           transform="translate(81.2266,80.9888)"><path
             d="m 0,0 -0.059,-3.661 c 1.425,-0.424 3.324,-1.187 5.237,-2.618 4.361,-3.263 5.836,-7.78 6.303,-9.515"
             style="fill:none;stroke:#000000;stroke-width:1.15;stroke-linecap:butt;stroke-linejoin:miter;stroke-miterlimit:10;stroke-dasharray:none;stroke-opacity:1"
             id="path158" /></g><g
           id="g160"
           transform="translate(83.168,59.5098)"><path
             d="m 0,0 c -0.591,-2.767 0.907,-4.915 1.169,-5.277 -1.014,0.414 -2.355,1.095 -3.715,2.222 -0.875,0.725 -1.552,1.463 -2.064,2.109 -1.95,0.328 -3.4,1.829 -3.548,3.527 -0.205,2.349 2.119,4.57 4.309,4.2 C -2.48,6.55 -1.32,5.334 -0.903,3.727 0.028,3.6 0.959,3.473 1.891,3.346 1.427,2.903 0.379,1.779 0,0"
             style="fill:#000000;fill-opacity:1;fill-rule:nonzero;stroke:none"
             id="path162" /></g><g
           id="g164"
           transform="translate(65.2402,68.4922)"><path
             d="m 0,0 -5.75,6.14 c -0.383,0.408 -0.373,1.046 0.023,1.442 l 0.285,0.284 C -5.03,8.278 -4.36,8.27 -3.958,7.847 L 1.769,1.823 Z"
             style="fill:#ffa62b;fill-opacity:1;fill-rule:nonzero;stroke:none"
             id="path166" /></g><g
           id="g168"
           transform="translate(65.2402,68.4922)"><path
             d="m 0,0 -5.75,6.14 c -0.383,0.408 -0.373,1.046 0.023,1.442 l 0.285,0.284 C -5.03,8.278 -4.36,8.27 -3.958,7.847 L 1.769,1.823 Z"
             style="fill:none;stroke:#000000;stroke-width:1.15;stroke-linecap:butt;stroke-linejoin:miter;stroke-miterlimit:10;stroke-dasharray:none;stroke-opacity:1"
             id="path170" /></g><g
           id="g172"
           transform="translate(88.8584,48.0918)"><path
             d="m 0,0 c 1.541,-0.539 2.507,-1.727 3.479,-2.861 0.968,-1.156 1.853,-2.394 2.605,-3.713 0.74,-1.348 1.392,-2.627 1.944,-4.1 0.259,-0.734 0.482,-1.514 0.522,-2.356 0.052,-0.83 -0.121,-1.744 -0.486,-2.485 -0.334,-0.748 -0.962,-1.559 -1.834,-1.914 -0.85,-0.392 -1.765,-0.396 -2.569,-0.268 -1.628,0.272 -3,1.005 -4.303,1.773 -1.293,0.802 -2.504,1.636 -3.693,2.589 -1.163,0.951 -2.327,1.98 -2.843,3.502 1.431,-0.696 2.402,-1.724 3.556,-2.601 1.141,-0.859 2.391,-1.666 3.629,-2.38 1.249,-0.684 2.563,-1.32 3.863,-1.516 1.319,-0.211 2.409,0.221 2.884,1.421 0.58,1.137 0.417,2.444 -0.054,3.763 C 6.229,-9.85 5.554,-8.481 4.915,-7.223 4.24,-5.957 3.436,-4.761 2.539,-3.63 1.667,-2.454 0.509,-1.584 0,0"
             style="fill:#000000;fill-opacity:1;fill-rule:nonzero;stroke:none"
             id="path174" /></g><g
           id="g176"
           transform="translate(92.459,44.1709)"><path
             d="m 0,0 c -0.662,0.106 -3.128,0.424 -5.51,-1.098 -3.371,-2.154 -3.599,-6.094 -3.615,-6.481 2.176,-2.345 4.335,-3.65 5.77,-4.365 1.892,-0.947 3.633,-1.785 5.307,-1.069 1.263,0.54 1.842,1.702 1.933,1.891 0.939,1.95 -0.069,4.15 -1.242,6.71 C 2.115,-3.262 1.287,-1.703 0,0"
             style="fill:#000000;fill-opacity:1;fill-rule:nonzero;stroke:none"
             id="path178" /></g><g
           id="g180"
           transform="translate(91.75,30.8135)"><path
             d="M 0,0 C 1.515,-1.501 8.177,1.031 8.287,4.062 8.333,5.309 7.27,6.565 6.104,6.999 4.021,7.775 1.702,5.885 0.677,4.241 -0.034,3.101 -0.877,0.869 0,0"
             style="fill:#000000;fill-opacity:1;fill-rule:nonzero;stroke:none"
             id="path182" /></g><g
           id="g184"
           transform="translate(71.9277,73.4727)"><path
             d="M 0,0 C -0.035,1.493 1.219,2.583 2.399,2.455 3.675,2.316 4.63,0.782 4.145,-0.491 3.746,-1.537 2.471,-2.152 1.254,-1.746"
             style="fill:none;stroke:#000000;stroke-width:1.15;stroke-linecap:butt;stroke-linejoin:miter;stroke-miterlimit:10;stroke-dasharray:none;stroke-opacity:1"
             id="path186" /></g><g
           id="g188"
           transform="translate(75.3584,73.4009)"><path
             d="M 0,0 C -0.034,1.493 1.219,2.583 2.399,2.455 3.675,2.316 4.63,0.782 4.146,-0.491 3.746,-1.537 2.471,-2.152 1.254,-1.746"
             style="fill:none;stroke:#000000;stroke-width:1.15;stroke-linecap:butt;stroke-linejoin:miter;stroke-miterlimit:10;stroke-dasharray:none;stroke-opacity:1"
             id="path190" /></g><g
           id="g192"
           transform="translate(78.6885,72.7949)"><path
             d="M 0,0 C -0.035,1.493 1.219,2.583 2.399,2.455 3.675,2.315 4.63,0.782 4.145,-0.491 3.746,-1.538 2.471,-2.152 1.254,-1.746"
             style="fill:none;stroke:#000000;stroke-width:1.15;stroke-linecap:butt;stroke-linejoin:miter;stroke-miterlimit:10;stroke-dasharray:none;stroke-opacity:1"
             id="path194" /></g><g
           id="g196"
           transform="translate(73.9492,72.3369)"><path
             d="M 0,0 C 0.477,-0.262 0.649,-0.861 0.387,-1.337 0.125,-1.814 -0.474,-1.987 -0.95,-1.725 -1.427,-1.462 -1.6,-0.864 -1.338,-0.387 -1.075,0.089 -0.477,0.262 0,0"
             style="fill:#000000;fill-opacity:1;fill-rule:nonzero;stroke:none"
             id="path198" /></g><g
           id="g200"
           transform="translate(81.127,64.5654)"><path
             d="m 0,0 c 0,-0.386 -0.313,-0.699 -0.7,-0.699 -0.386,0 -0.699,0.313 -0.699,0.699 0,0.387 0.313,0.7 0.699,0.7 C -0.313,0.7 0,0.387 0,0"
             style="fill:#000000;fill-opacity:1;fill-rule:nonzero;stroke:none"
             id="path202" /></g><g
           id="g204"
           transform="translate(76.1992,71.8999)"><path
             d="M 0,0 C 0.365,0.403 0.988,0.434 1.392,0.068 1.794,-0.297 1.824,-0.919 1.46,-1.322 1.095,-1.725 0.472,-1.756 0.068,-1.391 -0.334,-1.025 -0.365,-0.403 0,0"
             style="fill:#000000;fill-opacity:1;fill-rule:nonzero;stroke:none"
             id="path206" /></g><g
           id="g208"
           transform="translate(80.7236,71.875)"><path
             d="M 0,0 C 0.477,-0.263 0.65,-0.861 0.388,-1.338 0.125,-1.814 -0.474,-1.987 -0.95,-1.725 -1.426,-1.463 -1.6,-0.864 -1.337,-0.388 -1.075,0.089 -0.476,0.262 0,0"
             style="fill:#000000;fill-opacity:1;fill-rule:nonzero;stroke:none"
             id="path210" /></g></g></g></g></svg>
