<svg xmlns="http://www.w3.org/2000/svg" xmlns:xlink="http://www.w3.org/1999/xlink" version="1.1" viewBox="0 0 4550 2220" style="background: #ffffff"><defs joint-selector="defs"></defs><g joint-selector="layers"  transform="matrix(1,0,0,1,0,0)"><g ></g><g ><g   id="j_21"  transform="translate(20,2175)"><g id="v-276"><text  id="v-277" font-size="22px" xml:space="preserve" y="0.8em" font-weight="normal" text-anchor="start" fill="#aaaaaa" pointer-events="none" font-family="Open Sans" display="block"><tspan dy="0" >Friday, December 1, 2023 at 9:41 PM Central European Standard Time</tspan></text></g></g><g   id="j_20"  transform="translate(20,2131)"><g id="v-274"><text  id="v-275" font-size="36px" xml:space="preserve" y="0.8em" font-weight="normal" text-anchor="start" fill="#000000" pointer-events="none" font-family="Open Sans" display="block"><tspan dy="0" >[Container] Management Console</tspan></text></g></g><g   id="j_1"  transform="translate(199,770)" style=""><g  id="v-9" style="opacity: 1;"><rect  x="0" y="160" width="400" height="240" rx="70" id="v-11" stroke="#c7c7c7" stroke-width="2" pointer-events="visiblePainted" fill="#dddddd" style="fill: rgb(221, 221, 221); stroke: rgb(199, 199, 199);"></rect><circle  cx="200" cy="88.88888888888889" r="88.88888888888889" id="v-10" stroke="#c7c7c7" stroke-width="2" pointer-events="visiblePainted" fill="#dddddd" style="fill: rgb(221, 221, 221); stroke: rgb(199, 199, 199);"></circle><line  x1="80" y1="266.6666666666667" x2="80" y2="400" id="v-17" stroke="#c7c7c7" stroke-width="2" style="stroke: rgb(199, 199, 199);"></line><line  x1="320" y1="266.6666666666667" x2="320" y2="400" id="v-18" stroke="#c7c7c7" stroke-width="2" style="stroke: rgb(199, 199, 199);"></line><text  id="v-12" font-size="34" xml:space="preserve" y="0.8em" font-weight="bold" text-anchor="middle" pointer-events="visible" font-family="Open Sans" fill="#000000" transform="matrix(1,0,0,1,200,213.1)" style="fill: rgb(0, 0, 0);"><tspan dy="0" >IT/OT Professional</tspan></text><text  id="v-13" font-size="17" xml:space="preserve" y="0.8em" text-anchor="middle" font-family="Open Sans" fill="#000000" transform="matrix(1,0,0,1,200,255.6)" style="fill: rgb(0, 0, 0);"><tspan dy="0" >[Person]</tspan></text><text  id="v-14" font-size="24" xml:space="preserve" y="0.8em" text-anchor="middle" font-family="Open Sans" fill="#000000" transform="matrix(1,0,0,1,200,286.9)" style="fill: rgb(0, 0, 0);"><tspan dy="0" >Manages and monitors the</tspan><tspan dy="1.2em" x="0" >United Manufacturing Hub.</tspan></text><g  id="v-15" font-weight="normal" text-anchor="middle" color="#000000" transform="matrix(1,0,0,1,197.5,356.9)" style="fill: rgb(0, 0, 0);" display="none"><g ></g><g ></g><g ></g><g ></g></g><image  id="v-16"></image></g></g><g   id="j_5"  transform="translate(3899,1116)" style=""><g  id="v-47" style="opacity: 1;"><rect  id="v-48" rx="1" ry="1" stroke="#47a0b5" stroke-width="8" pointer-events="visiblePainted" fill="#aaaaaa" width="450" height="300" style="fill: rgb(170, 170, 170); stroke: rgb(71, 160, 181);"></rect><text  id="v-49" font-size="34" xml:space="preserve" y="0.8em" font-weight="bold" text-anchor="middle" pointer-events="visible" font-family="Open Sans" fill="#000000" transform="matrix(1,0,0,1,225,46.9)" style="fill: rgb(0, 0, 0);"><tspan dy="0" >Device &amp; Container</tspan><tspan dy="1.2em" x="0" >Infrastructure</tspan></text><text  id="v-50" font-size="17" xml:space="preserve" y="0.8em" text-anchor="middle" font-family="Open Sans" fill="#000000" transform="matrix(1,0,0,1,225,131.9)" style="fill: rgb(0, 0, 0);"><tspan dy="0" >[Software System]</tspan></text><text  id="v-51" font-size="24" xml:space="preserve" y="0.8em" text-anchor="middle" font-family="Open Sans" fill="#000000" transform="matrix(1,0,0,1,225,163.1)" style="fill: rgb(0, 0, 0);"><tspan dy="0" >Oversees automated, streamlined</tspan><tspan dy="1.2em" x="0" >installation of key software and</tspan><tspan dy="1.2em" x="0" >operating systems</tspan></text><g  id="v-52" color="#000000" transform="matrix(1,0,0,1,222.5,263.1)" style="fill: rgb(0, 0, 0);" display="none"><g ></g><g ></g><g ></g><g ></g></g><image  id="v-53"></image></g></g><g   id="j_7"  transform="translate(3149,1720)" style=""><g  id="v-73" style="opacity: 1;"><rect  id="v-74" rx="1" ry="1" stroke="#47a0b5" stroke-width="8" pointer-events="visiblePainted" fill="#aaaaaa" width="450" height="300" style="fill: rgb(170, 170, 170); stroke: rgb(71, 160, 181);"></rect><text  id="v-75" font-size="34" xml:space="preserve" y="0.8em" font-weight="bold" text-anchor="middle" pointer-events="visible" font-family="Open Sans" fill="#000000" transform="matrix(1,0,0,1,225,53.1)" style="fill: rgb(0, 0, 0);"><tspan dy="0" >Data Infrastructure</tspan></text><text  id="v-76" font-size="17" xml:space="preserve" y="0.8em" text-anchor="middle" font-family="Open Sans" fill="#000000" transform="matrix(1,0,0,1,225,95.6)" style="fill: rgb(0, 0, 0);"><tspan dy="0" >[Software System]</tspan></text><text  id="v-77" font-size="24" xml:space="preserve" y="0.8em" text-anchor="middle" font-family="Open Sans" fill="#000000" transform="matrix(1,0,0,1,225,126.9)" style="fill: rgb(0, 0, 0);"><tspan dy="0" >ntegrates every ISA-95 standard</tspan><tspan dy="1.2em" x="0" >layer with the Unified Namespace,</tspan><tspan dy="1.2em" x="0" >adding data sources beyond typical</tspan><tspan dy="1.2em" x="0" >automation pyramid bounds</tspan></text><g  id="v-78" color="#000000" transform="matrix(1,0,0,1,222.5,256.9)" style="fill: rgb(0, 0, 0);" display="none"><g ></g><g ></g><g ></g><g ></g></g><image  id="v-79"></image></g></g><g   id="j_3"  transform="translate(879,200)" style=""><g id="v-29"><rect  id="v-30" width="1990" height="1611" rx="0" ry="0" fill="#ffffff" stroke="#47a0b5" stroke-width="1" stroke-dasharray="20,20" pointer-events="none"></rect><text  id="v-31" font-size="24px" xml:space="preserve" y="1572" font-weight="normal" fill="#47a0b5" text-anchor="start" pointer-events="visible" font-family="Open Sans" transform="matrix(1,0,0,1,15,0)"><tspan dy="0" >Management Console</tspan></text><text  id="v-32" font-size="17px" xml:space="preserve" y="1596" font-weight="normal" fill="#47a0b5" text-anchor="start" pointer-events="visible" font-family="Open Sans" transform="matrix(1,0,0,1,15,0)"><tspan dy="0" >[Software System]</tspan></text><image  id="v-33" pointer-events="visible"></image></g></g><g   id="j_2"  transform="translate(899,820)" style=""><g  id="v-22" style="opacity: 1;"><rect  id="v-23" rx="1" ry="1" stroke="#47a0b5" stroke-width="8" pointer-events="visiblePainted" fill="#aaaaaa" width="450" height="300" style="fill: rgb(170, 170, 170); stroke: rgb(71, 160, 181);"></rect><text  id="v-24" font-size="34" xml:space="preserve" y="0.8em" font-weight="bold" text-anchor="middle" pointer-events="visible" font-family="Open Sans" fill="#000000" transform="matrix(1,0,0,1,225,98.1)" style="fill: rgb(0, 0, 0);"><tspan dy="0" >Single-Page Application</tspan></text><text  id="v-25" font-size="17" xml:space="preserve" y="0.8em" text-anchor="middle" font-family="Open Sans" fill="#000000" transform="matrix(1,0,0,1,225,140.6)" style="fill: rgb(0, 0, 0);"><tspan dy="0" >[Container: Svelte]</tspan></text><text  id="v-26" font-size="24" xml:space="preserve" y="0.8em" text-anchor="middle" font-family="Open Sans" fill="#000000" transform="matrix(1,0,0,1,225,171.9)" style="fill: rgb(0, 0, 0);"><tspan dy="0" >management.umh.app</tspan></text><g  id="v-27" color="#000000" transform="matrix(1,0,0,1,222.5,211.9)" style="fill: rgb(0, 0, 0);" display="none"><g ></g><g ></g><g ></g><g ></g></g><image  id="v-28"></image></g></g><g   id="j_4"  transform="translate(1649,820)" style=""><g  id="v-34" style="opacity: 1;"><rect  id="v-35" rx="1" ry="1" stroke="#47a0b5" stroke-width="8" pointer-events="visiblePainted" fill="#aaaaaa" width="450" height="300" style="fill: rgb(170, 170, 170); stroke: rgb(71, 160, 181);"></rect><text  id="v-36" font-size="34" xml:space="preserve" y="0.8em" font-weight="bold" text-anchor="middle" pointer-events="visible" font-family="Open Sans" fill="#000000" transform="matrix(1,0,0,1,225,98.1)" style="fill: rgb(0, 0, 0);"><tspan dy="0" >Backend</tspan></text><text  id="v-37" font-size="17" xml:space="preserve" y="0.8em" text-anchor="middle" font-family="Open Sans" fill="#000000" transform="matrix(1,0,0,1,225,140.6)" style="fill: rgb(0, 0, 0);"><tspan dy="0" >[Container: Docker, Go]</tspan></text><text  id="v-38" font-size="24" xml:space="preserve" y="0.8em" text-anchor="middle" font-family="Open Sans" fill="#000000" transform="matrix(1,0,0,1,225,171.9)" style="fill: rgb(0, 0, 0);"><tspan dy="0" >management.umh.app/api</tspan></text><g  id="v-39" color="#000000" transform="matrix(1,0,0,1,222.5,211.9)" style="fill: rgb(0, 0, 0);" display="none"><g ></g><g ></g><g ></g><g ></g></g><image  id="v-40"></image></g></g><g   id="j_6"  transform="translate(2399,1420)" style=""><g  id="v-60" style="opacity: 1;"><rect  id="v-61" rx="1" ry="1" stroke="#47a0b5" stroke-width="8" pointer-events="visiblePainted" fill="#aaaaaa" width="450" height="300" style="fill: rgb(170, 170, 170); stroke: rgb(71, 160, 181);"></rect><text  id="v-62" font-size="34" xml:space="preserve" y="0.8em" font-weight="bold" text-anchor="middle" pointer-events="visible" font-family="Open Sans" fill="#000000" transform="matrix(1,0,0,1,225,68.1)" style="fill: rgb(0, 0, 0);"><tspan dy="0" >Management Companion</tspan></text><text  id="v-63" font-size="17" xml:space="preserve" y="0.8em" text-anchor="middle" font-family="Open Sans" fill="#000000" transform="matrix(1,0,0,1,225,110.6)" style="fill: rgb(0, 0, 0);"><tspan dy="0" >[Container: Docker, Go]</tspan></text><text  id="v-64" font-size="24" xml:space="preserve" y="0.8em" text-anchor="middle" font-family="Open Sans" fill="#000000" transform="matrix(1,0,0,1,225,141.9)" style="fill: rgb(0, 0, 0);"><tspan dy="0" >Oversees automated, streamlined</tspan><tspan dy="1.2em" x="0" >installation of key software and</tspan><tspan dy="1.2em" x="0" >operating systems</tspan></text><g  id="v-65" color="#000000" transform="matrix(1,0,0,1,222.5,241.9)" style="fill: rgb(0, 0, 0);" display="none"><g ></g><g ></g><g ></g><g ></g></g><image  id="v-66"></image></g></g><g   id="j_8"  transform="translate(2399,820)" style=""><g  id="v-83" style="opacity: 1;"><rect  id="v-84" rx="1" ry="1" stroke="#47a0b5" stroke-width="8" pointer-events="visiblePainted" fill="#aaaaaa" width="450" height="300" style="fill: rgb(170, 170, 170); stroke: rgb(71, 160, 181);"></rect><text  id="v-85" font-size="34" xml:space="preserve" y="0.8em" font-weight="bold" text-anchor="middle" pointer-events="visible" font-family="Open Sans" fill="#000000" transform="matrix(1,0,0,1,225,83.1)" style="fill: rgb(0, 0, 0);"><tspan dy="0" >Key Storage</tspan></text><text  id="v-86" font-size="17" xml:space="preserve" y="0.8em" text-anchor="middle" font-family="Open Sans" fill="#000000" transform="matrix(1,0,0,1,225,125.6)" style="fill: rgb(0, 0, 0);"><tspan dy="0" >[Container: Database]</tspan></text><text  id="v-87" font-size="24" xml:space="preserve" y="0.8em" text-anchor="middle" font-family="Open Sans" fill="#000000" transform="matrix(1,0,0,1,225,156.9)" style="fill: rgb(0, 0, 0);"><tspan dy="0" >Stores and fetches encrypted</tspan><tspan dy="1.2em" x="0" >private keys.</tspan></text><g  id="v-88" color="#000000" transform="matrix(1,0,0,1,222.5,226.9)" style="fill: rgb(0, 0, 0);" display="none"><g ></g><g ></g><g ></g><g ></g></g><image  id="v-89"></image></g></g><g   id="j_9"  transform="translate(2399,220)" style=""><g  id="v-93" style="opacity: 1;"><rect  id="v-94" rx="1" ry="1" stroke="#47a0b5" stroke-width="8" pointer-events="visiblePainted" fill="#aaaaaa" width="450" height="300" style="fill: rgb(170, 170, 170); stroke: rgb(71, 160, 181);"></rect><text  id="v-95" font-size="34" xml:space="preserve" y="0.8em" font-weight="bold" text-anchor="middle" pointer-events="visible" font-family="Open Sans" fill="#000000" transform="matrix(1,0,0,1,225,98.1)" style="fill: rgb(0, 0, 0);"><tspan dy="0" >Message Queue</tspan></text><text  id="v-96" font-size="17" xml:space="preserve" y="0.8em" text-anchor="middle" font-family="Open Sans" fill="#000000" transform="matrix(1,0,0,1,225,140.6)" style="fill: rgb(0, 0, 0);"><tspan dy="0" >[Container: Redis]</tspan></text><text  id="v-97" font-size="24" xml:space="preserve" y="0.8em" text-anchor="middle" font-family="Open Sans" fill="#000000" transform="matrix(1,0,0,1,225,171.9)" style="fill: rgb(0, 0, 0);"><tspan dy="0" >Stores and forwards messages</tspan></text><g  id="v-98" color="#000000" transform="matrix(1,0,0,1,222.5,211.9)" style="fill: rgb(0, 0, 0);" display="none"><g ></g><g ></g><g ></g><g ></g></g><image  id="v-99"></image></g></g><g   id="j_10" ><path  stroke="#707070" d="M 599 970 L 899 970" id="v-112" stroke-width="2" stroke-dasharray="30 30" fill="none" style="opacity: 1;"></path><path  fill="black" stroke="black" d="M 0 0 0 0" transform="matrix(1,0,0,1,599,970)"></path><path  fill="#707070" stroke="#707070" d="M 20 0 L 0 10 L 20 20 z" id="v-114" transform="matrix(-1,1.2246467991473532e-16,-1.2246467991473532e-16,-1,899,980)" style="opacity: 1;"></path><path  d="M 599 970 L 899 970" id="v-113" fill="none" style="cursor: auto; pointer-events: visiblepainted;"></path><g ><g id="v-106"  label-idx="0" cursor="move" transform="matrix(1,0,0,1,749,970)" style="cursor: default; opacity: 1;"><rect joint-selector="rect" id="v-109" fill="#ffffff" rx="3" ry="3" pointer-events="none" width="185.90310668945312" height="320.2061004638672" transform="matrix(1,0,0,1,-92.2,-160.1)"></rect><text joint-selector="text" id="v-108" font-size="24px" xml:space="preserve" y="0.8em" fill="#707070" text-anchor="middle" pointer-events="none" font-family="Open Sans" font-weight="normal" transform="matrix(1,0,0,1,0,-153.5)"><tspan dy="0" >Opens</tspan><tspan dy="1.2em" x="0" >management.</tspan><tspan dy="1.2em" x="0" >umh.app, enters</tspan><tspan dy="1.2em" x="0" >his password to</tspan><tspan dy="1.2em" x="0" >decrypt private</tspan><tspan dy="1.2em" x="0" >key, and then</tspan><tspan dy="1.2em" x="0" >manages and</tspan><tspan dy="1.2em" x="0" >monitors the</tspan><tspan dy="1.2em" x="0" >entire</tspan><tspan dy="1.2em" x="0" >infrastructure</tspan><tspan dy="1.2em" x="0" >using the SPA</tspan></text></g><g id="v-107"  label-idx="1" cursor="move" transform="matrix(1,0,0,1,739,1147)" style="cursor: default; opacity: 1;"><rect joint-selector="rect" id="v-111" fill="#ffffff" rx="3" ry="3"  width="0" height="0" transform="matrix(1,0,0,1,0,0)" display="none"></rect><text joint-selector="text" id="v-110" fill="#000000" font-size="14" text-anchor="middle" pointer-events="none"></text></g></g><g  display="none" style="display: none;"></g><g  id="v-116" display="none"><g  id="v-104"><path  end="source" d="M 26 0 L 0 13 L 26 26 z"></path></g><g  id="v-105"><path  end="target" d="M 26 0 L 0 13 L 26 26 z"></path></g></g><g  id="v-115" display="none"><g  id="v-103" transform="translate(639, 970.0000000000001) "><g  event="remove"><circle r="11"></circle><path transform="scale(.8) translate(-16, -16)" d="M24.778,21.419 19.276,15.917 24.777,10.415 21.949,7.585 16.447,13.087 10.945,7.585 8.117,10.415 13.618,15.917 8.116,21.419 10.946,24.248 16.447,18.746 21.948,24.248z"></path><title>Remove link.</title></g><g  event="link:options"><circle r="11" transform="translate(25)"></circle><path fill="white" transform="scale(.55) translate(29, -16)" d="M31.229,17.736c0.064-0.571,0.104-1.148,0.104-1.736s-0.04-1.166-0.104-1.737l-4.377-1.557c-0.218-0.716-0.504-1.401-0.851-2.05l1.993-4.192c-0.725-0.91-1.549-1.734-2.458-2.459l-4.193,1.994c-0.647-0.347-1.334-0.632-2.049-0.849l-1.558-4.378C17.165,0.708,16.588,0.667,16,0.667s-1.166,0.041-1.737,0.105L12.707,5.15c-0.716,0.217-1.401,0.502-2.05,0.849L6.464,4.005C5.554,4.73,4.73,5.554,4.005,6.464l1.994,4.192c-0.347,0.648-0.632,1.334-0.849,2.05l-4.378,1.557C0.708,14.834,0.667,15.412,0.667,16s0.041,1.165,0.105,1.736l4.378,1.558c0.217,0.715,0.502,1.401,0.849,2.049l-1.994,4.193c0.725,0.909,1.549,1.733,2.459,2.458l4.192-1.993c0.648,0.347,1.334,0.633,2.05,0.851l1.557,4.377c0.571,0.064,1.148,0.104,1.737,0.104c0.588,0,1.165-0.04,1.736-0.104l1.558-4.377c0.715-0.218,1.399-0.504,2.049-0.851l4.193,1.993c0.909-0.725,1.733-1.549,2.458-2.458l-1.993-4.193c0.347-0.647,0.633-1.334,0.851-2.049L31.229,17.736zM16,20.871c-2.69,0-4.872-2.182-4.872-4.871c0-2.69,2.182-4.872,4.872-4.872c2.689,0,4.871,2.182,4.871,4.872C20.871,18.689,18.689,20.871,16,20.871z"></path><title>Link options.</title></g></g></g></g><g   id="j_11" ><path  stroke="#707070" d="M 3899 1234 L 3609 1192 C 3602.333333333333 1191.3333333333333 3595.666666666666 1191 3589 1191 L 3159 1191 C 3152.333333333333 1191 3146.333333333333 1193 3141 1197 L 2832 1420" id="v-131" stroke-width="2" stroke-dasharray="30 30" fill="none" style="opacity: 1;"></path><path  fill="black" stroke="black" d="M 0 0 0 0" transform="matrix(-0.9899495082698765,-0.1414212539763023,0.1414212539763023,-0.9899495082698765,3899,1233.857177734375)"></path><path  fill="#707070" stroke="#707070" d="M 20 0 L 0 10 L 20 20 z" id="v-133" transform="matrix(0.8108015224676024,-0.5853211863278298,0.5853211863278298,0.8108015224676024,2825.9303744745457,1411.8919251542272)" style="opacity: 1;"></path><path  d="M 3899 1234 L 3609 1192 C 3602.333333333333 1191.3333333333333 3595.666666666666 1191 3589 1191 L 3159 1191 C 3152.333333333333 1191 3146.333333333333 1193 3141 1197 L 2832 1420" id="v-132" fill="none" style="cursor: auto; pointer-events: visiblepainted;"></path><g ><g id="v-125"  label-idx="0" cursor="move" transform="matrix(1,0,0,1,3330.33984375,1191)" style="cursor: default; opacity: 1;"><rect joint-selector="rect" id="v-128" fill="#ffffff" rx="3" ry="3" pointer-events="none" width="180.2042236328125" height="147.40614318847656" transform="matrix(1,0,0,1,-89.8,-73.7)"></rect><text joint-selector="text" id="v-127" font-size="24px" xml:space="preserve" y="0.8em" fill="#707070" text-anchor="middle" pointer-events="none" font-family="Open Sans" font-weight="normal" transform="matrix(1,0,0,1,0,-67.1)"><tspan dy="0" >Deploys the</tspan><tspan dy="1.2em" x="0" >Management</tspan><tspan dy="1.2em" x="0" >Companion into</tspan><tspan dy="1.2em" x="0" >the Kubernetes</tspan><tspan dy="1.2em" x="0" >cluster</tspan></text></g><g id="v-126"  label-idx="1" cursor="move" transform="matrix(1,0,0,1,3320.33984375,1278)" style="cursor: default; opacity: 1;"><rect joint-selector="rect" id="v-130" fill="#ffffff" rx="3" ry="3"  width="0" height="0" transform="matrix(1,0,0,1,0,0)" display="none"></rect><text joint-selector="text" id="v-129" fill="#000000" font-size="14" text-anchor="middle" pointer-events="none"></text></g></g><g  display="none" style="display: none;"><g  transform="translate(3599, 1191)" id="v-290"><circle  idx="0" r="10"></circle><path  idx="0" d="M16,5.333c-7.732,0-14,4.701-14,10.5c0,1.982,0.741,3.833,2.016,5.414L2,25.667l5.613-1.441c2.339,1.317,5.237,2.107,8.387,2.107c7.732,0,14-4.701,14-10.5C30,10.034,23.732,5.333,16,5.333z" transform="translate(5, -33)"></path><path  idx="0" transform="scale(.8) translate(9.5, -37)" d="M24.778,21.419 19.276,15.917 24.777,10.415 21.949,7.585 16.447,13.087 10.945,7.585 8.117,10.415 13.618,15.917 8.116,21.419 10.946,24.248 16.447,18.746 21.948,24.248z"><title>Remove vertex.</title></path></g><g  transform="translate(3149, 1191)" id="v-291"><circle  idx="1" r="10"></circle><path  idx="1" d="M16,5.333c-7.732,0-14,4.701-14,10.5c0,1.982,0.741,3.833,2.016,5.414L2,25.667l5.613-1.441c2.339,1.317,5.237,2.107,8.387,2.107c7.732,0,14-4.701,14-10.5C30,10.034,23.732,5.333,16,5.333z" transform="translate(5, -33)"></path><path  idx="1" transform="scale(.8) translate(9.5, -37)" d="M24.778,21.419 19.276,15.917 24.777,10.415 21.949,7.585 16.447,13.087 10.945,7.585 8.117,10.415 13.618,15.917 8.116,21.419 10.946,24.248 16.447,18.746 21.948,24.248z"><title>Remove vertex.</title></path></g></g><g  id="v-135" display="none"><g  id="v-123"><path  end="source" d="M 26 0 L 0 13 L 26 26 z"></path></g><g  id="v-124"><path  end="target" d="M 26 0 L 0 13 L 26 26 z"></path></g></g><g  id="v-134" display="none"><g  id="v-120" transform="translate(3859.4130145886684, 1228.2667124576692) "><g  event="remove"><circle r="11"></circle><path transform="scale(.8) translate(-16, -16)" d="M24.778,21.419 19.276,15.917 24.777,10.415 21.949,7.585 16.447,13.087 10.945,7.585 8.117,10.415 13.618,15.917 8.116,21.419 10.946,24.248 16.447,18.746 21.948,24.248z"></path><title>Remove link.</title></g><g  event="link:options"><circle r="11" transform="translate(25)"></circle><path fill="white" transform="scale(.55) translate(29, -16)" d="M31.229,17.736c0.064-0.571,0.104-1.148,0.104-1.736s-0.04-1.166-0.104-1.737l-4.377-1.557c-0.218-0.716-0.504-1.401-0.851-2.05l1.993-4.192c-0.725-0.91-1.549-1.734-2.458-2.459l-4.193,1.994c-0.647-0.347-1.334-0.632-2.049-0.849l-1.558-4.378C17.165,0.708,16.588,0.667,16,0.667s-1.166,0.041-1.737,0.105L12.707,5.15c-0.716,0.217-1.401,0.502-2.05,0.849L6.464,4.005C5.554,4.73,4.73,5.554,4.005,6.464l1.994,4.192c-0.347,0.648-0.632,1.334-0.849,2.05l-4.378,1.557C0.708,14.834,0.667,15.412,0.667,16s0.041,1.165,0.105,1.736l4.378,1.558c0.217,0.715,0.502,1.401,0.849,2.049l-1.994,4.193c0.725,0.909,1.549,1.733,2.459,2.458l4.192-1.993c0.648,0.347,1.334,0.633,2.05,0.851l1.557,4.377c0.571,0.064,1.148,0.104,1.737,0.104c0.588,0,1.165-0.04,1.736-0.104l1.558-4.377c0.715-0.218,1.399-0.504,2.049-0.851l4.193,1.993c0.909-0.725,1.733-1.549,2.458-2.458l-1.993-4.193c0.347-0.647,0.633-1.334,0.851-2.049L31.229,17.736zM16,20.871c-2.69,0-4.872-2.182-4.872-4.871c0-2.69,2.182-4.872,4.872-4.872c2.689,0,4.871,2.182,4.871,4.872C20.871,18.689,18.689,20.871,16,20.871z"></path><title>Link options.</title></g></g></g></g><g   id="j_12" ><path  stroke="#707070" d="M 3560 1720 L 3938 1416" id="v-148" stroke-width="2" stroke-dasharray="30 30" fill="none" style="opacity: 1;"></path><path  fill="black" stroke="black" d="M 0 0 0 0" transform="matrix(0.7788385621389456,-0.6272244368049923,0.6272244368049923,0.7788385621389456,3560.25830078125,1720)"></path><path  fill="#707070" stroke="#707070" d="M 20 0 L 0 10 L 20 20 z" id="v-150" transform="matrix(-0.7788383950989465,0.6272246442222255,-0.6272246442222255,-0.7788383950989465,3944.013999533837,1423.7883543056423)" style="opacity: 1;"></path><path  d="M 3560 1720 L 3938 1416" id="v-149" fill="none" style="cursor: auto; pointer-events: visiblepainted;"></path><g ><g id="v-142"  label-idx="0" cursor="move" transform="matrix(1,0,0,1,3749,1568)" style="cursor: default; opacity: 1;"><rect joint-selector="rect" id="v-145" fill="#ffffff" rx="3" ry="3" pointer-events="none" width="153.71536254882812" height="32.20615768432617" transform="matrix(1,0,0,1,-76.7,-16.1)"></rect><text joint-selector="text" id="v-144" font-size="24px" xml:space="preserve" y="0.8em" fill="#707070" text-anchor="middle" pointer-events="none" font-family="Open Sans" font-weight="normal" transform="matrix(1,0,0,1,0,-9.5)"><tspan dy="0" >is installed on</tspan></text></g><g id="v-143"  label-idx="1" cursor="move" transform="matrix(1,0,0,1,3739,1595)" style="cursor: default; opacity: 1;"><rect joint-selector="rect" id="v-147" fill="#ffffff" rx="3" ry="3"  width="0" height="0" transform="matrix(1,0,0,1,0,0)" display="none"></rect><text joint-selector="text" id="v-146" fill="#000000" font-size="14" text-anchor="middle" pointer-events="none"></text></g></g><g  display="none" style="display: none;"></g><g  id="v-152" display="none"><g  id="v-140"><path  end="source" d="M 26 0 L 0 13 L 26 26 z"></path></g><g  id="v-141"><path  end="target" d="M 26 0 L 0 13 L 26 26 z"></path></g></g><g  id="v-151" display="none"><g  id="v-139" transform="translate(3591.170288903493, 1694.931831146397) "><g  event="remove"><circle r="11"></circle><path transform="scale(.8) translate(-16, -16)" d="M24.778,21.419 19.276,15.917 24.777,10.415 21.949,7.585 16.447,13.087 10.945,7.585 8.117,10.415 13.618,15.917 8.116,21.419 10.946,24.248 16.447,18.746 21.948,24.248z"></path><title>Remove link.</title></g><g  event="link:options"><circle r="11" transform="translate(25)"></circle><path fill="white" transform="scale(.55) translate(29, -16)" d="M31.229,17.736c0.064-0.571,0.104-1.148,0.104-1.736s-0.04-1.166-0.104-1.737l-4.377-1.557c-0.218-0.716-0.504-1.401-0.851-2.05l1.993-4.192c-0.725-0.91-1.549-1.734-2.458-2.459l-4.193,1.994c-0.647-0.347-1.334-0.632-2.049-0.849l-1.558-4.378C17.165,0.708,16.588,0.667,16,0.667s-1.166,0.041-1.737,0.105L12.707,5.15c-0.716,0.217-1.401,0.502-2.05,0.849L6.464,4.005C5.554,4.73,4.73,5.554,4.005,6.464l1.994,4.192c-0.347,0.648-0.632,1.334-0.849,2.05l-4.378,1.557C0.708,14.834,0.667,15.412,0.667,16s0.041,1.165,0.105,1.736l4.378,1.558c0.217,0.715,0.502,1.401,0.849,2.049l-1.994,4.193c0.725,0.909,1.549,1.733,2.459,2.458l4.192-1.993c0.648,0.347,1.334,0.633,2.05,0.851l1.557,4.377c0.571,0.064,1.148,0.104,1.737,0.104c0.588,0,1.165-0.04,1.736-0.104l1.558-4.377c0.715-0.218,1.399-0.504,2.049-0.851l4.193,1.993c0.909-0.725,1.733-1.549,2.458-2.458l-1.993-4.193c0.347-0.647,0.633-1.334,0.851-2.049L31.229,17.736zM16,20.871c-2.69,0-4.872-2.182-4.872-4.871c0-2.69,2.182-4.872,4.872-4.872c2.689,0,4.871,2.182,4.871,4.872C20.871,18.689,18.689,20.871,16,20.871z"></path><title>Link options.</title></g></g></g></g><g   id="j_13" ><path  stroke="#707070" d="M 2062 820 L 2437 520" id="v-165" stroke-width="2" stroke-dasharray="30 30" fill="none" style="opacity: 1;"></path><path  fill="black" stroke="black" d="M 0 0 0 0" transform="matrix(0.7808686753084834,-0.624695215222571,0.624695215222571,0.7808686753084834,2061.5,820)"></path><path  fill="#707070" stroke="#707070" d="M 20 0 L 0 10 L 20 20 z" id="v-167" transform="matrix(-0.7808688416748546,0.6246950072646418,-0.6246950072646418,-0.7808688416748546,2442.747044739395,527.8086865862896)" style="opacity: 1;"></path><path  d="M 2062 820 L 2437 520" id="v-166" fill="none" style="cursor: auto; pointer-events: visiblepainted;"></path><g ><g id="v-159"  label-idx="0" cursor="move" transform="matrix(1,0,0,1,2249.5,670)" style="cursor: default; opacity: 1;"><rect joint-selector="rect" id="v-162" fill="#ffffff" rx="3" ry="3" pointer-events="none" width="129.9317169189453" height="118.60615539550781" transform="matrix(1,0,0,1,-66,-59.3)"></rect><text joint-selector="text" id="v-161" font-size="24px" xml:space="preserve" y="0.8em" fill="#707070" text-anchor="middle" pointer-events="none" font-family="Open Sans" font-weight="normal" transform="matrix(1,0,0,1,0,-52.7)"><tspan dy="0" >Stores and</tspan><tspan dy="1.2em" x="0" >fetches E2E</tspan><tspan dy="1.2em" x="0" >encrypted</tspan><tspan dy="1.2em" x="0" >messages</tspan></text></g><g id="v-160"  label-idx="1" cursor="move" transform="matrix(1,0,0,1,2239.5,742)" style="cursor: default; opacity: 1;"><rect joint-selector="rect" id="v-164" fill="#ffffff" rx="3" ry="3"  width="0" height="0" transform="matrix(1,0,0,1,0,0)" display="none"></rect><text joint-selector="text" id="v-163" fill="#000000" font-size="14" text-anchor="middle" pointer-events="none"></text></g></g><g  display="none" style="display: none;"></g><g  id="v-169" display="none"><g  id="v-157"><path  end="source" d="M 26 0 L 0 13 L 26 26 z"></path></g><g  id="v-158"><path  end="target" d="M 26 0 L 0 13 L 26 26 z"></path></g></g><g  id="v-168" display="none"><g  id="v-156" transform="translate(2093.234752377721, 795.0121980978231) "><g  event="remove"><circle r="11"></circle><path transform="scale(.8) translate(-16, -16)" d="M24.778,21.419 19.276,15.917 24.777,10.415 21.949,7.585 16.447,13.087 10.945,7.585 8.117,10.415 13.618,15.917 8.116,21.419 10.946,24.248 16.447,18.746 21.948,24.248z"></path><title>Remove link.</title></g><g  event="link:options"><circle r="11" transform="translate(25)"></circle><path fill="white" transform="scale(.55) translate(29, -16)" d="M31.229,17.736c0.064-0.571,0.104-1.148,0.104-1.736s-0.04-1.166-0.104-1.737l-4.377-1.557c-0.218-0.716-0.504-1.401-0.851-2.05l1.993-4.192c-0.725-0.91-1.549-1.734-2.458-2.459l-4.193,1.994c-0.647-0.347-1.334-0.632-2.049-0.849l-1.558-4.378C17.165,0.708,16.588,0.667,16,0.667s-1.166,0.041-1.737,0.105L12.707,5.15c-0.716,0.217-1.401,0.502-2.05,0.849L6.464,4.005C5.554,4.73,4.73,5.554,4.005,6.464l1.994,4.192c-0.347,0.648-0.632,1.334-0.849,2.05l-4.378,1.557C0.708,14.834,0.667,15.412,0.667,16s0.041,1.165,0.105,1.736l4.378,1.558c0.217,0.715,0.502,1.401,0.849,2.049l-1.994,4.193c0.725,0.909,1.549,1.733,2.459,2.458l4.192-1.993c0.648,0.347,1.334,0.633,2.05,0.851l1.557,4.377c0.571,0.064,1.148,0.104,1.737,0.104c0.588,0,1.165-0.04,1.736-0.104l1.558-4.377c0.715-0.218,1.399-0.504,2.049-0.851l4.193,1.993c0.909-0.725,1.733-1.549,2.458-2.458l-1.993-4.193c0.347-0.647,0.633-1.334,0.851-2.049L31.229,17.736zM16,20.871c-2.69,0-4.872-2.182-4.872-4.871c0-2.69,2.182-4.872,4.872-4.872c2.689,0,4.871,2.182,4.871,4.872C20.871,18.689,18.689,20.871,16,20.871z"></path><title>Link options.</title></g></g></g></g><g   id="j_14" ><path  stroke="#707070" d="M 2062 1120 L 2437 1420" id="v-182" stroke-width="2" stroke-dasharray="30 30" fill="none" style="opacity: 1;"></path><path  fill="black" stroke="black" d="M 0 0 0 0" transform="matrix(0.7808688000832672,0.624695059254128,-0.624695059254128,0.7808688000832672,2061.5,1120)"></path><path  fill="#707070" stroke="#707070" d="M 20 0 L 0 10 L 20 20 z" id="v-184" transform="matrix(-0.7808688416748548,-0.6246950072646416,0.6246950072646416,-0.7808688416748548,2430.253144594102,1427.8086902472076)" style="opacity: 1;"></path><path  d="M 2062 1120 L 2437 1420" id="v-183" fill="none" style="cursor: auto; pointer-events: visiblepainted;"></path><g ><g id="v-176"  label-idx="0" cursor="move" transform="matrix(1,0,0,1,2249.5,1270)" style="cursor: default; opacity: 1;"><rect joint-selector="rect" id="v-179" fill="#ffffff" rx="3" ry="3" pointer-events="none" width="168.82943725585938" height="89.80615234375" transform="matrix(1,0,0,1,-83.7,-44.9)"></rect><text joint-selector="text" id="v-178" font-size="24px" xml:space="preserve" y="0.8em" fill="#707070" text-anchor="middle" pointer-events="none" font-family="Open Sans" font-weight="normal" transform="matrix(1,0,0,1,0,-38.3)"><tspan dy="0" >Sends/receives</tspan><tspan dy="1.2em" x="0" >E2E encrypted</tspan><tspan dy="1.2em" x="0" >messages</tspan></text></g><g id="v-177"  label-idx="1" cursor="move" transform="matrix(1,0,0,1,2239.5,1327)" style="cursor: default; opacity: 1;"><rect joint-selector="rect" id="v-181" fill="#ffffff" rx="3" ry="3"  width="0" height="0" transform="matrix(1,0,0,1,0,0)" display="none"></rect><text joint-selector="text" id="v-180" fill="#000000" font-size="14" text-anchor="middle" pointer-events="none"></text></g></g><g  display="none" style="display: none;"></g><g  id="v-186" display="none"><g  id="v-174"><path  end="source" d="M 26 0 L 0 13 L 26 26 z"></path></g><g  id="v-175"><path  end="target" d="M 26 0 L 0 13 L 26 26 z"></path></g></g><g  id="v-185" display="none"><g  id="v-173" transform="translate(2093.234752377721, 1144.987801902177) "><g  event="remove"><circle r="11"></circle><path transform="scale(.8) translate(-16, -16)" d="M24.778,21.419 19.276,15.917 24.777,10.415 21.949,7.585 16.447,13.087 10.945,7.585 8.117,10.415 13.618,15.917 8.116,21.419 10.946,24.248 16.447,18.746 21.948,24.248z"></path><title>Remove link.</title></g><g  event="link:options"><circle r="11" transform="translate(25)"></circle><path fill="white" transform="scale(.55) translate(29, -16)" d="M31.229,17.736c0.064-0.571,0.104-1.148,0.104-1.736s-0.04-1.166-0.104-1.737l-4.377-1.557c-0.218-0.716-0.504-1.401-0.851-2.05l1.993-4.192c-0.725-0.91-1.549-1.734-2.458-2.459l-4.193,1.994c-0.647-0.347-1.334-0.632-2.049-0.849l-1.558-4.378C17.165,0.708,16.588,0.667,16,0.667s-1.166,0.041-1.737,0.105L12.707,5.15c-0.716,0.217-1.401,0.502-2.05,0.849L6.464,4.005C5.554,4.73,4.73,5.554,4.005,6.464l1.994,4.192c-0.347,0.648-0.632,1.334-0.849,2.05l-4.378,1.557C0.708,14.834,0.667,15.412,0.667,16s0.041,1.165,0.105,1.736l4.378,1.558c0.217,0.715,0.502,1.401,0.849,2.049l-1.994,4.193c0.725,0.909,1.549,1.733,2.459,2.458l4.192-1.993c0.648,0.347,1.334,0.633,2.05,0.851l1.557,4.377c0.571,0.064,1.148,0.104,1.737,0.104c0.588,0,1.165-0.04,1.736-0.104l1.558-4.377c0.715-0.218,1.399-0.504,2.049-0.851l4.193,1.993c0.909-0.725,1.733-1.549,2.458-2.458l-1.993-4.193c0.347-0.647,0.633-1.334,0.851-2.049L31.229,17.736zM16,20.871c-2.69,0-4.872-2.182-4.872-4.871c0-2.69,2.182-4.872,4.872-4.872c2.689,0,4.871,2.182,4.871,4.872C20.871,18.689,18.689,20.871,16,20.871z"></path><title>Link options.</title></g></g></g></g><g   id="j_15" ><path  stroke="#707070" d="M 2849 1524 L 3899 1312" id="v-199" stroke-width="2" stroke-dasharray="30 30" fill="none" style="opacity: 1;"></path><path  fill="black" stroke="black" d="M 0 0 0 0" transform="matrix(0.980074896433703,-0.19862828947676664,0.19862828947676664,0.980074896433703,2849,1524.4000244140625)"></path><path  fill="#707070" stroke="#707070" d="M 20 0 L 0 10 L 20 20 z" id="v-201" transform="matrix(-0.9800748435357551,0.1986285504864926,-0.1986285504864926,-0.9800748435357551,3900.9862526902225,1321.4007666414302)" style="opacity: 1;"></path><path  d="M 2849 1524 L 3899 1312" id="v-200" fill="none" style="cursor: auto; pointer-events: visiblepainted;"></path><g ><g id="v-193"  label-idx="0" cursor="move" transform="matrix(1,0,0,1,3374,1418)" style="cursor: default; opacity: 1;"><rect joint-selector="rect" id="v-196" fill="#ffffff" rx="3" ry="3" pointer-events="none" width="126.40327072143555" height="61.00615692138672" transform="matrix(1,0,0,1,-62.3,-30.5)"></rect><text joint-selector="text" id="v-195" font-size="24px" xml:space="preserve" y="0.8em" fill="#707070" text-anchor="middle" pointer-events="none" font-family="Open Sans" font-weight="normal" transform="matrix(1,0,0,1,0,-23.9)"><tspan dy="0" >Manages &amp;</tspan><tspan dy="1.2em" x="0" >monitors</tspan></text></g><g id="v-194"  label-idx="1" cursor="move" transform="matrix(1,0,0,1,3364,1460)" style="cursor: default; opacity: 1;"><rect joint-selector="rect" id="v-198" fill="#ffffff" rx="3" ry="3"  width="0" height="0" transform="matrix(1,0,0,1,0,0)" display="none"></rect><text joint-selector="text" id="v-197" fill="#000000" font-size="14" text-anchor="middle" pointer-events="none"></text></g></g><g  display="none" style="display: none;"></g><g  id="v-203" display="none"><g  id="v-191"><path  end="source" d="M 26 0 L 0 13 L 26 26 z"></path></g><g  id="v-192"><path  end="target" d="M 26 0 L 0 13 L 26 26 z"></path></g></g><g  id="v-202" display="none"><g  id="v-190" transform="translate(2888.2087990933237, 1516.083556754491) "><g  event="remove"><circle r="11"></circle><path transform="scale(.8) translate(-16, -16)" d="M24.778,21.419 19.276,15.917 24.777,10.415 21.949,7.585 16.447,13.087 10.945,7.585 8.117,10.415 13.618,15.917 8.116,21.419 10.946,24.248 16.447,18.746 21.948,24.248z"></path><title>Remove link.</title></g><g  event="link:options"><circle r="11" transform="translate(25)"></circle><path fill="white" transform="scale(.55) translate(29, -16)" d="M31.229,17.736c0.064-0.571,0.104-1.148,0.104-1.736s-0.04-1.166-0.104-1.737l-4.377-1.557c-0.218-0.716-0.504-1.401-0.851-2.05l1.993-4.192c-0.725-0.91-1.549-1.734-2.458-2.459l-4.193,1.994c-0.647-0.347-1.334-0.632-2.049-0.849l-1.558-4.378C17.165,0.708,16.588,0.667,16,0.667s-1.166,0.041-1.737,0.105L12.707,5.15c-0.716,0.217-1.401,0.502-2.05,0.849L6.464,4.005C5.554,4.73,4.73,5.554,4.005,6.464l1.994,4.192c-0.347,0.648-0.632,1.334-0.849,2.05l-4.378,1.557C0.708,14.834,0.667,15.412,0.667,16s0.041,1.165,0.105,1.736l4.378,1.558c0.217,0.715,0.502,1.401,0.849,2.049l-1.994,4.193c0.725,0.909,1.549,1.733,2.459,2.458l4.192-1.993c0.648,0.347,1.334,0.633,2.05,0.851l1.557,4.377c0.571,0.064,1.148,0.104,1.737,0.104c0.588,0,1.165-0.04,1.736-0.104l1.558-4.377c0.715-0.218,1.399-0.504,2.049-0.851l4.193,1.993c0.909-0.725,1.733-1.549,2.458-2.458l-1.993-4.193c0.347-0.647,0.633-1.334,0.851-2.049L31.229,17.736zM16,20.871c-2.69,0-4.872-2.182-4.872-4.871c0-2.69,2.182-4.872,4.872-4.872c2.689,0,4.871,2.182,4.871,4.872C20.871,18.689,18.689,20.871,16,20.871z"></path><title>Link options.</title></g></g></g></g><g   id="j_16" ><path  stroke="#707070" d="M 2099 970 L 2399 970" id="v-216" stroke-width="2" stroke-dasharray="30 30" fill="none" style="opacity: 1;"></path><path  fill="black" stroke="black" d="M 0 0 0 0" transform="matrix(1,0,0,1,2099,970)"></path><path  fill="#707070" stroke="#707070" d="M 20 0 L 0 10 L 20 20 z" id="v-218" transform="matrix(-1,1.2246467991473532e-16,-1.2246467991473532e-16,-1,2399,980)" style="opacity: 1;"></path><path  d="M 2099 970 L 2399 970" id="v-217" fill="none" style="cursor: auto; pointer-events: visiblepainted;"></path><g ><g id="v-210"  label-idx="0" cursor="move" transform="matrix(1,0,0,1,2249,970)" style="cursor: default; opacity: 1;"><rect joint-selector="rect" id="v-213" fill="#ffffff" rx="3" ry="3" pointer-events="none" width="196.92723083496094" height="89.80615234375" transform="matrix(1,0,0,1,-98.5,-44.9)"></rect><text joint-selector="text" id="v-212" font-size="24px" xml:space="preserve" y="0.8em" fill="#707070" text-anchor="middle" pointer-events="none" font-family="Open Sans" font-weight="normal" transform="matrix(1,0,0,1,0,-38.3)"><tspan dy="0" >Fetches</tspan><tspan dy="1.2em" x="0" >encrypted private</tspan><tspan dy="1.2em" x="0" >key</tspan></text></g><g id="v-211"  label-idx="1" cursor="move" transform="matrix(1,0,0,1,2239,1027)" style="cursor: default; opacity: 1;"><rect joint-selector="rect" id="v-215" fill="#ffffff" rx="3" ry="3"  width="0" height="0" transform="matrix(1,0,0,1,0,0)" display="none"></rect><text joint-selector="text" id="v-214" fill="#000000" font-size="14" text-anchor="middle" pointer-events="none"></text></g></g><g  display="none" style="display: none;"></g><g  id="v-220" display="none"><g  id="v-208"><path  end="source" d="M 26 0 L 0 13 L 26 26 z"></path></g><g  id="v-209"><path  end="target" d="M 26 0 L 0 13 L 26 26 z"></path></g></g><g  id="v-219" display="none"><g  id="v-207" transform="translate(2139, 970.0000000000001) "><g  event="remove"><circle r="11"></circle><path transform="scale(.8) translate(-16, -16)" d="M24.778,21.419 19.276,15.917 24.777,10.415 21.949,7.585 16.447,13.087 10.945,7.585 8.117,10.415 13.618,15.917 8.116,21.419 10.946,24.248 16.447,18.746 21.948,24.248z"></path><title>Remove link.</title></g><g  event="link:options"><circle r="11" transform="translate(25)"></circle><path fill="white" transform="scale(.55) translate(29, -16)" d="M31.229,17.736c0.064-0.571,0.104-1.148,0.104-1.736s-0.04-1.166-0.104-1.737l-4.377-1.557c-0.218-0.716-0.504-1.401-0.851-2.05l1.993-4.192c-0.725-0.91-1.549-1.734-2.458-2.459l-4.193,1.994c-0.647-0.347-1.334-0.632-2.049-0.849l-1.558-4.378C17.165,0.708,16.588,0.667,16,0.667s-1.166,0.041-1.737,0.105L12.707,5.15c-0.716,0.217-1.401,0.502-2.05,0.849L6.464,4.005C5.554,4.73,4.73,5.554,4.005,6.464l1.994,4.192c-0.347,0.648-0.632,1.334-0.849,2.05l-4.378,1.557C0.708,14.834,0.667,15.412,0.667,16s0.041,1.165,0.105,1.736l4.378,1.558c0.217,0.715,0.502,1.401,0.849,2.049l-1.994,4.193c0.725,0.909,1.549,1.733,2.459,2.458l4.192-1.993c0.648,0.347,1.334,0.633,2.05,0.851l1.557,4.377c0.571,0.064,1.148,0.104,1.737,0.104c0.588,0,1.165-0.04,1.736-0.104l1.558-4.377c0.715-0.218,1.399-0.504,2.049-0.851l4.193,1.993c0.909-0.725,1.733-1.549,2.458-2.458l-1.993-4.193c0.347-0.647,0.633-1.334,0.851-2.049L31.229,17.736zM16,20.871c-2.69,0-4.872-2.182-4.872-4.871c0-2.69,2.182-4.872,4.872-4.872c2.689,0,4.871,2.182,4.871,4.872C20.871,18.689,18.689,20.871,16,20.871z"></path><title>Link options.</title></g></g></g></g><g   id="j_17" ><path  stroke="#707070" d="M 1349 970 L 1649 970" id="v-233" stroke-width="2" stroke-dasharray="30 30" fill="none" style="opacity: 1;"></path><path  fill="black" stroke="black" d="M 0 0 0 0" transform="matrix(1,0,0,1,1349,970)"></path><path  fill="#707070" stroke="#707070" d="M 20 0 L 0 10 L 20 20 z" id="v-235" transform="matrix(-1,1.2246467991473532e-16,-1.2246467991473532e-16,-1,1649,980)" style="opacity: 1;"></path><path  d="M 1349 970 L 1649 970" id="v-234" fill="none" style="cursor: auto; pointer-events: visiblepainted;"></path><g ><g id="v-227"  label-idx="0" cursor="move" transform="matrix(1,0,0,1,1499,970)" style="cursor: default; opacity: 1;"><rect joint-selector="rect" id="v-230" fill="#ffffff" rx="3" ry="3" pointer-events="none" width="196.92723083496094" height="205.00616455078125" transform="matrix(1,0,0,1,-98.5,-102.5)"></rect><text joint-selector="text" id="v-229" font-size="24px" xml:space="preserve" y="0.8em" fill="#707070" text-anchor="middle" pointer-events="none" font-family="Open Sans" font-weight="normal" transform="matrix(1,0,0,1,0,-95.9)"><tspan dy="0" >Sends/receives</tspan><tspan dy="1.2em" x="0" >E2E encrypted</tspan><tspan dy="1.2em" x="0" >messages,</tspan><tspan dy="1.2em" x="0" >fetches</tspan><tspan dy="1.2em" x="0" >encrypted private</tspan><tspan dy="1.2em" x="0" >key from</tspan><tspan dy="1.2em" x="0" >backend</tspan></text></g><g id="v-228"  label-idx="1" cursor="move" transform="matrix(1,0,0,1,1489,1087)" style="cursor: default; opacity: 1;"><rect joint-selector="rect" id="v-232" fill="#ffffff" rx="3" ry="3"  width="0" height="0" transform="matrix(1,0,0,1,0,0)" display="none"></rect><text joint-selector="text" id="v-231" fill="#000000" font-size="14" text-anchor="middle" pointer-events="none"></text></g></g><g  display="none" style="display: none;"></g><g  id="v-237" display="none"><g  id="v-225"><path  end="source" d="M 26 0 L 0 13 L 26 26 z"></path></g><g  id="v-226"><path  end="target" d="M 26 0 L 0 13 L 26 26 z"></path></g></g><g  id="v-236" display="none"><g  id="v-224" transform="translate(1389, 970.0000000000001) "><g  event="remove"><circle r="11"></circle><path transform="scale(.8) translate(-16, -16)" d="M24.778,21.419 19.276,15.917 24.777,10.415 21.949,7.585 16.447,13.087 10.945,7.585 8.117,10.415 13.618,15.917 8.116,21.419 10.946,24.248 16.447,18.746 21.948,24.248z"></path><title>Remove link.</title></g><g  event="link:options"><circle r="11" transform="translate(25)"></circle><path fill="white" transform="scale(.55) translate(29, -16)" d="M31.229,17.736c0.064-0.571,0.104-1.148,0.104-1.736s-0.04-1.166-0.104-1.737l-4.377-1.557c-0.218-0.716-0.504-1.401-0.851-2.05l1.993-4.192c-0.725-0.91-1.549-1.734-2.458-2.459l-4.193,1.994c-0.647-0.347-1.334-0.632-2.049-0.849l-1.558-4.378C17.165,0.708,16.588,0.667,16,0.667s-1.166,0.041-1.737,0.105L12.707,5.15c-0.716,0.217-1.401,0.502-2.05,0.849L6.464,4.005C5.554,4.73,4.73,5.554,4.005,6.464l1.994,4.192c-0.347,0.648-0.632,1.334-0.849,2.05l-4.378,1.557C0.708,14.834,0.667,15.412,0.667,16s0.041,1.165,0.105,1.736l4.378,1.558c0.217,0.715,0.502,1.401,0.849,2.049l-1.994,4.193c0.725,0.909,1.549,1.733,2.459,2.458l4.192-1.993c0.648,0.347,1.334,0.633,2.05,0.851l1.557,4.377c0.571,0.064,1.148,0.104,1.737,0.104c0.588,0,1.165-0.04,1.736-0.104l1.558-4.377c0.715-0.218,1.399-0.504,2.049-0.851l4.193,1.993c0.909-0.725,1.733-1.549,2.458-2.458l-1.993-4.193c0.347-0.647,0.633-1.334,0.851-2.049L31.229,17.736zM16,20.871c-2.69,0-4.872-2.182-4.872-4.871c0-2.69,2.182-4.872,4.872-4.872c2.689,0,4.871,2.182,4.871,4.872C20.871,18.689,18.689,20.871,16,20.871z"></path><title>Link options.</title></g></g></g></g><g   id="j_18" ><path  stroke="#707070" d="M 2790 1720 L 2936 1852 C 2940.6666666666665 1856.6666666666665 2946.333333333333 1859 2953 1859 L 3149 1864" id="v-251" stroke-width="2" stroke-dasharray="30 30" fill="none" style="opacity: 1;"></path><path  fill="black" stroke="black" d="M 0 0 0 0" transform="matrix(0.7410953036414224,0.6713998442959515,-0.6713998442959515,0.7410953036414224,2789.571044921875,1720)"></path><path  fill="#707070" stroke="#707070" d="M 20 0 L 0 10 L 20 20 z" id="v-253" transform="matrix(-0.9996744706197362,-0.025513776497218175,0.025513776497218175,-0.9996744706197362,3148.74478076935,1874.2543238774194)" style="opacity: 1;"></path><path  d="M 2790 1720 L 2936 1852 C 2940.6666666666665 1856.6666666666665 2946.333333333333 1859 2953 1859 L 3149 1864" id="v-252" fill="none" style="cursor: auto; pointer-events: visiblepainted;"></path><g ><g id="v-245"  label-idx="0" cursor="move" transform="matrix(1,0,0,1,2943.419189453125,1857.110595703125)" style="cursor: default; opacity: 1;"><rect joint-selector="rect" id="v-248" fill="#ffffff" rx="3" ry="3" pointer-events="none" width="150.14370727539062" height="61.00615692138672" transform="matrix(1,0,0,1,-74.9,-30.5)"></rect><text joint-selector="text" id="v-247" font-size="24px" xml:space="preserve" y="0.8em" fill="#707070" text-anchor="middle" pointer-events="none" font-family="Open Sans" font-weight="normal" transform="matrix(1,0,0,1,0,-23.9)"><tspan dy="0" >Manages and</tspan><tspan dy="1.2em" x="0" >monitors</tspan></text></g><g id="v-246"  label-idx="1" cursor="move" transform="matrix(1,0,0,1,2933.419189453125,1899.110595703125)" style="cursor: default; opacity: 1;"><rect joint-selector="rect" id="v-250" fill="#ffffff" rx="3" ry="3"  width="0" height="0" transform="matrix(1,0,0,1,0,0)" display="none"></rect><text joint-selector="text" id="v-249" fill="#000000" font-size="14" text-anchor="middle" pointer-events="none"></text></g></g><g  display="none" style="display: none;"><g  transform="translate(2943, 1859)" id="v-292"><circle  idx="0" r="10"></circle><path  idx="0" d="M16,5.333c-7.732,0-14,4.701-14,10.5c0,1.982,0.741,3.833,2.016,5.414L2,25.667l5.613-1.441c2.339,1.317,5.237,2.107,8.387,2.107c7.732,0,14-4.701,14-10.5C30,10.034,23.732,5.333,16,5.333z" transform="translate(5, -33)"></path><path  idx="0" transform="scale(.8) translate(9.5, -37)" d="M24.778,21.419 19.276,15.917 24.777,10.415 21.949,7.585 16.447,13.087 10.945,7.585 8.117,10.415 13.618,15.917 8.116,21.419 10.946,24.248 16.447,18.746 21.948,24.248z"><title>Remove vertex.</title></path></g></g><g  id="v-255" display="none"><g  id="v-243"><path  end="source" d="M 26 0 L 0 13 L 26 26 z"></path></g><g  id="v-244"><path  end="target" d="M 26 0 L 0 13 L 26 26 z"></path></g></g><g  id="v-254" display="none"><g  id="v-241" transform="translate(2819.6710584379475, 1746.825888450747) "><g  event="remove"><circle r="11"></circle><path transform="scale(.8) translate(-16, -16)" d="M24.778,21.419 19.276,15.917 24.777,10.415 21.949,7.585 16.447,13.087 10.945,7.585 8.117,10.415 13.618,15.917 8.116,21.419 10.946,24.248 16.447,18.746 21.948,24.248z"></path><title>Remove link.</title></g><g  event="link:options"><circle r="11" transform="translate(25)"></circle><path fill="white" transform="scale(.55) translate(29, -16)" d="M31.229,17.736c0.064-0.571,0.104-1.148,0.104-1.736s-0.04-1.166-0.104-1.737l-4.377-1.557c-0.218-0.716-0.504-1.401-0.851-2.05l1.993-4.192c-0.725-0.91-1.549-1.734-2.458-2.459l-4.193,1.994c-0.647-0.347-1.334-0.632-2.049-0.849l-1.558-4.378C17.165,0.708,16.588,0.667,16,0.667s-1.166,0.041-1.737,0.105L12.707,5.15c-0.716,0.217-1.401,0.502-2.05,0.849L6.464,4.005C5.554,4.73,4.73,5.554,4.005,6.464l1.994,4.192c-0.347,0.648-0.632,1.334-0.849,2.05l-4.378,1.557C0.708,14.834,0.667,15.412,0.667,16s0.041,1.165,0.105,1.736l4.378,1.558c0.217,0.715,0.502,1.401,0.849,2.049l-1.994,4.193c0.725,0.909,1.549,1.733,2.459,2.458l4.192-1.993c0.648,0.347,1.334,0.633,2.05,0.851l1.557,4.377c0.571,0.064,1.148,0.104,1.737,0.104c0.588,0,1.165-0.04,1.736-0.104l1.558-4.377c0.715-0.218,1.399-0.504,2.049-0.851l4.193,1.993c0.909-0.725,1.733-1.549,2.458-2.458l-1.993-4.193c0.347-0.647,0.633-1.334,0.851-2.049L31.229,17.736zM16,20.871c-2.69,0-4.872-2.182-4.872-4.871c0-2.69,2.182-4.872,4.872-4.872c2.689,0,4.871,2.182,4.871,4.872C20.871,18.689,18.689,20.871,16,20.871z"></path><title>Link options.</title></g></g></g></g><g   id="j_19" ><path  stroke="#707070" d="M 2849 1575 L 3044 1580 C 3050.6666666666665 1580 3056.333333333333 1582.3333333333333 3061 1587 L 3208 1720" id="v-269" stroke-width="2" stroke-dasharray="30 30" fill="none" style="opacity: 1;"></path><path  fill="black" stroke="black" d="M 0 0 0 0" transform="matrix(0.9997296932028407,0.023249527490986126,-0.023249527490986126,0.9997296932028407,2849,1575.2325439453125)"></path><path  fill="#707070" stroke="#707070" d="M 20 0 L 0 10 L 20 20 z" id="v-271" transform="matrix(-0.7409868936974786,-0.6715194884503066,0.6715194884503066,-0.7409868936974786,3201.767672099347,1727.4098538605404)" style="opacity: 1;"></path><path  d="M 2849 1575 L 3044 1580 C 3050.6666666666665 1580 3056.333333333333 1582.3333333333333 3061 1587 L 3208 1720" id="v-270" fill="none" style="cursor: auto; pointer-events: visiblepainted;"></path><g ><g id="v-263"  label-idx="0" cursor="move" transform="matrix(1,0,0,1,3054.656494140625,1582.38720703125)" style="cursor: default; opacity: 1;"><rect joint-selector="rect" id="v-266" fill="#ffffff" rx="3" ry="3" pointer-events="none" width="126.40327072143555" height="61.00615692138672" transform="matrix(1,0,0,1,-62.3,-30.5)"></rect><text joint-selector="text" id="v-265" font-size="24px" xml:space="preserve" y="0.8em" fill="#707070" text-anchor="middle" pointer-events="none" font-family="Open Sans" font-weight="normal" transform="matrix(1,0,0,1,0,-23.9)"><tspan dy="0" >Manages &amp;</tspan><tspan dy="1.2em" x="0" >monitors</tspan></text></g><g id="v-264"  label-idx="1" cursor="move" transform="matrix(1,0,0,1,3044.656494140625,1624.38720703125)" style="cursor: default; opacity: 1;"><rect joint-selector="rect" id="v-268" fill="#ffffff" rx="3" ry="3"  width="0" height="0" transform="matrix(1,0,0,1,0,0)" display="none"></rect><text joint-selector="text" id="v-267" fill="#000000" font-size="14" text-anchor="middle" pointer-events="none"></text></g></g><g  display="none" style="display: none;"><g  transform="translate(3054, 1580)" id="v-293"><circle  idx="0" r="10"></circle><path  idx="0" d="M16,5.333c-7.732,0-14,4.701-14,10.5c0,1.982,0.741,3.833,2.016,5.414L2,25.667l5.613-1.441c2.339,1.317,5.237,2.107,8.387,2.107c7.732,0,14-4.701,14-10.5C30,10.034,23.732,5.333,16,5.333z" transform="translate(5, -33)"></path><path  idx="0" transform="scale(.8) translate(9.5, -37)" d="M24.778,21.419 19.276,15.917 24.777,10.415 21.949,7.585 16.447,13.087 10.945,7.585 8.117,10.415 13.618,15.917 8.116,21.419 10.946,24.248 16.447,18.746 21.948,24.248z"><title>Remove vertex.</title></path></g></g><g  id="v-273" display="none"><g  id="v-261"><path  end="source" d="M 26 0 L 0 13 L 26 26 z"></path></g><g  id="v-262"><path  end="target" d="M 26 0 L 0 13 L 26 26 z"></path></g></g><g  id="v-272" display="none"><g  id="v-259" transform="translate(2888.986857236379, 1576.025304031702) "><g  event="remove"><circle r="11"></circle><path transform="scale(.8) translate(-16, -16)" d="M24.778,21.419 19.276,15.917 24.777,10.415 21.949,7.585 16.447,13.087 10.945,7.585 8.117,10.415 13.618,15.917 8.116,21.419 10.946,24.248 16.447,18.746 21.948,24.248z"></path><title>Remove link.</title></g><g  event="link:options"><circle r="11" transform="translate(25)"></circle><path fill="white" transform="scale(.55) translate(29, -16)" d="M31.229,17.736c0.064-0.571,0.104-1.148,0.104-1.736s-0.04-1.166-0.104-1.737l-4.377-1.557c-0.218-0.716-0.504-1.401-0.851-2.05l1.993-4.192c-0.725-0.91-1.549-1.734-2.458-2.459l-4.193,1.994c-0.647-0.347-1.334-0.632-2.049-0.849l-1.558-4.378C17.165,0.708,16.588,0.667,16,0.667s-1.166,0.041-1.737,0.105L12.707,5.15c-0.716,0.217-1.401,0.502-2.05,0.849L6.464,4.005C5.554,4.73,4.73,5.554,4.005,6.464l1.994,4.192c-0.347,0.648-0.632,1.334-0.849,2.05l-4.378,1.557C0.708,14.834,0.667,15.412,0.667,16s0.041,1.165,0.105,1.736l4.378,1.558c0.217,0.715,0.502,1.401,0.849,2.049l-1.994,4.193c0.725,0.909,1.549,1.733,2.459,2.458l4.192-1.993c0.648,0.347,1.334,0.633,2.05,0.851l1.557,4.377c0.571,0.064,1.148,0.104,1.737,0.104c0.588,0,1.165-0.04,1.736-0.104l1.558-4.377c0.715-0.218,1.399-0.504,2.049-0.851l4.193,1.993c0.909-0.725,1.733-1.549,2.458-2.458l-1.993-4.193c0.347-0.647,0.633-1.334,0.851-2.049L31.229,17.736zM16,20.871c-2.69,0-4.872-2.182-4.872-4.871c0-2.69,2.182-4.872,4.872-4.872c2.689,0,4.871,2.182,4.871,4.872C20.871,18.689,18.689,20.871,16,20.871z"></path><title>Link options.</title></g></g></g></g></g><g ></g><g ></g><g ></g></g></svg>